M48
;DRILL file {KiCad (2017-08-04 revision 7bf9f8e1c)-master} date Mon Mar 18 20:53:24 2019
;FORMAT={3:3/ absolute / metric / suppress leading zeros}
FMAT,2
METRIC,TZ
T1C0.300
T2C0.650
T3C0.701
T4C1.000
T5C1.001
T6C4.300
%
G90
G05
M71
T1
X56200Y-130200
X59000Y-133600
X64100Y-141400
X65200Y-125000
X65300Y-134200
X68800Y-104500
X68800Y-129500
X68800Y-132900
X71500Y-140200
X74000Y-139000
X75100Y-136000
X76628Y-124953
X77000Y-132100
X78700Y-121900
X78800Y-127000
X79000Y-132000
X79800Y-122100
X79868Y-124637
X80000Y-130000
X80500Y-123400
X81187Y-124497
X81195Y-125335
X83531Y-127464
X83703Y-126207
X84200Y-135300
X84300Y-127100
X84300Y-128300
X84500Y-118300
X84600Y-136600
X85400Y-123600
X85400Y-138900
X85500Y-135500
X86200Y-117500
X86600Y-131500
X86800Y-132400
X87000Y-138700
X87300Y-114500
X87400Y-113619
X87500Y-118800
X89500Y-124500
X90432Y-124394
X90500Y-112900
X91200Y-125500
X91438Y-124495
X91700Y-113000
X92200Y-125000
X93000Y-128000
X95601Y-124205
X96000Y-128300
X96300Y-132900
X96400Y-123400
X97200Y-145600
X97900Y-127600
X98000Y-126300
X98600Y-113300
X98600Y-145400
X99100Y-130400
X99400Y-141900
X99500Y-118700
X99700Y-115800
X103000Y-102800
X103900Y-102100
X105600Y-123000
X106000Y-133300
X106000Y-141200
X106100Y-113300
X106100Y-119600
X108500Y-94500
X108500Y-96500
X108500Y-98500
X108500Y-100500
X108800Y-109500
X108800Y-133200
X108800Y-141800
X109700Y-110000
X110400Y-107600
X110400Y-139200
X110500Y-94500
X110500Y-96500
X110500Y-98500
X110500Y-100500
X111100Y-108700
X111200Y-111800
X111300Y-139300
X111700Y-90300
X112300Y-139200
X112400Y-113300
X112400Y-115800
X112500Y-94500
X112500Y-96500
X112500Y-98500
X112500Y-100500
X113003Y-117571
X113100Y-112400
X113300Y-88800
X113500Y-86800
X113500Y-89800
X113500Y-105800
X113600Y-106700
X114153Y-107967
X114500Y-94500
X114500Y-96500
X114500Y-98500
X114500Y-100500
X114600Y-86900
X114700Y-107000
X114900Y-86000
X115800Y-86100
X115900Y-113500
X116300Y-134900
X116700Y-86000
X117078Y-113621
X117200Y-135000
X117500Y-135800
X119400Y-87200
X119400Y-88100
X119400Y-89000
X119400Y-107400
X119400Y-108300
X119400Y-109200
X119600Y-138100
X119600Y-139000
X119700Y-141900
X120100Y-116000
X120600Y-87200
X120600Y-88100
X120600Y-89000
X121000Y-110400
X121500Y-95500
X121500Y-97500
X121500Y-99500
X121500Y-101500
X122700Y-86300
X123500Y-95500
X123500Y-97500
X123500Y-99500
X123500Y-101500
X125500Y-95500
X125500Y-97500
X125500Y-99500
X125500Y-101500
X125500Y-110800
X126300Y-132600
X126300Y-133400
X126400Y-112500
X126500Y-106100
X126700Y-104800
X127000Y-89000
X127100Y-88100
X127100Y-107600
X127100Y-132600
X127100Y-133400
X127500Y-95500
X127500Y-97500
X127500Y-99500
X127500Y-101500
X127650Y-124400
X127650Y-125400
X127900Y-132600
X127900Y-133400
X128400Y-121900
X128650Y-124400
X128650Y-125400
X128700Y-132600
X128700Y-133400
X129000Y-89900
X129500Y-95500
X129500Y-97500
X129500Y-99500
X129500Y-101500
X130000Y-128000
X130900Y-128000
X132000Y-89700
T4
X60000Y-147000
X64000Y-147000
X68000Y-147000
X72000Y-147000
X76000Y-147000
X80000Y-147000
X84000Y-147000
X88000Y-147000
X92000Y-147000
X117380Y-84000
X119920Y-84000
X122460Y-84000
X125000Y-84000
X108000Y-147000
X112000Y-147000
X116000Y-147000
X120000Y-147000
X124000Y-147000
X128000Y-147000
X132000Y-147000
X136000Y-147000
X140000Y-147000
X125320Y-140400
X125320Y-142940
X127860Y-140400
X127860Y-142940
X130400Y-140400
X130400Y-142940
X52000Y-94000
X52000Y-96540
X52000Y-99080
X52000Y-101620
X52000Y-104160
X52000Y-106700
X52000Y-109240
X52000Y-111780
X52000Y-114320
X66000Y-107960
X66000Y-110500
X68540Y-107960
X68540Y-110500
X71080Y-107960
X71080Y-110500
X73620Y-107960
X73620Y-110500
T5
X52190Y-119460
X52190Y-122000
X52190Y-124540
X59810Y-119460
X59810Y-122000
X59810Y-124540
T6
X55000Y-87000
X145000Y-142000
X145000Y-87000
X55000Y-142000
T2
X54730Y-129574G85X54331Y-129574
G05
X54730Y-134426G85X54331Y-134426
G05
T3
X51749Y-129275G85X51251Y-129275
G05
X51749Y-134725G85X51251Y-134725
G05
T5
X140399Y-126150G85X140399Y-123650
G05
X142150Y-119599G85X144149Y-119599
G05
X146401Y-125899G85X146401Y-123901
G05
T0
M30
