G04 #@! TF.GenerationSoftware,KiCad,Pcbnew,(2017-08-04 revision 7bf9f8e1c)-master*
G04 #@! TF.CreationDate,2019-03-18T20:52:30+01:00*
G04 #@! TF.ProjectId,pcb_ledtorus_controller,7063625F6C6564746F7275735F636F6E,rev?*
G04 #@! TF.SameCoordinates,Original*
G04 #@! TF.FileFunction,Copper,L2,Inr,Signal*
G04 #@! TF.FilePolarity,Positive*
%FSLAX46Y46*%
G04 Gerber Fmt 4.6, Leading zero omitted, Abs format (unit mm)*
G04 Created by KiCad (PCBNEW (2017-08-04 revision 7bf9f8e1c)-master) date Mon Mar 18 20:52:30 2019*
%MOMM*%
%LPD*%
G01*
G04 APERTURE LIST*
%ADD10O,1.998980X4.500880*%
%ADD11O,1.998980X4.000500*%
%ADD12O,4.000500X1.998980*%
%ADD13R,1.524000X2.199640*%
%ADD14O,1.524000X2.199640*%
%ADD15O,2.199640X1.524000*%
%ADD16R,2.199640X1.524000*%
%ADD17R,2.451100X1.300480*%
%ADD18R,1.399540X1.998980*%
%ADD19R,1.700000X1.700000*%
%ADD20O,1.700000X1.700000*%
%ADD21C,0.635000*%
%ADD22C,1.016000*%
%ADD23C,0.254000*%
G04 APERTURE END LIST*
D10*
X140399060Y-124900000D03*
D11*
X146401080Y-124900000D03*
D12*
X143149880Y-119599020D03*
D13*
X92000000Y-147000000D03*
D14*
X88000000Y-147000000D03*
X84000000Y-147000000D03*
X80000000Y-147000000D03*
X76000000Y-147000000D03*
X72000000Y-147000000D03*
X68000000Y-147000000D03*
X64000000Y-147000000D03*
X60000000Y-147000000D03*
D13*
X140000000Y-147000000D03*
D14*
X136000000Y-147000000D03*
X132000000Y-147000000D03*
X128000000Y-147000000D03*
X124000000Y-147000000D03*
X120000000Y-147000000D03*
X116000000Y-147000000D03*
X112000000Y-147000000D03*
X108000000Y-147000000D03*
D15*
X52190000Y-124540000D03*
X59810000Y-124540000D03*
X52190000Y-122000000D03*
X59810000Y-122000000D03*
X52190000Y-119460000D03*
D16*
X59810000Y-119460000D03*
D17*
X51649860Y-134725420D03*
X51649860Y-129274580D03*
D18*
X54530220Y-134900680D03*
X54530220Y-129099320D03*
D19*
X125000000Y-84000000D03*
D20*
X122460000Y-84000000D03*
X119920000Y-84000000D03*
X117380000Y-84000000D03*
D19*
X66000000Y-110500000D03*
D20*
X66000000Y-107960000D03*
X68540000Y-110500000D03*
X68540000Y-107960000D03*
X71080000Y-110500000D03*
X71080000Y-107960000D03*
X73620000Y-110500000D03*
X73620000Y-107960000D03*
D19*
X52000000Y-94000000D03*
D20*
X52000000Y-96540000D03*
X52000000Y-99080000D03*
X52000000Y-101620000D03*
X52000000Y-104160000D03*
X52000000Y-106700000D03*
X52000000Y-109240000D03*
X52000000Y-111780000D03*
X52000000Y-114320000D03*
D19*
X130400000Y-140400000D03*
D20*
X130400000Y-142940000D03*
X127860000Y-140400000D03*
X127860000Y-142940000D03*
X125320000Y-140400000D03*
X125320000Y-142940000D03*
D21*
X129500000Y-101500000D03*
X127500000Y-101500000D03*
X125500000Y-101500000D03*
X123500000Y-101500000D03*
X121500000Y-101500000D03*
X129500000Y-99500000D03*
X127500000Y-99500000D03*
X125500000Y-99500000D03*
X123500000Y-99500000D03*
X121500000Y-99500000D03*
X129500000Y-97500000D03*
X127500000Y-97500000D03*
X125500000Y-97500000D03*
X123500000Y-97500000D03*
X121500000Y-97500000D03*
X129500000Y-95500000D03*
X127500000Y-95500000D03*
X125500000Y-95500000D03*
X123500000Y-95500000D03*
X121500000Y-95500000D03*
X108500000Y-100500000D03*
X110500000Y-100500000D03*
X112500000Y-100500000D03*
X114500000Y-100500000D03*
X108500000Y-98500000D03*
X110500000Y-98500000D03*
X112500000Y-98500000D03*
X114500000Y-98500000D03*
X108500000Y-96500000D03*
X110500000Y-96500000D03*
X112500000Y-96500000D03*
X114500000Y-96500000D03*
X108500000Y-94500000D03*
X110500000Y-94500000D03*
X112500000Y-94500000D03*
X114500000Y-94500000D03*
X68800000Y-129500000D03*
X68800000Y-132900000D03*
X103900000Y-102100000D03*
X103000000Y-102800000D03*
X127000000Y-89000000D03*
X127100000Y-88100000D03*
X113500000Y-89800000D03*
X113300000Y-88800000D03*
X111700000Y-90300000D03*
X132000000Y-89700000D03*
X126500000Y-106100000D03*
X126700000Y-104800000D03*
X115900000Y-113500000D03*
X106000000Y-133299998D03*
X108800000Y-133200000D03*
X117200000Y-135000000D03*
X117500000Y-135800000D03*
X116300000Y-134900000D03*
X108800000Y-141800000D03*
X86200000Y-117500000D03*
X85400000Y-138900000D03*
X87000000Y-138700000D03*
X127100000Y-107600000D03*
X125500000Y-110800000D03*
X121000000Y-110400000D03*
X99400000Y-141900000D03*
X106100000Y-119600000D03*
X105600000Y-123000000D03*
X106100000Y-113300000D03*
X98600000Y-113300000D03*
X99700000Y-115800000D03*
X99500000Y-118700000D03*
X84500000Y-118300000D03*
X87300000Y-114500000D03*
X98000000Y-126300000D03*
X99100000Y-130400000D03*
X74000000Y-139000000D03*
X59000000Y-133600000D03*
X65300000Y-134200000D03*
X65200000Y-125000000D03*
X76627562Y-124952518D03*
X77000000Y-132100000D03*
X79000000Y-132000000D03*
X83531400Y-127464341D03*
X113500000Y-105800000D03*
X113600000Y-106700000D03*
X128700000Y-133400000D03*
X127900000Y-133400000D03*
X127100000Y-133400000D03*
X126300000Y-133400000D03*
X128700000Y-132600000D03*
X127900000Y-132600000D03*
X127100000Y-132600000D03*
X126300000Y-132600000D03*
X127650000Y-125400000D03*
X127650000Y-124400000D03*
X128650000Y-125400000D03*
X128650000Y-124400000D03*
X75100000Y-136000000D03*
X78800000Y-127000000D03*
X87500000Y-118800000D03*
X97900000Y-127600000D03*
X96300000Y-132900000D03*
X71500000Y-140200000D03*
X64100000Y-141400000D03*
X80000000Y-130000000D03*
X84600000Y-136600000D03*
X97200000Y-145600000D03*
X106000000Y-141200000D03*
X111300000Y-139300000D03*
X112300000Y-139200002D03*
X110400000Y-139200000D03*
X119700000Y-141900000D03*
X114153028Y-107966891D03*
X114600000Y-86900000D03*
X113500000Y-86800000D03*
X114700000Y-107000000D03*
X111100000Y-108700000D03*
X109700000Y-110000000D03*
X110400000Y-107600000D03*
X108800000Y-109500000D03*
X126400000Y-112500000D03*
X130000000Y-128000000D03*
X130900000Y-128000000D03*
X128400000Y-121900000D03*
X87400000Y-113619110D03*
X91700000Y-113000000D03*
X91200000Y-125500000D03*
X95601418Y-124204773D03*
X96400000Y-123400000D03*
X91438200Y-124495462D03*
X92200000Y-125000000D03*
X119600000Y-139000000D03*
X119600000Y-138100000D03*
X90500000Y-112900000D03*
X113003043Y-117571279D03*
X119400000Y-107400000D03*
X119400000Y-108300000D03*
X119400000Y-109200000D03*
X112400010Y-115800000D03*
X120600000Y-87200000D03*
X120600000Y-89000010D03*
X120600000Y-88100012D03*
X112400008Y-113300000D03*
X119400000Y-87199992D03*
X119400000Y-89000000D03*
X119400000Y-88100000D03*
X113100000Y-112400000D03*
X68800000Y-104500000D03*
X79800000Y-122100000D03*
X85499998Y-135500000D03*
X84200000Y-135300000D03*
X78700000Y-121900000D03*
X86600000Y-131500000D03*
X80500000Y-123400000D03*
X79867801Y-124636873D03*
X86800000Y-132400000D03*
X56200000Y-130200000D03*
X98600000Y-145400000D03*
X111200000Y-111800000D03*
X85400000Y-123600000D03*
X84300000Y-128300000D03*
X122700000Y-86300000D03*
X114900000Y-86000000D03*
X81186584Y-124496508D03*
X96000000Y-128300000D03*
X129000000Y-89900000D03*
X120100000Y-116000000D03*
X93000000Y-128000000D03*
X90431530Y-124394374D03*
X89500000Y-124500000D03*
X84300000Y-127100000D03*
X117077690Y-113620712D03*
X83702595Y-126206686D03*
X116700000Y-86000000D03*
X115800000Y-86100000D03*
X81195033Y-125334670D03*
D22*
X132000000Y-147000000D02*
X132000000Y-147337820D01*
X132000000Y-147337820D02*
X130437820Y-148900000D01*
X130437820Y-148900000D02*
X85562180Y-148900000D01*
X85562180Y-148900000D02*
X84000000Y-147337820D01*
X84000000Y-147337820D02*
X84000000Y-147000000D01*
D23*
G36*
X116329946Y-82920853D02*
X116008039Y-83402622D01*
X115895000Y-83970907D01*
X115895000Y-84029093D01*
X116008039Y-84597378D01*
X116329946Y-85079147D01*
X116369849Y-85105809D01*
X116161157Y-85192039D01*
X116142357Y-85210806D01*
X115990295Y-85147665D01*
X115611367Y-85147335D01*
X115457962Y-85210721D01*
X115440253Y-85192980D01*
X115090295Y-85047665D01*
X114711367Y-85047335D01*
X114361157Y-85192039D01*
X114092980Y-85459747D01*
X113947665Y-85809705D01*
X113947539Y-85954482D01*
X113690295Y-85847665D01*
X113311367Y-85847335D01*
X112961157Y-85992039D01*
X112692980Y-86259747D01*
X112547665Y-86609705D01*
X112547335Y-86988633D01*
X112692039Y-87338843D01*
X112959747Y-87607020D01*
X113309705Y-87752335D01*
X113688633Y-87752665D01*
X113983633Y-87630773D01*
X114059747Y-87707020D01*
X114409705Y-87852335D01*
X114788633Y-87852665D01*
X115138843Y-87707961D01*
X115407020Y-87440253D01*
X115428457Y-87388625D01*
X118447335Y-87388625D01*
X118555418Y-87650206D01*
X118447665Y-87909705D01*
X118447335Y-88288633D01*
X118555417Y-88550210D01*
X118447665Y-88809705D01*
X118447335Y-89188633D01*
X118592039Y-89538843D01*
X118859747Y-89807020D01*
X119209705Y-89952335D01*
X119588633Y-89952665D01*
X119938843Y-89807961D01*
X119999866Y-89747044D01*
X120059747Y-89807030D01*
X120409705Y-89952345D01*
X120788633Y-89952675D01*
X121138843Y-89807971D01*
X121407020Y-89540263D01*
X121552335Y-89190305D01*
X121552665Y-88811377D01*
X121444584Y-88549801D01*
X121552335Y-88290307D01*
X121552665Y-87911379D01*
X121444581Y-87649796D01*
X121485380Y-87551540D01*
X142214518Y-87551540D01*
X142637616Y-88575515D01*
X143420365Y-89359631D01*
X144443599Y-89784515D01*
X145551540Y-89785482D01*
X146575515Y-89362384D01*
X147359631Y-88579635D01*
X147784515Y-87556401D01*
X147785482Y-86448460D01*
X147362384Y-85424485D01*
X146579635Y-84640369D01*
X145556401Y-84215485D01*
X144448460Y-84214518D01*
X143424485Y-84637616D01*
X142640369Y-85420365D01*
X142215485Y-86443599D01*
X142214518Y-87551540D01*
X121485380Y-87551540D01*
X121552335Y-87390295D01*
X121552665Y-87011367D01*
X121407961Y-86661157D01*
X121140253Y-86392980D01*
X120790295Y-86247665D01*
X120411367Y-86247335D01*
X120061157Y-86392039D01*
X120000133Y-86452957D01*
X119940253Y-86392972D01*
X119590295Y-86247657D01*
X119211367Y-86247327D01*
X118861157Y-86392031D01*
X118592980Y-86659739D01*
X118447665Y-87009697D01*
X118447335Y-87388625D01*
X115428457Y-87388625D01*
X115552335Y-87090295D01*
X115552389Y-87028535D01*
X115609705Y-87052335D01*
X115988633Y-87052665D01*
X116338843Y-86907961D01*
X116357643Y-86889194D01*
X116509705Y-86952335D01*
X116888633Y-86952665D01*
X117238843Y-86807961D01*
X117507020Y-86540253D01*
X117652335Y-86190295D01*
X117652665Y-85811367D01*
X117518454Y-85486553D01*
X117948285Y-85401054D01*
X118430054Y-85079147D01*
X118650000Y-84749974D01*
X118869946Y-85079147D01*
X119351715Y-85401054D01*
X119920000Y-85514093D01*
X120488285Y-85401054D01*
X120970054Y-85079147D01*
X121190000Y-84749974D01*
X121409946Y-85079147D01*
X121891715Y-85401054D01*
X122222241Y-85466800D01*
X122161157Y-85492039D01*
X121892980Y-85759747D01*
X121747665Y-86109705D01*
X121747335Y-86488633D01*
X121892039Y-86838843D01*
X122159747Y-87107020D01*
X122509705Y-87252335D01*
X122888633Y-87252665D01*
X123238843Y-87107961D01*
X123507020Y-86840253D01*
X123652335Y-86490295D01*
X123652665Y-86111367D01*
X123507961Y-85761157D01*
X123240253Y-85492980D01*
X123021920Y-85402320D01*
X123028285Y-85401054D01*
X123510054Y-85079147D01*
X123539403Y-85035223D01*
X123551843Y-85097765D01*
X123692191Y-85307809D01*
X123902235Y-85448157D01*
X124150000Y-85497440D01*
X125850000Y-85497440D01*
X126097765Y-85448157D01*
X126307809Y-85307809D01*
X126448157Y-85097765D01*
X126497440Y-84850000D01*
X126497440Y-83150000D01*
X126448157Y-82902235D01*
X126319709Y-82710000D01*
X147930069Y-82710000D01*
X148488338Y-82821046D01*
X148902333Y-83097669D01*
X149178953Y-83511660D01*
X149290000Y-84069931D01*
X149290000Y-147930069D01*
X149178953Y-148488340D01*
X148902333Y-148902331D01*
X148488338Y-149178954D01*
X147930069Y-149290000D01*
X131664266Y-149290000D01*
X132231509Y-148722757D01*
X132534609Y-148662467D01*
X132987828Y-148359635D01*
X133290660Y-147906416D01*
X133397000Y-147371807D01*
X133397000Y-146628193D01*
X134603000Y-146628193D01*
X134603000Y-147371807D01*
X134709340Y-147906416D01*
X135012172Y-148359635D01*
X135465391Y-148662467D01*
X136000000Y-148768807D01*
X136534609Y-148662467D01*
X136987828Y-148359635D01*
X137290660Y-147906416D01*
X137397000Y-147371807D01*
X137397000Y-146628193D01*
X137290660Y-146093584D01*
X137161432Y-145900180D01*
X138590560Y-145900180D01*
X138590560Y-148099820D01*
X138639843Y-148347585D01*
X138780191Y-148557629D01*
X138990235Y-148697977D01*
X139238000Y-148747260D01*
X140762000Y-148747260D01*
X141009765Y-148697977D01*
X141219809Y-148557629D01*
X141360157Y-148347585D01*
X141409440Y-148099820D01*
X141409440Y-145900180D01*
X141360157Y-145652415D01*
X141219809Y-145442371D01*
X141009765Y-145302023D01*
X140762000Y-145252740D01*
X139238000Y-145252740D01*
X138990235Y-145302023D01*
X138780191Y-145442371D01*
X138639843Y-145652415D01*
X138590560Y-145900180D01*
X137161432Y-145900180D01*
X136987828Y-145640365D01*
X136534609Y-145337533D01*
X136000000Y-145231193D01*
X135465391Y-145337533D01*
X135012172Y-145640365D01*
X134709340Y-146093584D01*
X134603000Y-146628193D01*
X133397000Y-146628193D01*
X133290660Y-146093584D01*
X132987828Y-145640365D01*
X132534609Y-145337533D01*
X132000000Y-145231193D01*
X131465391Y-145337533D01*
X131012172Y-145640365D01*
X130709340Y-146093584D01*
X130603000Y-146628193D01*
X130603000Y-147118374D01*
X129964374Y-147757000D01*
X129310760Y-147757000D01*
X129397000Y-147464820D01*
X129397000Y-147127000D01*
X128127000Y-147127000D01*
X128127000Y-147147000D01*
X127873000Y-147147000D01*
X127873000Y-147127000D01*
X126603000Y-147127000D01*
X126603000Y-147464820D01*
X126689240Y-147757000D01*
X125320381Y-147757000D01*
X125397000Y-147371807D01*
X125397000Y-146628193D01*
X125378499Y-146535180D01*
X126603000Y-146535180D01*
X126603000Y-146873000D01*
X127873000Y-146873000D01*
X127873000Y-145430460D01*
X128127000Y-145430460D01*
X128127000Y-146873000D01*
X129397000Y-146873000D01*
X129397000Y-146535180D01*
X129242059Y-146010239D01*
X128898026Y-145584550D01*
X128417277Y-145322920D01*
X128343070Y-145307960D01*
X128127000Y-145430460D01*
X127873000Y-145430460D01*
X127656930Y-145307960D01*
X127582723Y-145322920D01*
X127101974Y-145584550D01*
X126757941Y-146010239D01*
X126603000Y-146535180D01*
X125378499Y-146535180D01*
X125290660Y-146093584D01*
X124987828Y-145640365D01*
X124534609Y-145337533D01*
X124000000Y-145231193D01*
X123465391Y-145337533D01*
X123012172Y-145640365D01*
X122709340Y-146093584D01*
X122603000Y-146628193D01*
X122603000Y-147371807D01*
X122679619Y-147757000D01*
X121320381Y-147757000D01*
X121397000Y-147371807D01*
X121397000Y-146628193D01*
X121290660Y-146093584D01*
X120987828Y-145640365D01*
X120534609Y-145337533D01*
X120000000Y-145231193D01*
X119465391Y-145337533D01*
X119012172Y-145640365D01*
X118709340Y-146093584D01*
X118603000Y-146628193D01*
X118603000Y-147371807D01*
X118679619Y-147757000D01*
X117320381Y-147757000D01*
X117397000Y-147371807D01*
X117397000Y-146628193D01*
X117290660Y-146093584D01*
X116987828Y-145640365D01*
X116534609Y-145337533D01*
X116000000Y-145231193D01*
X115465391Y-145337533D01*
X115012172Y-145640365D01*
X114709340Y-146093584D01*
X114603000Y-146628193D01*
X114603000Y-147371807D01*
X114679619Y-147757000D01*
X113320381Y-147757000D01*
X113397000Y-147371807D01*
X113397000Y-146628193D01*
X113290660Y-146093584D01*
X112987828Y-145640365D01*
X112534609Y-145337533D01*
X112000000Y-145231193D01*
X111465391Y-145337533D01*
X111012172Y-145640365D01*
X110709340Y-146093584D01*
X110603000Y-146628193D01*
X110603000Y-147371807D01*
X110679619Y-147757000D01*
X109320381Y-147757000D01*
X109397000Y-147371807D01*
X109397000Y-146628193D01*
X109290660Y-146093584D01*
X108987828Y-145640365D01*
X108534609Y-145337533D01*
X108000000Y-145231193D01*
X107465391Y-145337533D01*
X107012172Y-145640365D01*
X106709340Y-146093584D01*
X106603000Y-146628193D01*
X106603000Y-147371807D01*
X106679619Y-147757000D01*
X93409440Y-147757000D01*
X93409440Y-145900180D01*
X93387253Y-145788633D01*
X96247335Y-145788633D01*
X96392039Y-146138843D01*
X96659747Y-146407020D01*
X97009705Y-146552335D01*
X97388633Y-146552665D01*
X97738843Y-146407961D01*
X98000046Y-146147215D01*
X98059747Y-146207020D01*
X98409705Y-146352335D01*
X98788633Y-146352665D01*
X99138843Y-146207961D01*
X99407020Y-145940253D01*
X99552335Y-145590295D01*
X99552665Y-145211367D01*
X99407961Y-144861157D01*
X99140253Y-144592980D01*
X98790295Y-144447665D01*
X98411367Y-144447335D01*
X98061157Y-144592039D01*
X97799954Y-144852785D01*
X97740253Y-144792980D01*
X97390295Y-144647665D01*
X97011367Y-144647335D01*
X96661157Y-144792039D01*
X96392980Y-145059747D01*
X96247665Y-145409705D01*
X96247335Y-145788633D01*
X93387253Y-145788633D01*
X93360157Y-145652415D01*
X93219809Y-145442371D01*
X93009765Y-145302023D01*
X92762000Y-145252740D01*
X91238000Y-145252740D01*
X90990235Y-145302023D01*
X90780191Y-145442371D01*
X90639843Y-145652415D01*
X90590560Y-145900180D01*
X90590560Y-147757000D01*
X89320381Y-147757000D01*
X89397000Y-147371807D01*
X89397000Y-146628193D01*
X89290660Y-146093584D01*
X88987828Y-145640365D01*
X88534609Y-145337533D01*
X88000000Y-145231193D01*
X87465391Y-145337533D01*
X87012172Y-145640365D01*
X86709340Y-146093584D01*
X86603000Y-146628193D01*
X86603000Y-147371807D01*
X86679619Y-147757000D01*
X86035626Y-147757000D01*
X85397000Y-147118374D01*
X85397000Y-146628193D01*
X85290660Y-146093584D01*
X84987828Y-145640365D01*
X84534609Y-145337533D01*
X84000000Y-145231193D01*
X83465391Y-145337533D01*
X83012172Y-145640365D01*
X82709340Y-146093584D01*
X82603000Y-146628193D01*
X82603000Y-147371807D01*
X82709340Y-147906416D01*
X83012172Y-148359635D01*
X83465391Y-148662467D01*
X83768491Y-148722757D01*
X84335734Y-149290000D01*
X52069931Y-149290000D01*
X51511660Y-149178953D01*
X51097669Y-148902333D01*
X50821046Y-148488338D01*
X50710000Y-147930069D01*
X50710000Y-146628193D01*
X58603000Y-146628193D01*
X58603000Y-147371807D01*
X58709340Y-147906416D01*
X59012172Y-148359635D01*
X59465391Y-148662467D01*
X60000000Y-148768807D01*
X60534609Y-148662467D01*
X60987828Y-148359635D01*
X61290660Y-147906416D01*
X61397000Y-147371807D01*
X61397000Y-146628193D01*
X62603000Y-146628193D01*
X62603000Y-147371807D01*
X62709340Y-147906416D01*
X63012172Y-148359635D01*
X63465391Y-148662467D01*
X64000000Y-148768807D01*
X64534609Y-148662467D01*
X64987828Y-148359635D01*
X65290660Y-147906416D01*
X65397000Y-147371807D01*
X65397000Y-146628193D01*
X66603000Y-146628193D01*
X66603000Y-147371807D01*
X66709340Y-147906416D01*
X67012172Y-148359635D01*
X67465391Y-148662467D01*
X68000000Y-148768807D01*
X68534609Y-148662467D01*
X68987828Y-148359635D01*
X69290660Y-147906416D01*
X69397000Y-147371807D01*
X69397000Y-146628193D01*
X70603000Y-146628193D01*
X70603000Y-147371807D01*
X70709340Y-147906416D01*
X71012172Y-148359635D01*
X71465391Y-148662467D01*
X72000000Y-148768807D01*
X72534609Y-148662467D01*
X72987828Y-148359635D01*
X73290660Y-147906416D01*
X73397000Y-147371807D01*
X73397000Y-146628193D01*
X74603000Y-146628193D01*
X74603000Y-147371807D01*
X74709340Y-147906416D01*
X75012172Y-148359635D01*
X75465391Y-148662467D01*
X76000000Y-148768807D01*
X76534609Y-148662467D01*
X76987828Y-148359635D01*
X77290660Y-147906416D01*
X77397000Y-147371807D01*
X77397000Y-147127000D01*
X78603000Y-147127000D01*
X78603000Y-147464820D01*
X78757941Y-147989761D01*
X79101974Y-148415450D01*
X79582723Y-148677080D01*
X79656930Y-148692040D01*
X79873000Y-148569540D01*
X79873000Y-147127000D01*
X80127000Y-147127000D01*
X80127000Y-148569540D01*
X80343070Y-148692040D01*
X80417277Y-148677080D01*
X80898026Y-148415450D01*
X81242059Y-147989761D01*
X81397000Y-147464820D01*
X81397000Y-147127000D01*
X80127000Y-147127000D01*
X79873000Y-147127000D01*
X78603000Y-147127000D01*
X77397000Y-147127000D01*
X77397000Y-146628193D01*
X77378499Y-146535180D01*
X78603000Y-146535180D01*
X78603000Y-146873000D01*
X79873000Y-146873000D01*
X79873000Y-145430460D01*
X80127000Y-145430460D01*
X80127000Y-146873000D01*
X81397000Y-146873000D01*
X81397000Y-146535180D01*
X81242059Y-146010239D01*
X80898026Y-145584550D01*
X80417277Y-145322920D01*
X80343070Y-145307960D01*
X80127000Y-145430460D01*
X79873000Y-145430460D01*
X79656930Y-145307960D01*
X79582723Y-145322920D01*
X79101974Y-145584550D01*
X78757941Y-146010239D01*
X78603000Y-146535180D01*
X77378499Y-146535180D01*
X77290660Y-146093584D01*
X76987828Y-145640365D01*
X76534609Y-145337533D01*
X76000000Y-145231193D01*
X75465391Y-145337533D01*
X75012172Y-145640365D01*
X74709340Y-146093584D01*
X74603000Y-146628193D01*
X73397000Y-146628193D01*
X73290660Y-146093584D01*
X72987828Y-145640365D01*
X72534609Y-145337533D01*
X72000000Y-145231193D01*
X71465391Y-145337533D01*
X71012172Y-145640365D01*
X70709340Y-146093584D01*
X70603000Y-146628193D01*
X69397000Y-146628193D01*
X69290660Y-146093584D01*
X68987828Y-145640365D01*
X68534609Y-145337533D01*
X68000000Y-145231193D01*
X67465391Y-145337533D01*
X67012172Y-145640365D01*
X66709340Y-146093584D01*
X66603000Y-146628193D01*
X65397000Y-146628193D01*
X65290660Y-146093584D01*
X64987828Y-145640365D01*
X64534609Y-145337533D01*
X64000000Y-145231193D01*
X63465391Y-145337533D01*
X63012172Y-145640365D01*
X62709340Y-146093584D01*
X62603000Y-146628193D01*
X61397000Y-146628193D01*
X61290660Y-146093584D01*
X60987828Y-145640365D01*
X60534609Y-145337533D01*
X60000000Y-145231193D01*
X59465391Y-145337533D01*
X59012172Y-145640365D01*
X58709340Y-146093584D01*
X58603000Y-146628193D01*
X50710000Y-146628193D01*
X50710000Y-142551540D01*
X52214518Y-142551540D01*
X52637616Y-143575515D01*
X53420365Y-144359631D01*
X54443599Y-144784515D01*
X55551540Y-144785482D01*
X56575515Y-144362384D01*
X57359631Y-143579635D01*
X57784515Y-142556401D01*
X57785359Y-141588633D01*
X63147335Y-141588633D01*
X63292039Y-141938843D01*
X63559747Y-142207020D01*
X63909705Y-142352335D01*
X64288633Y-142352665D01*
X64638843Y-142207961D01*
X64907020Y-141940253D01*
X65052335Y-141590295D01*
X65052510Y-141388633D01*
X105047335Y-141388633D01*
X105192039Y-141738843D01*
X105459747Y-142007020D01*
X105809705Y-142152335D01*
X106188633Y-142152665D01*
X106343602Y-142088633D01*
X118747335Y-142088633D01*
X118892039Y-142438843D01*
X119159747Y-142707020D01*
X119509705Y-142852335D01*
X119888633Y-142852665D01*
X120238843Y-142707961D01*
X120507020Y-142440253D01*
X120652335Y-142090295D01*
X120652665Y-141711367D01*
X120507961Y-141361157D01*
X120240253Y-141092980D01*
X119890295Y-140947665D01*
X119511367Y-140947335D01*
X119161157Y-141092039D01*
X118892980Y-141359747D01*
X118747665Y-141709705D01*
X118747335Y-142088633D01*
X106343602Y-142088633D01*
X106538843Y-142007961D01*
X106807020Y-141740253D01*
X106952335Y-141390295D01*
X106952665Y-141011367D01*
X106807961Y-140661157D01*
X106540253Y-140392980D01*
X106487096Y-140370907D01*
X123835000Y-140370907D01*
X123835000Y-140429093D01*
X123948039Y-140997378D01*
X124269946Y-141479147D01*
X124555578Y-141670000D01*
X124269946Y-141860853D01*
X123948039Y-142342622D01*
X123835000Y-142910907D01*
X123835000Y-142969093D01*
X123948039Y-143537378D01*
X124269946Y-144019147D01*
X124751715Y-144341054D01*
X125320000Y-144454093D01*
X125888285Y-144341054D01*
X126370054Y-144019147D01*
X126590000Y-143689974D01*
X126809946Y-144019147D01*
X127291715Y-144341054D01*
X127860000Y-144454093D01*
X128428285Y-144341054D01*
X128910054Y-144019147D01*
X129130000Y-143689974D01*
X129349946Y-144019147D01*
X129831715Y-144341054D01*
X130400000Y-144454093D01*
X130968285Y-144341054D01*
X131450054Y-144019147D01*
X131771961Y-143537378D01*
X131885000Y-142969093D01*
X131885000Y-142910907D01*
X131813518Y-142551540D01*
X142214518Y-142551540D01*
X142637616Y-143575515D01*
X143420365Y-144359631D01*
X144443599Y-144784515D01*
X145551540Y-144785482D01*
X146575515Y-144362384D01*
X147359631Y-143579635D01*
X147784515Y-142556401D01*
X147785482Y-141448460D01*
X147362384Y-140424485D01*
X146579635Y-139640369D01*
X145556401Y-139215485D01*
X144448460Y-139214518D01*
X143424485Y-139637616D01*
X142640369Y-140420365D01*
X142215485Y-141443599D01*
X142214518Y-142551540D01*
X131813518Y-142551540D01*
X131771961Y-142342622D01*
X131450054Y-141860853D01*
X131446357Y-141858383D01*
X131497765Y-141848157D01*
X131707809Y-141707809D01*
X131848157Y-141497765D01*
X131897440Y-141250000D01*
X131897440Y-139550000D01*
X131848157Y-139302235D01*
X131707809Y-139092191D01*
X131497765Y-138951843D01*
X131250000Y-138902560D01*
X129550000Y-138902560D01*
X129302235Y-138951843D01*
X129092191Y-139092191D01*
X128951843Y-139302235D01*
X128939403Y-139364777D01*
X128910054Y-139320853D01*
X128428285Y-138998946D01*
X127860000Y-138885907D01*
X127291715Y-138998946D01*
X126809946Y-139320853D01*
X126590000Y-139650026D01*
X126370054Y-139320853D01*
X125888285Y-138998946D01*
X125320000Y-138885907D01*
X124751715Y-138998946D01*
X124269946Y-139320853D01*
X123948039Y-139802622D01*
X123835000Y-140370907D01*
X106487096Y-140370907D01*
X106190295Y-140247665D01*
X105811367Y-140247335D01*
X105461157Y-140392039D01*
X105192980Y-140659747D01*
X105047665Y-141009705D01*
X105047335Y-141388633D01*
X65052510Y-141388633D01*
X65052665Y-141211367D01*
X64907961Y-140861157D01*
X64640253Y-140592980D01*
X64290295Y-140447665D01*
X63911367Y-140447335D01*
X63561157Y-140592039D01*
X63292980Y-140859747D01*
X63147665Y-141209705D01*
X63147335Y-141588633D01*
X57785359Y-141588633D01*
X57785482Y-141448460D01*
X57362384Y-140424485D01*
X57326595Y-140388633D01*
X70547335Y-140388633D01*
X70692039Y-140738843D01*
X70959747Y-141007020D01*
X71309705Y-141152335D01*
X71688633Y-141152665D01*
X72038843Y-141007961D01*
X72307020Y-140740253D01*
X72452335Y-140390295D01*
X72452665Y-140011367D01*
X72307961Y-139661157D01*
X72040253Y-139392980D01*
X72029785Y-139388633D01*
X109447335Y-139388633D01*
X109592039Y-139738843D01*
X109859747Y-140007020D01*
X110209705Y-140152335D01*
X110588633Y-140152665D01*
X110742038Y-140089279D01*
X110759747Y-140107020D01*
X111109705Y-140252335D01*
X111488633Y-140252665D01*
X111838843Y-140107961D01*
X111887019Y-140059870D01*
X112109705Y-140152337D01*
X112488633Y-140152667D01*
X112838843Y-140007963D01*
X113107020Y-139740255D01*
X113252335Y-139390297D01*
X113252665Y-139011369D01*
X113107961Y-138661159D01*
X112840253Y-138392982D01*
X112588953Y-138288633D01*
X118647335Y-138288633D01*
X118755417Y-138550210D01*
X118647665Y-138809705D01*
X118647335Y-139188633D01*
X118792039Y-139538843D01*
X119059747Y-139807020D01*
X119409705Y-139952335D01*
X119788633Y-139952665D01*
X120138843Y-139807961D01*
X120407020Y-139540253D01*
X120552335Y-139190295D01*
X120552665Y-138811367D01*
X120444583Y-138549790D01*
X120552335Y-138290295D01*
X120552665Y-137911367D01*
X120407961Y-137561157D01*
X120140253Y-137292980D01*
X119790295Y-137147665D01*
X119411367Y-137147335D01*
X119061157Y-137292039D01*
X118792980Y-137559747D01*
X118647665Y-137909705D01*
X118647335Y-138288633D01*
X112588953Y-138288633D01*
X112490295Y-138247667D01*
X112111367Y-138247337D01*
X111761157Y-138392041D01*
X111712981Y-138440132D01*
X111490295Y-138347665D01*
X111111367Y-138347335D01*
X110957962Y-138410721D01*
X110940253Y-138392980D01*
X110590295Y-138247665D01*
X110211367Y-138247335D01*
X109861157Y-138392039D01*
X109592980Y-138659747D01*
X109447665Y-139009705D01*
X109447335Y-139388633D01*
X72029785Y-139388633D01*
X71690295Y-139247665D01*
X71311367Y-139247335D01*
X70961157Y-139392039D01*
X70692980Y-139659747D01*
X70547665Y-140009705D01*
X70547335Y-140388633D01*
X57326595Y-140388633D01*
X56579635Y-139640369D01*
X55556401Y-139215485D01*
X54448460Y-139214518D01*
X53424485Y-139637616D01*
X52640369Y-140420365D01*
X52215485Y-141443599D01*
X52214518Y-142551540D01*
X50710000Y-142551540D01*
X50710000Y-136023100D01*
X52875410Y-136023100D01*
X53123175Y-135973817D01*
X53188921Y-135929887D01*
X53232293Y-136147935D01*
X53372641Y-136357979D01*
X53582685Y-136498327D01*
X53830450Y-136547610D01*
X55229990Y-136547610D01*
X55477755Y-136498327D01*
X55687799Y-136357979D01*
X55800953Y-136188633D01*
X74147335Y-136188633D01*
X74292039Y-136538843D01*
X74559747Y-136807020D01*
X74909705Y-136952335D01*
X75288633Y-136952665D01*
X75638843Y-136807961D01*
X75907020Y-136540253D01*
X76052335Y-136190295D01*
X76052665Y-135811367D01*
X75919314Y-135488633D01*
X83247335Y-135488633D01*
X83392039Y-135838843D01*
X83659747Y-136107020D01*
X83756644Y-136147255D01*
X83647665Y-136409705D01*
X83647335Y-136788633D01*
X83792039Y-137138843D01*
X84059747Y-137407020D01*
X84409705Y-137552335D01*
X84788633Y-137552665D01*
X85138843Y-137407961D01*
X85407020Y-137140253D01*
X85552335Y-136790295D01*
X85552629Y-136452547D01*
X85688631Y-136452665D01*
X86038841Y-136307961D01*
X86307018Y-136040253D01*
X86452333Y-135690295D01*
X86452663Y-135311367D01*
X86307959Y-134961157D01*
X86040251Y-134692980D01*
X85690293Y-134547665D01*
X85311365Y-134547335D01*
X84961155Y-134692039D01*
X84950040Y-134703135D01*
X84740253Y-134492980D01*
X84390295Y-134347665D01*
X84011367Y-134347335D01*
X83661157Y-134492039D01*
X83392980Y-134759747D01*
X83247665Y-135109705D01*
X83247335Y-135488633D01*
X75919314Y-135488633D01*
X75907961Y-135461157D01*
X75640253Y-135192980D01*
X75290295Y-135047665D01*
X74911367Y-135047335D01*
X74561157Y-135192039D01*
X74292980Y-135459747D01*
X74147665Y-135809705D01*
X74147335Y-136188633D01*
X55800953Y-136188633D01*
X55828147Y-136147935D01*
X55877430Y-135900170D01*
X55877430Y-133901190D01*
X55828147Y-133653425D01*
X55687799Y-133443381D01*
X55477755Y-133303033D01*
X55229990Y-133253750D01*
X53830450Y-133253750D01*
X53582685Y-133303033D01*
X53372641Y-133443381D01*
X53280100Y-133581878D01*
X53123175Y-133477023D01*
X52875410Y-133427740D01*
X50710000Y-133427740D01*
X50710000Y-133088633D01*
X67847335Y-133088633D01*
X67992039Y-133438843D01*
X68259747Y-133707020D01*
X68609705Y-133852335D01*
X68988633Y-133852665D01*
X69338843Y-133707961D01*
X69607020Y-133440253D01*
X69752335Y-133090295D01*
X69752665Y-132711367D01*
X69607961Y-132361157D01*
X69340253Y-132092980D01*
X68990295Y-131947665D01*
X68611367Y-131947335D01*
X68261157Y-132092039D01*
X67992980Y-132359747D01*
X67847665Y-132709705D01*
X67847335Y-133088633D01*
X50710000Y-133088633D01*
X50710000Y-131688633D01*
X85647335Y-131688633D01*
X85792039Y-132038843D01*
X85881430Y-132128390D01*
X85847665Y-132209705D01*
X85847335Y-132588633D01*
X85992039Y-132938843D01*
X86259747Y-133207020D01*
X86609705Y-133352335D01*
X86988633Y-133352665D01*
X87338843Y-133207961D01*
X87458380Y-133088633D01*
X95347335Y-133088633D01*
X95492039Y-133438843D01*
X95759747Y-133707020D01*
X96109705Y-133852335D01*
X96488633Y-133852665D01*
X96838843Y-133707961D01*
X97107020Y-133440253D01*
X97252335Y-133090295D01*
X97252665Y-132711367D01*
X97107961Y-132361157D01*
X96840253Y-132092980D01*
X96490295Y-131947665D01*
X96111367Y-131947335D01*
X95761157Y-132092039D01*
X95492980Y-132359747D01*
X95347665Y-132709705D01*
X95347335Y-133088633D01*
X87458380Y-133088633D01*
X87607020Y-132940253D01*
X87752335Y-132590295D01*
X87752665Y-132211367D01*
X87607961Y-131861157D01*
X87518570Y-131771610D01*
X87552335Y-131690295D01*
X87552665Y-131311367D01*
X87407961Y-130961157D01*
X87140253Y-130692980D01*
X86790295Y-130547665D01*
X86411367Y-130547335D01*
X86061157Y-130692039D01*
X85792980Y-130959747D01*
X85647665Y-131309705D01*
X85647335Y-131688633D01*
X50710000Y-131688633D01*
X50710000Y-130572260D01*
X52875410Y-130572260D01*
X53123175Y-130522977D01*
X53280100Y-130418122D01*
X53372641Y-130556619D01*
X53582685Y-130696967D01*
X53830450Y-130746250D01*
X55229990Y-130746250D01*
X55382560Y-130715902D01*
X55392039Y-130738843D01*
X55659747Y-131007020D01*
X56009705Y-131152335D01*
X56388633Y-131152665D01*
X56738843Y-131007961D01*
X57007020Y-130740253D01*
X57152335Y-130390295D01*
X57152665Y-130011367D01*
X57019314Y-129688633D01*
X67847335Y-129688633D01*
X67992039Y-130038843D01*
X68259747Y-130307020D01*
X68609705Y-130452335D01*
X68988633Y-130452665D01*
X69338843Y-130307961D01*
X69458380Y-130188633D01*
X79047335Y-130188633D01*
X79192039Y-130538843D01*
X79459747Y-130807020D01*
X79809705Y-130952335D01*
X80188633Y-130952665D01*
X80538843Y-130807961D01*
X80807020Y-130540253D01*
X80952335Y-130190295D01*
X80952665Y-129811367D01*
X80807961Y-129461157D01*
X80540253Y-129192980D01*
X80190295Y-129047665D01*
X79811367Y-129047335D01*
X79461157Y-129192039D01*
X79192980Y-129459747D01*
X79047665Y-129809705D01*
X79047335Y-130188633D01*
X69458380Y-130188633D01*
X69607020Y-130040253D01*
X69752335Y-129690295D01*
X69752665Y-129311367D01*
X69607961Y-128961157D01*
X69340253Y-128692980D01*
X68990295Y-128547665D01*
X68611367Y-128547335D01*
X68261157Y-128692039D01*
X67992980Y-128959747D01*
X67847665Y-129309705D01*
X67847335Y-129688633D01*
X57019314Y-129688633D01*
X57007961Y-129661157D01*
X56740253Y-129392980D01*
X56390295Y-129247665D01*
X56011367Y-129247335D01*
X55877430Y-129302677D01*
X55877430Y-128099830D01*
X55828147Y-127852065D01*
X55687799Y-127642021D01*
X55477755Y-127501673D01*
X55229990Y-127452390D01*
X53830450Y-127452390D01*
X53582685Y-127501673D01*
X53372641Y-127642021D01*
X53232293Y-127852065D01*
X53188921Y-128070113D01*
X53123175Y-128026183D01*
X52875410Y-127976900D01*
X50710000Y-127976900D01*
X50710000Y-127188633D01*
X77847335Y-127188633D01*
X77992039Y-127538843D01*
X78259747Y-127807020D01*
X78609705Y-127952335D01*
X78988633Y-127952665D01*
X79338843Y-127807961D01*
X79607020Y-127540253D01*
X79752335Y-127190295D01*
X79752665Y-126811367D01*
X79607961Y-126461157D01*
X79542239Y-126395319D01*
X82749930Y-126395319D01*
X82894634Y-126745529D01*
X83162342Y-127013706D01*
X83347507Y-127090593D01*
X83347335Y-127288633D01*
X83492039Y-127638843D01*
X83552961Y-127699871D01*
X83492980Y-127759747D01*
X83347665Y-128109705D01*
X83347335Y-128488633D01*
X83492039Y-128838843D01*
X83759747Y-129107020D01*
X84109705Y-129252335D01*
X84488633Y-129252665D01*
X84838843Y-129107961D01*
X85107020Y-128840253D01*
X85252335Y-128490295D01*
X85252597Y-128188633D01*
X92047335Y-128188633D01*
X92192039Y-128538843D01*
X92459747Y-128807020D01*
X92809705Y-128952335D01*
X93188633Y-128952665D01*
X93538843Y-128807961D01*
X93807020Y-128540253D01*
X93828454Y-128488633D01*
X95047335Y-128488633D01*
X95192039Y-128838843D01*
X95459747Y-129107020D01*
X95809705Y-129252335D01*
X96188633Y-129252665D01*
X96538843Y-129107961D01*
X96807020Y-128840253D01*
X96952335Y-128490295D01*
X96952665Y-128111367D01*
X96819314Y-127788633D01*
X96947335Y-127788633D01*
X97092039Y-128138843D01*
X97359747Y-128407020D01*
X97709705Y-128552335D01*
X98088633Y-128552665D01*
X98438843Y-128407961D01*
X98658555Y-128188633D01*
X129047335Y-128188633D01*
X129192039Y-128538843D01*
X129459747Y-128807020D01*
X129809705Y-128952335D01*
X130188633Y-128952665D01*
X130450210Y-128844583D01*
X130709705Y-128952335D01*
X131088633Y-128952665D01*
X131438843Y-128807961D01*
X131707020Y-128540253D01*
X131852335Y-128190295D01*
X131852665Y-127811367D01*
X131707961Y-127461157D01*
X131440253Y-127192980D01*
X131090295Y-127047665D01*
X130711367Y-127047335D01*
X130449790Y-127155417D01*
X130190295Y-127047665D01*
X129811367Y-127047335D01*
X129461157Y-127192039D01*
X129192980Y-127459747D01*
X129047665Y-127809705D01*
X129047335Y-128188633D01*
X98658555Y-128188633D01*
X98707020Y-128140253D01*
X98852335Y-127790295D01*
X98852665Y-127411367D01*
X98707961Y-127061157D01*
X98440253Y-126792980D01*
X98090295Y-126647665D01*
X97711367Y-126647335D01*
X97361157Y-126792039D01*
X97092980Y-127059747D01*
X96947665Y-127409705D01*
X96947335Y-127788633D01*
X96819314Y-127788633D01*
X96807961Y-127761157D01*
X96540253Y-127492980D01*
X96190295Y-127347665D01*
X95811367Y-127347335D01*
X95461157Y-127492039D01*
X95192980Y-127759747D01*
X95047665Y-128109705D01*
X95047335Y-128488633D01*
X93828454Y-128488633D01*
X93952335Y-128190295D01*
X93952665Y-127811367D01*
X93807961Y-127461157D01*
X93540253Y-127192980D01*
X93190295Y-127047665D01*
X92811367Y-127047335D01*
X92461157Y-127192039D01*
X92192980Y-127459747D01*
X92047665Y-127809705D01*
X92047335Y-128188633D01*
X85252597Y-128188633D01*
X85252665Y-128111367D01*
X85107961Y-127761157D01*
X85047039Y-127700129D01*
X85107020Y-127640253D01*
X85252335Y-127290295D01*
X85252665Y-126911367D01*
X85107961Y-126561157D01*
X84840253Y-126292980D01*
X84655088Y-126216093D01*
X84655260Y-126018053D01*
X84510556Y-125667843D01*
X84242848Y-125399666D01*
X83892890Y-125254351D01*
X83513962Y-125254021D01*
X83163752Y-125398725D01*
X82895575Y-125666433D01*
X82750260Y-126016391D01*
X82749930Y-126395319D01*
X79542239Y-126395319D01*
X79340253Y-126192980D01*
X78990295Y-126047665D01*
X78611367Y-126047335D01*
X78261157Y-126192039D01*
X77992980Y-126459747D01*
X77847665Y-126809705D01*
X77847335Y-127188633D01*
X50710000Y-127188633D01*
X50710000Y-125319414D01*
X50774550Y-125438026D01*
X51200239Y-125782059D01*
X51725180Y-125937000D01*
X52063000Y-125937000D01*
X52063000Y-124667000D01*
X52317000Y-124667000D01*
X52317000Y-125937000D01*
X52654820Y-125937000D01*
X53179761Y-125782059D01*
X53605450Y-125438026D01*
X53867080Y-124957277D01*
X53882040Y-124883070D01*
X53759540Y-124667000D01*
X52317000Y-124667000D01*
X52063000Y-124667000D01*
X52043000Y-124667000D01*
X52043000Y-124413000D01*
X52063000Y-124413000D01*
X52063000Y-122127000D01*
X52317000Y-122127000D01*
X52317000Y-124413000D01*
X53759540Y-124413000D01*
X53882040Y-124196930D01*
X53867080Y-124122723D01*
X53605450Y-123641974D01*
X53179761Y-123297941D01*
X53085097Y-123270000D01*
X53179761Y-123242059D01*
X53605450Y-122898026D01*
X53867080Y-122417277D01*
X53882040Y-122343070D01*
X53759540Y-122127000D01*
X52317000Y-122127000D01*
X52063000Y-122127000D01*
X52043000Y-122127000D01*
X52043000Y-122000000D01*
X58041193Y-122000000D01*
X58147533Y-122534609D01*
X58450365Y-122987828D01*
X58872664Y-123270000D01*
X58450365Y-123552172D01*
X58147533Y-124005391D01*
X58041193Y-124540000D01*
X58147533Y-125074609D01*
X58450365Y-125527828D01*
X58903584Y-125830660D01*
X59438193Y-125937000D01*
X60181807Y-125937000D01*
X60716416Y-125830660D01*
X61169635Y-125527828D01*
X61472467Y-125074609D01*
X61578807Y-124540000D01*
X61472467Y-124005391D01*
X61169635Y-123552172D01*
X60747336Y-123270000D01*
X61169635Y-122987828D01*
X61472467Y-122534609D01*
X61561176Y-122088633D01*
X77747335Y-122088633D01*
X77892039Y-122438843D01*
X78159747Y-122707020D01*
X78509705Y-122852335D01*
X78888633Y-122852665D01*
X79112959Y-122759975D01*
X79259747Y-122907020D01*
X79609705Y-123052335D01*
X79613009Y-123052338D01*
X79547665Y-123209705D01*
X79547335Y-123588633D01*
X79600292Y-123716799D01*
X79328958Y-123828912D01*
X79060781Y-124096620D01*
X78915466Y-124446578D01*
X78915136Y-124825506D01*
X79059840Y-125175716D01*
X79327548Y-125443893D01*
X79677506Y-125589208D01*
X80056434Y-125589538D01*
X80242377Y-125512708D01*
X80242368Y-125523303D01*
X80387072Y-125873513D01*
X80654780Y-126141690D01*
X81004738Y-126287005D01*
X81383666Y-126287335D01*
X81733876Y-126142631D01*
X82002053Y-125874923D01*
X82147368Y-125524965D01*
X82147698Y-125146037D01*
X82048209Y-124905256D01*
X82138159Y-124688633D01*
X88547335Y-124688633D01*
X88692039Y-125038843D01*
X88959747Y-125307020D01*
X89309705Y-125452335D01*
X89688633Y-125452665D01*
X90038843Y-125307961D01*
X90070886Y-125275974D01*
X90241235Y-125346709D01*
X90247633Y-125346715D01*
X90247335Y-125688633D01*
X90392039Y-126038843D01*
X90659747Y-126307020D01*
X91009705Y-126452335D01*
X91388633Y-126452665D01*
X91738843Y-126307961D01*
X92007020Y-126040253D01*
X92043514Y-125952364D01*
X92388633Y-125952665D01*
X92738843Y-125807961D01*
X93007020Y-125540253D01*
X93152335Y-125190295D01*
X93152665Y-124811367D01*
X93007961Y-124461157D01*
X92940329Y-124393406D01*
X94648753Y-124393406D01*
X94793457Y-124743616D01*
X95061165Y-125011793D01*
X95411123Y-125157108D01*
X95790051Y-125157438D01*
X96140261Y-125012734D01*
X96408438Y-124745026D01*
X96553753Y-124395068D01*
X96553790Y-124352635D01*
X96588633Y-124352665D01*
X96938843Y-124207961D01*
X97207020Y-123940253D01*
X97351410Y-123592521D01*
X138764570Y-123592521D01*
X138764570Y-126207479D01*
X138888988Y-126832971D01*
X139243301Y-127363238D01*
X139773568Y-127717551D01*
X140399060Y-127841969D01*
X141024552Y-127717551D01*
X141554819Y-127363238D01*
X141909132Y-126832971D01*
X142033550Y-126207479D01*
X142033550Y-125027000D01*
X144766590Y-125027000D01*
X144766590Y-126027760D01*
X144939609Y-126643585D01*
X145335124Y-127146322D01*
X145892921Y-127459433D01*
X146020726Y-127490379D01*
X146274080Y-127371025D01*
X146274080Y-125027000D01*
X146528080Y-125027000D01*
X146528080Y-127371025D01*
X146781434Y-127490379D01*
X146909239Y-127459433D01*
X147467036Y-127146322D01*
X147862551Y-126643585D01*
X148035570Y-126027760D01*
X148035570Y-125027000D01*
X146528080Y-125027000D01*
X146274080Y-125027000D01*
X144766590Y-125027000D01*
X142033550Y-125027000D01*
X142033550Y-123772240D01*
X144766590Y-123772240D01*
X144766590Y-124773000D01*
X146274080Y-124773000D01*
X146274080Y-122428975D01*
X146528080Y-122428975D01*
X146528080Y-124773000D01*
X148035570Y-124773000D01*
X148035570Y-123772240D01*
X147862551Y-123156415D01*
X147467036Y-122653678D01*
X146909239Y-122340567D01*
X146781434Y-122309621D01*
X146528080Y-122428975D01*
X146274080Y-122428975D01*
X146020726Y-122309621D01*
X145892921Y-122340567D01*
X145335124Y-122653678D01*
X144939609Y-123156415D01*
X144766590Y-123772240D01*
X142033550Y-123772240D01*
X142033550Y-123592521D01*
X141909132Y-122967029D01*
X141554819Y-122436762D01*
X141024552Y-122082449D01*
X140399060Y-121958031D01*
X139773568Y-122082449D01*
X139243301Y-122436762D01*
X138888988Y-122967029D01*
X138764570Y-123592521D01*
X97351410Y-123592521D01*
X97352335Y-123590295D01*
X97352665Y-123211367D01*
X97207961Y-122861157D01*
X96940253Y-122592980D01*
X96590295Y-122447665D01*
X96211367Y-122447335D01*
X95861157Y-122592039D01*
X95592980Y-122859747D01*
X95447665Y-123209705D01*
X95447628Y-123252138D01*
X95412785Y-123252108D01*
X95062575Y-123396812D01*
X94794398Y-123664520D01*
X94649083Y-124014478D01*
X94648753Y-124393406D01*
X92940329Y-124393406D01*
X92740253Y-124192980D01*
X92390295Y-124047665D01*
X92283742Y-124047572D01*
X92246161Y-123956619D01*
X91978453Y-123688442D01*
X91628495Y-123543127D01*
X91249567Y-123542797D01*
X91021411Y-123637069D01*
X90971783Y-123587354D01*
X90621825Y-123442039D01*
X90242897Y-123441709D01*
X89892687Y-123586413D01*
X89860644Y-123618400D01*
X89690295Y-123547665D01*
X89311367Y-123547335D01*
X88961157Y-123692039D01*
X88692980Y-123959747D01*
X88547665Y-124309705D01*
X88547335Y-124688633D01*
X82138159Y-124688633D01*
X82138919Y-124686803D01*
X82139249Y-124307875D01*
X81994545Y-123957665D01*
X81825809Y-123788633D01*
X84447335Y-123788633D01*
X84592039Y-124138843D01*
X84859747Y-124407020D01*
X85209705Y-124552335D01*
X85588633Y-124552665D01*
X85938843Y-124407961D01*
X86207020Y-124140253D01*
X86352335Y-123790295D01*
X86352665Y-123411367D01*
X86207961Y-123061157D01*
X85940253Y-122792980D01*
X85590295Y-122647665D01*
X85211367Y-122647335D01*
X84861157Y-122792039D01*
X84592980Y-123059747D01*
X84447665Y-123409705D01*
X84447335Y-123788633D01*
X81825809Y-123788633D01*
X81726837Y-123689488D01*
X81452348Y-123575510D01*
X81452665Y-123211367D01*
X81307961Y-122861157D01*
X81040253Y-122592980D01*
X80690295Y-122447665D01*
X80686991Y-122447662D01*
X80752335Y-122290295D01*
X80752510Y-122088633D01*
X127447335Y-122088633D01*
X127592039Y-122438843D01*
X127859747Y-122707020D01*
X128209705Y-122852335D01*
X128588633Y-122852665D01*
X128938843Y-122707961D01*
X129207020Y-122440253D01*
X129352335Y-122090295D01*
X129352665Y-121711367D01*
X129207961Y-121361157D01*
X128940253Y-121092980D01*
X128590295Y-120947665D01*
X128211367Y-120947335D01*
X127861157Y-121092039D01*
X127592980Y-121359747D01*
X127447665Y-121709705D01*
X127447335Y-122088633D01*
X80752510Y-122088633D01*
X80752665Y-121911367D01*
X80607961Y-121561157D01*
X80340253Y-121292980D01*
X79990295Y-121147665D01*
X79611367Y-121147335D01*
X79387041Y-121240025D01*
X79240253Y-121092980D01*
X78890295Y-120947665D01*
X78511367Y-120947335D01*
X78161157Y-121092039D01*
X77892980Y-121359747D01*
X77747665Y-121709705D01*
X77747335Y-122088633D01*
X61561176Y-122088633D01*
X61578807Y-122000000D01*
X61472467Y-121465391D01*
X61169635Y-121012172D01*
X60945423Y-120862358D01*
X61157585Y-120820157D01*
X61367629Y-120679809D01*
X61507977Y-120469765D01*
X61557260Y-120222000D01*
X61557260Y-118988633D01*
X86547335Y-118988633D01*
X86692039Y-119338843D01*
X86959747Y-119607020D01*
X87309705Y-119752335D01*
X87688633Y-119752665D01*
X88038843Y-119607961D01*
X88047799Y-119599020D01*
X140463002Y-119599020D01*
X140587420Y-120224512D01*
X140941733Y-120754779D01*
X141472000Y-121109092D01*
X142097492Y-121233510D01*
X144202268Y-121233510D01*
X144827760Y-121109092D01*
X145358027Y-120754779D01*
X145712340Y-120224512D01*
X145836758Y-119599020D01*
X145712340Y-118973528D01*
X145358027Y-118443261D01*
X144827760Y-118088948D01*
X144202268Y-117964530D01*
X142097492Y-117964530D01*
X141472000Y-118088948D01*
X140941733Y-118443261D01*
X140587420Y-118973528D01*
X140463002Y-119599020D01*
X88047799Y-119599020D01*
X88307020Y-119340253D01*
X88452335Y-118990295D01*
X88452665Y-118611367D01*
X88307961Y-118261157D01*
X88040253Y-117992980D01*
X87690295Y-117847665D01*
X87311367Y-117847335D01*
X86961157Y-117992039D01*
X86692980Y-118259747D01*
X86547665Y-118609705D01*
X86547335Y-118988633D01*
X61557260Y-118988633D01*
X61557260Y-118698000D01*
X61507977Y-118450235D01*
X61367629Y-118240191D01*
X61157585Y-118099843D01*
X60909820Y-118050560D01*
X58710180Y-118050560D01*
X58462415Y-118099843D01*
X58252371Y-118240191D01*
X58112023Y-118450235D01*
X58062740Y-118698000D01*
X58062740Y-120222000D01*
X58112023Y-120469765D01*
X58252371Y-120679809D01*
X58462415Y-120820157D01*
X58674577Y-120862358D01*
X58450365Y-121012172D01*
X58147533Y-121465391D01*
X58041193Y-122000000D01*
X52043000Y-122000000D01*
X52043000Y-121873000D01*
X52063000Y-121873000D01*
X52063000Y-119587000D01*
X52317000Y-119587000D01*
X52317000Y-121873000D01*
X53759540Y-121873000D01*
X53882040Y-121656930D01*
X53867080Y-121582723D01*
X53605450Y-121101974D01*
X53179761Y-120757941D01*
X53085097Y-120730000D01*
X53179761Y-120702059D01*
X53605450Y-120358026D01*
X53867080Y-119877277D01*
X53882040Y-119803070D01*
X53759540Y-119587000D01*
X52317000Y-119587000D01*
X52063000Y-119587000D01*
X52043000Y-119587000D01*
X52043000Y-119333000D01*
X52063000Y-119333000D01*
X52063000Y-118063000D01*
X52317000Y-118063000D01*
X52317000Y-119333000D01*
X53759540Y-119333000D01*
X53882040Y-119116930D01*
X53867080Y-119042723D01*
X53605450Y-118561974D01*
X53179761Y-118217941D01*
X52654820Y-118063000D01*
X52317000Y-118063000D01*
X52063000Y-118063000D01*
X51725180Y-118063000D01*
X51200239Y-118217941D01*
X50774550Y-118561974D01*
X50710000Y-118680586D01*
X50710000Y-115988633D01*
X111447345Y-115988633D01*
X111592049Y-116338843D01*
X111859757Y-116607020D01*
X112209715Y-116752335D01*
X112490190Y-116752579D01*
X112464200Y-116763318D01*
X112196023Y-117031026D01*
X112050708Y-117380984D01*
X112050378Y-117759912D01*
X112195082Y-118110122D01*
X112462790Y-118378299D01*
X112812748Y-118523614D01*
X113191676Y-118523944D01*
X113541886Y-118379240D01*
X113810063Y-118111532D01*
X113955378Y-117761574D01*
X113955708Y-117382646D01*
X113811004Y-117032436D01*
X113543296Y-116764259D01*
X113193338Y-116618944D01*
X112912863Y-116618700D01*
X112938853Y-116607961D01*
X113207030Y-116340253D01*
X113269988Y-116188633D01*
X119147335Y-116188633D01*
X119292039Y-116538843D01*
X119559747Y-116807020D01*
X119909705Y-116952335D01*
X120288633Y-116952665D01*
X120638843Y-116807961D01*
X120907020Y-116540253D01*
X121052335Y-116190295D01*
X121052665Y-115811367D01*
X120907961Y-115461157D01*
X120640253Y-115192980D01*
X120290295Y-115047665D01*
X119911367Y-115047335D01*
X119561157Y-115192039D01*
X119292980Y-115459747D01*
X119147665Y-115809705D01*
X119147335Y-116188633D01*
X113269988Y-116188633D01*
X113352345Y-115990295D01*
X113352675Y-115611367D01*
X113207971Y-115261157D01*
X112940263Y-114992980D01*
X112590305Y-114847665D01*
X112211377Y-114847335D01*
X111861167Y-114992039D01*
X111592990Y-115259747D01*
X111447675Y-115609705D01*
X111447345Y-115988633D01*
X50710000Y-115988633D01*
X50710000Y-115054489D01*
X50920853Y-115370054D01*
X51402622Y-115691961D01*
X51970907Y-115805000D01*
X52029093Y-115805000D01*
X52597378Y-115691961D01*
X53079147Y-115370054D01*
X53401054Y-114888285D01*
X53514093Y-114320000D01*
X53412199Y-113807743D01*
X86447335Y-113807743D01*
X86592039Y-114157953D01*
X86859747Y-114426130D01*
X87209705Y-114571445D01*
X87588633Y-114571775D01*
X87938843Y-114427071D01*
X88207020Y-114159363D01*
X88352335Y-113809405D01*
X88352665Y-113430477D01*
X88211418Y-113088633D01*
X89547335Y-113088633D01*
X89692039Y-113438843D01*
X89959747Y-113707020D01*
X90309705Y-113852335D01*
X90688633Y-113852665D01*
X91038843Y-113707961D01*
X91049871Y-113696952D01*
X91159747Y-113807020D01*
X91509705Y-113952335D01*
X91888633Y-113952665D01*
X92238843Y-113807961D01*
X92507020Y-113540253D01*
X92528454Y-113488633D01*
X111447343Y-113488633D01*
X111592047Y-113838843D01*
X111859755Y-114107020D01*
X112209713Y-114252335D01*
X112588641Y-114252665D01*
X112938851Y-114107961D01*
X113207028Y-113840253D01*
X113219862Y-113809345D01*
X116125025Y-113809345D01*
X116269729Y-114159555D01*
X116537437Y-114427732D01*
X116887395Y-114573047D01*
X117266323Y-114573377D01*
X117616533Y-114428673D01*
X117884710Y-114160965D01*
X118030025Y-113811007D01*
X118030355Y-113432079D01*
X117885651Y-113081869D01*
X117617943Y-112813692D01*
X117316767Y-112688633D01*
X125447335Y-112688633D01*
X125592039Y-113038843D01*
X125859747Y-113307020D01*
X126209705Y-113452335D01*
X126588633Y-113452665D01*
X126938843Y-113307961D01*
X127207020Y-113040253D01*
X127352335Y-112690295D01*
X127352665Y-112311367D01*
X127207961Y-111961157D01*
X126940253Y-111692980D01*
X126590295Y-111547665D01*
X126211367Y-111547335D01*
X125861157Y-111692039D01*
X125592980Y-111959747D01*
X125447665Y-112309705D01*
X125447335Y-112688633D01*
X117316767Y-112688633D01*
X117267985Y-112668377D01*
X116889057Y-112668047D01*
X116538847Y-112812751D01*
X116270670Y-113080459D01*
X116125355Y-113430417D01*
X116125025Y-113809345D01*
X113219862Y-113809345D01*
X113352343Y-113490295D01*
X113352486Y-113326282D01*
X113638843Y-113207961D01*
X113907020Y-112940253D01*
X114052335Y-112590295D01*
X114052665Y-112211367D01*
X113907961Y-111861157D01*
X113640253Y-111592980D01*
X113290295Y-111447665D01*
X112911367Y-111447335D01*
X112561157Y-111592039D01*
X112292980Y-111859747D01*
X112147665Y-112209705D01*
X112147522Y-112373718D01*
X111861165Y-112492039D01*
X111592988Y-112759747D01*
X111447673Y-113109705D01*
X111447343Y-113488633D01*
X92528454Y-113488633D01*
X92652335Y-113190295D01*
X92652665Y-112811367D01*
X92507961Y-112461157D01*
X92240253Y-112192980D01*
X91890295Y-112047665D01*
X91511367Y-112047335D01*
X91161157Y-112192039D01*
X91150129Y-112203048D01*
X91040253Y-112092980D01*
X90788958Y-111988633D01*
X110247335Y-111988633D01*
X110392039Y-112338843D01*
X110659747Y-112607020D01*
X111009705Y-112752335D01*
X111388633Y-112752665D01*
X111738843Y-112607961D01*
X112007020Y-112340253D01*
X112152335Y-111990295D01*
X112152665Y-111611367D01*
X112007961Y-111261157D01*
X111740253Y-110992980D01*
X111390295Y-110847665D01*
X111011367Y-110847335D01*
X110661157Y-110992039D01*
X110392980Y-111259747D01*
X110247665Y-111609705D01*
X110247335Y-111988633D01*
X90788958Y-111988633D01*
X90690295Y-111947665D01*
X90311367Y-111947335D01*
X89961157Y-112092039D01*
X89692980Y-112359747D01*
X89547665Y-112709705D01*
X89547335Y-113088633D01*
X88211418Y-113088633D01*
X88207961Y-113080267D01*
X87940253Y-112812090D01*
X87590295Y-112666775D01*
X87211367Y-112666445D01*
X86861157Y-112811149D01*
X86592980Y-113078857D01*
X86447665Y-113428815D01*
X86447335Y-113807743D01*
X53412199Y-113807743D01*
X53401054Y-113751715D01*
X53079147Y-113269946D01*
X52738447Y-113042298D01*
X52881358Y-112975183D01*
X53271645Y-112546924D01*
X53441476Y-112136890D01*
X53320155Y-111907000D01*
X52127000Y-111907000D01*
X52127000Y-111927000D01*
X51873000Y-111927000D01*
X51873000Y-111907000D01*
X51853000Y-111907000D01*
X51853000Y-111653000D01*
X51873000Y-111653000D01*
X51873000Y-111633000D01*
X52127000Y-111633000D01*
X52127000Y-111653000D01*
X53320155Y-111653000D01*
X53441476Y-111423110D01*
X53271645Y-111013076D01*
X53064476Y-110785750D01*
X64515000Y-110785750D01*
X64515000Y-111476309D01*
X64611673Y-111709698D01*
X64790301Y-111888327D01*
X65023690Y-111985000D01*
X65714250Y-111985000D01*
X65873000Y-111826250D01*
X65873000Y-110627000D01*
X64673750Y-110627000D01*
X64515000Y-110785750D01*
X53064476Y-110785750D01*
X52881358Y-110584817D01*
X52738447Y-110517702D01*
X53079147Y-110290054D01*
X53401054Y-109808285D01*
X53514093Y-109240000D01*
X53401054Y-108671715D01*
X53079147Y-108189946D01*
X52749974Y-107970000D01*
X52808480Y-107930907D01*
X64515000Y-107930907D01*
X64515000Y-107989093D01*
X64628039Y-108557378D01*
X64949946Y-109039147D01*
X64955858Y-109043097D01*
X64790301Y-109111673D01*
X64611673Y-109290302D01*
X64515000Y-109523691D01*
X64515000Y-110214250D01*
X64673750Y-110373000D01*
X65873000Y-110373000D01*
X65873000Y-110353000D01*
X66127000Y-110353000D01*
X66127000Y-110373000D01*
X66147000Y-110373000D01*
X66147000Y-110627000D01*
X66127000Y-110627000D01*
X66127000Y-111826250D01*
X66285750Y-111985000D01*
X66976310Y-111985000D01*
X67209699Y-111888327D01*
X67388327Y-111709698D01*
X67460597Y-111535223D01*
X67489946Y-111579147D01*
X67971715Y-111901054D01*
X68540000Y-112014093D01*
X69108285Y-111901054D01*
X69590054Y-111579147D01*
X69810000Y-111249974D01*
X70029946Y-111579147D01*
X70511715Y-111901054D01*
X71080000Y-112014093D01*
X71648285Y-111901054D01*
X72130054Y-111579147D01*
X72350000Y-111249974D01*
X72569946Y-111579147D01*
X73051715Y-111901054D01*
X73620000Y-112014093D01*
X74188285Y-111901054D01*
X74670054Y-111579147D01*
X74991961Y-111097378D01*
X75105000Y-110529093D01*
X75105000Y-110470907D01*
X74991961Y-109902622D01*
X74848979Y-109688633D01*
X107847335Y-109688633D01*
X107992039Y-110038843D01*
X108259747Y-110307020D01*
X108609705Y-110452335D01*
X108856383Y-110452550D01*
X108892039Y-110538843D01*
X109159747Y-110807020D01*
X109509705Y-110952335D01*
X109888633Y-110952665D01*
X110238843Y-110807961D01*
X110507020Y-110540253D01*
X110652335Y-110190295D01*
X110652665Y-109811367D01*
X110507961Y-109461157D01*
X110240253Y-109192980D01*
X109890295Y-109047665D01*
X109643617Y-109047450D01*
X109607961Y-108961157D01*
X109340253Y-108692980D01*
X108990295Y-108547665D01*
X108611367Y-108547335D01*
X108261157Y-108692039D01*
X107992980Y-108959747D01*
X107847665Y-109309705D01*
X107847335Y-109688633D01*
X74848979Y-109688633D01*
X74670054Y-109420853D01*
X74384422Y-109230000D01*
X74670054Y-109039147D01*
X74991961Y-108557378D01*
X75105000Y-107989093D01*
X75105000Y-107930907D01*
X75076700Y-107788633D01*
X109447335Y-107788633D01*
X109592039Y-108138843D01*
X109859747Y-108407020D01*
X110147650Y-108526568D01*
X110147335Y-108888633D01*
X110292039Y-109238843D01*
X110559747Y-109507020D01*
X110909705Y-109652335D01*
X111288633Y-109652665D01*
X111638843Y-109507961D01*
X111907020Y-109240253D01*
X112052335Y-108890295D01*
X112052665Y-108511367D01*
X111907961Y-108161157D01*
X111902338Y-108155524D01*
X113200363Y-108155524D01*
X113345067Y-108505734D01*
X113612775Y-108773911D01*
X113962733Y-108919226D01*
X114341661Y-108919556D01*
X114691871Y-108774852D01*
X114960048Y-108507144D01*
X115105363Y-108157186D01*
X115105619Y-107863008D01*
X115238843Y-107807961D01*
X115458555Y-107588633D01*
X118447335Y-107588633D01*
X118555417Y-107850210D01*
X118447665Y-108109705D01*
X118447335Y-108488633D01*
X118555417Y-108750210D01*
X118447665Y-109009705D01*
X118447335Y-109388633D01*
X118592039Y-109738843D01*
X118859747Y-110007020D01*
X119209705Y-110152335D01*
X119588633Y-110152665D01*
X119938843Y-110007961D01*
X120207020Y-109740253D01*
X120352335Y-109390295D01*
X120352665Y-109011367D01*
X120244583Y-108749790D01*
X120352335Y-108490295D01*
X120352665Y-108111367D01*
X120244583Y-107849790D01*
X120352335Y-107590295D01*
X120352665Y-107211367D01*
X120207961Y-106861157D01*
X119940253Y-106592980D01*
X119590295Y-106447665D01*
X119211367Y-106447335D01*
X118861157Y-106592039D01*
X118592980Y-106859747D01*
X118447665Y-107209705D01*
X118447335Y-107588633D01*
X115458555Y-107588633D01*
X115507020Y-107540253D01*
X115652335Y-107190295D01*
X115652665Y-106811367D01*
X115507961Y-106461157D01*
X115240253Y-106192980D01*
X114890295Y-106047665D01*
X114511367Y-106047335D01*
X114161157Y-106192039D01*
X113892980Y-106459747D01*
X113747665Y-106809705D01*
X113747409Y-107103883D01*
X113614185Y-107158930D01*
X113346008Y-107426638D01*
X113200693Y-107776596D01*
X113200363Y-108155524D01*
X111902338Y-108155524D01*
X111640253Y-107892980D01*
X111352350Y-107773432D01*
X111352665Y-107411367D01*
X111207961Y-107061157D01*
X110940253Y-106792980D01*
X110590295Y-106647665D01*
X110211367Y-106647335D01*
X109861157Y-106792039D01*
X109592980Y-107059747D01*
X109447665Y-107409705D01*
X109447335Y-107788633D01*
X75076700Y-107788633D01*
X74991961Y-107362622D01*
X74670054Y-106880853D01*
X74188285Y-106558946D01*
X73620000Y-106445907D01*
X73051715Y-106558946D01*
X72569946Y-106880853D01*
X72350000Y-107210026D01*
X72130054Y-106880853D01*
X71648285Y-106558946D01*
X71080000Y-106445907D01*
X70511715Y-106558946D01*
X70029946Y-106880853D01*
X69810000Y-107210026D01*
X69590054Y-106880853D01*
X69108285Y-106558946D01*
X68540000Y-106445907D01*
X67971715Y-106558946D01*
X67489946Y-106880853D01*
X67270000Y-107210026D01*
X67050054Y-106880853D01*
X66568285Y-106558946D01*
X66000000Y-106445907D01*
X65431715Y-106558946D01*
X64949946Y-106880853D01*
X64628039Y-107362622D01*
X64515000Y-107930907D01*
X52808480Y-107930907D01*
X53079147Y-107750054D01*
X53401054Y-107268285D01*
X53514093Y-106700000D01*
X53401054Y-106131715D01*
X53079147Y-105649946D01*
X52749974Y-105430000D01*
X53079147Y-105210054D01*
X53401054Y-104728285D01*
X53408941Y-104688633D01*
X67847335Y-104688633D01*
X67992039Y-105038843D01*
X68259747Y-105307020D01*
X68609705Y-105452335D01*
X68988633Y-105452665D01*
X69338843Y-105307961D01*
X69607020Y-105040253D01*
X69752335Y-104690295D01*
X69752665Y-104311367D01*
X69607961Y-103961157D01*
X69340253Y-103692980D01*
X68990295Y-103547665D01*
X68611367Y-103547335D01*
X68261157Y-103692039D01*
X67992980Y-103959747D01*
X67847665Y-104309705D01*
X67847335Y-104688633D01*
X53408941Y-104688633D01*
X53514093Y-104160000D01*
X53401054Y-103591715D01*
X53079147Y-103109946D01*
X52749974Y-102890000D01*
X53079147Y-102670054D01*
X53401054Y-102188285D01*
X53514093Y-101620000D01*
X53401054Y-101051715D01*
X53079147Y-100569946D01*
X52749974Y-100350000D01*
X53079147Y-100130054D01*
X53401054Y-99648285D01*
X53514093Y-99080000D01*
X53401054Y-98511715D01*
X53079147Y-98029946D01*
X52749974Y-97810000D01*
X53079147Y-97590054D01*
X53401054Y-97108285D01*
X53514093Y-96540000D01*
X53401054Y-95971715D01*
X53079147Y-95489946D01*
X53035223Y-95460597D01*
X53097765Y-95448157D01*
X53307809Y-95307809D01*
X53448157Y-95097765D01*
X53497440Y-94850000D01*
X53497440Y-93150000D01*
X53448157Y-92902235D01*
X53307809Y-92692191D01*
X53097765Y-92551843D01*
X52850000Y-92502560D01*
X51150000Y-92502560D01*
X50902235Y-92551843D01*
X50710000Y-92680291D01*
X50710000Y-90088633D01*
X128047335Y-90088633D01*
X128192039Y-90438843D01*
X128459747Y-90707020D01*
X128809705Y-90852335D01*
X129188633Y-90852665D01*
X129538843Y-90707961D01*
X129807020Y-90440253D01*
X129952335Y-90090295D01*
X129952665Y-89711367D01*
X129807961Y-89361157D01*
X129540253Y-89092980D01*
X129190295Y-88947665D01*
X128811367Y-88947335D01*
X128461157Y-89092039D01*
X128192980Y-89359747D01*
X128047665Y-89709705D01*
X128047335Y-90088633D01*
X50710000Y-90088633D01*
X50710000Y-87551540D01*
X52214518Y-87551540D01*
X52637616Y-88575515D01*
X53420365Y-89359631D01*
X54443599Y-89784515D01*
X55551540Y-89785482D01*
X56575515Y-89362384D01*
X57359631Y-88579635D01*
X57784515Y-87556401D01*
X57785482Y-86448460D01*
X57362384Y-85424485D01*
X56579635Y-84640369D01*
X55556401Y-84215485D01*
X54448460Y-84214518D01*
X53424485Y-84637616D01*
X52640369Y-85420365D01*
X52215485Y-86443599D01*
X52214518Y-87551540D01*
X50710000Y-87551540D01*
X50710000Y-84069931D01*
X50821046Y-83511662D01*
X51097669Y-83097667D01*
X51511660Y-82821047D01*
X52069931Y-82710000D01*
X116645511Y-82710000D01*
X116329946Y-82920853D01*
X116329946Y-82920853D01*
G37*
X116329946Y-82920853D02*
X116008039Y-83402622D01*
X115895000Y-83970907D01*
X115895000Y-84029093D01*
X116008039Y-84597378D01*
X116329946Y-85079147D01*
X116369849Y-85105809D01*
X116161157Y-85192039D01*
X116142357Y-85210806D01*
X115990295Y-85147665D01*
X115611367Y-85147335D01*
X115457962Y-85210721D01*
X115440253Y-85192980D01*
X115090295Y-85047665D01*
X114711367Y-85047335D01*
X114361157Y-85192039D01*
X114092980Y-85459747D01*
X113947665Y-85809705D01*
X113947539Y-85954482D01*
X113690295Y-85847665D01*
X113311367Y-85847335D01*
X112961157Y-85992039D01*
X112692980Y-86259747D01*
X112547665Y-86609705D01*
X112547335Y-86988633D01*
X112692039Y-87338843D01*
X112959747Y-87607020D01*
X113309705Y-87752335D01*
X113688633Y-87752665D01*
X113983633Y-87630773D01*
X114059747Y-87707020D01*
X114409705Y-87852335D01*
X114788633Y-87852665D01*
X115138843Y-87707961D01*
X115407020Y-87440253D01*
X115428457Y-87388625D01*
X118447335Y-87388625D01*
X118555418Y-87650206D01*
X118447665Y-87909705D01*
X118447335Y-88288633D01*
X118555417Y-88550210D01*
X118447665Y-88809705D01*
X118447335Y-89188633D01*
X118592039Y-89538843D01*
X118859747Y-89807020D01*
X119209705Y-89952335D01*
X119588633Y-89952665D01*
X119938843Y-89807961D01*
X119999866Y-89747044D01*
X120059747Y-89807030D01*
X120409705Y-89952345D01*
X120788633Y-89952675D01*
X121138843Y-89807971D01*
X121407020Y-89540263D01*
X121552335Y-89190305D01*
X121552665Y-88811377D01*
X121444584Y-88549801D01*
X121552335Y-88290307D01*
X121552665Y-87911379D01*
X121444581Y-87649796D01*
X121485380Y-87551540D01*
X142214518Y-87551540D01*
X142637616Y-88575515D01*
X143420365Y-89359631D01*
X144443599Y-89784515D01*
X145551540Y-89785482D01*
X146575515Y-89362384D01*
X147359631Y-88579635D01*
X147784515Y-87556401D01*
X147785482Y-86448460D01*
X147362384Y-85424485D01*
X146579635Y-84640369D01*
X145556401Y-84215485D01*
X144448460Y-84214518D01*
X143424485Y-84637616D01*
X142640369Y-85420365D01*
X142215485Y-86443599D01*
X142214518Y-87551540D01*
X121485380Y-87551540D01*
X121552335Y-87390295D01*
X121552665Y-87011367D01*
X121407961Y-86661157D01*
X121140253Y-86392980D01*
X120790295Y-86247665D01*
X120411367Y-86247335D01*
X120061157Y-86392039D01*
X120000133Y-86452957D01*
X119940253Y-86392972D01*
X119590295Y-86247657D01*
X119211367Y-86247327D01*
X118861157Y-86392031D01*
X118592980Y-86659739D01*
X118447665Y-87009697D01*
X118447335Y-87388625D01*
X115428457Y-87388625D01*
X115552335Y-87090295D01*
X115552389Y-87028535D01*
X115609705Y-87052335D01*
X115988633Y-87052665D01*
X116338843Y-86907961D01*
X116357643Y-86889194D01*
X116509705Y-86952335D01*
X116888633Y-86952665D01*
X117238843Y-86807961D01*
X117507020Y-86540253D01*
X117652335Y-86190295D01*
X117652665Y-85811367D01*
X117518454Y-85486553D01*
X117948285Y-85401054D01*
X118430054Y-85079147D01*
X118650000Y-84749974D01*
X118869946Y-85079147D01*
X119351715Y-85401054D01*
X119920000Y-85514093D01*
X120488285Y-85401054D01*
X120970054Y-85079147D01*
X121190000Y-84749974D01*
X121409946Y-85079147D01*
X121891715Y-85401054D01*
X122222241Y-85466800D01*
X122161157Y-85492039D01*
X121892980Y-85759747D01*
X121747665Y-86109705D01*
X121747335Y-86488633D01*
X121892039Y-86838843D01*
X122159747Y-87107020D01*
X122509705Y-87252335D01*
X122888633Y-87252665D01*
X123238843Y-87107961D01*
X123507020Y-86840253D01*
X123652335Y-86490295D01*
X123652665Y-86111367D01*
X123507961Y-85761157D01*
X123240253Y-85492980D01*
X123021920Y-85402320D01*
X123028285Y-85401054D01*
X123510054Y-85079147D01*
X123539403Y-85035223D01*
X123551843Y-85097765D01*
X123692191Y-85307809D01*
X123902235Y-85448157D01*
X124150000Y-85497440D01*
X125850000Y-85497440D01*
X126097765Y-85448157D01*
X126307809Y-85307809D01*
X126448157Y-85097765D01*
X126497440Y-84850000D01*
X126497440Y-83150000D01*
X126448157Y-82902235D01*
X126319709Y-82710000D01*
X147930069Y-82710000D01*
X148488338Y-82821046D01*
X148902333Y-83097669D01*
X149178953Y-83511660D01*
X149290000Y-84069931D01*
X149290000Y-147930069D01*
X149178953Y-148488340D01*
X148902333Y-148902331D01*
X148488338Y-149178954D01*
X147930069Y-149290000D01*
X131664266Y-149290000D01*
X132231509Y-148722757D01*
X132534609Y-148662467D01*
X132987828Y-148359635D01*
X133290660Y-147906416D01*
X133397000Y-147371807D01*
X133397000Y-146628193D01*
X134603000Y-146628193D01*
X134603000Y-147371807D01*
X134709340Y-147906416D01*
X135012172Y-148359635D01*
X135465391Y-148662467D01*
X136000000Y-148768807D01*
X136534609Y-148662467D01*
X136987828Y-148359635D01*
X137290660Y-147906416D01*
X137397000Y-147371807D01*
X137397000Y-146628193D01*
X137290660Y-146093584D01*
X137161432Y-145900180D01*
X138590560Y-145900180D01*
X138590560Y-148099820D01*
X138639843Y-148347585D01*
X138780191Y-148557629D01*
X138990235Y-148697977D01*
X139238000Y-148747260D01*
X140762000Y-148747260D01*
X141009765Y-148697977D01*
X141219809Y-148557629D01*
X141360157Y-148347585D01*
X141409440Y-148099820D01*
X141409440Y-145900180D01*
X141360157Y-145652415D01*
X141219809Y-145442371D01*
X141009765Y-145302023D01*
X140762000Y-145252740D01*
X139238000Y-145252740D01*
X138990235Y-145302023D01*
X138780191Y-145442371D01*
X138639843Y-145652415D01*
X138590560Y-145900180D01*
X137161432Y-145900180D01*
X136987828Y-145640365D01*
X136534609Y-145337533D01*
X136000000Y-145231193D01*
X135465391Y-145337533D01*
X135012172Y-145640365D01*
X134709340Y-146093584D01*
X134603000Y-146628193D01*
X133397000Y-146628193D01*
X133290660Y-146093584D01*
X132987828Y-145640365D01*
X132534609Y-145337533D01*
X132000000Y-145231193D01*
X131465391Y-145337533D01*
X131012172Y-145640365D01*
X130709340Y-146093584D01*
X130603000Y-146628193D01*
X130603000Y-147118374D01*
X129964374Y-147757000D01*
X129310760Y-147757000D01*
X129397000Y-147464820D01*
X129397000Y-147127000D01*
X128127000Y-147127000D01*
X128127000Y-147147000D01*
X127873000Y-147147000D01*
X127873000Y-147127000D01*
X126603000Y-147127000D01*
X126603000Y-147464820D01*
X126689240Y-147757000D01*
X125320381Y-147757000D01*
X125397000Y-147371807D01*
X125397000Y-146628193D01*
X125378499Y-146535180D01*
X126603000Y-146535180D01*
X126603000Y-146873000D01*
X127873000Y-146873000D01*
X127873000Y-145430460D01*
X128127000Y-145430460D01*
X128127000Y-146873000D01*
X129397000Y-146873000D01*
X129397000Y-146535180D01*
X129242059Y-146010239D01*
X128898026Y-145584550D01*
X128417277Y-145322920D01*
X128343070Y-145307960D01*
X128127000Y-145430460D01*
X127873000Y-145430460D01*
X127656930Y-145307960D01*
X127582723Y-145322920D01*
X127101974Y-145584550D01*
X126757941Y-146010239D01*
X126603000Y-146535180D01*
X125378499Y-146535180D01*
X125290660Y-146093584D01*
X124987828Y-145640365D01*
X124534609Y-145337533D01*
X124000000Y-145231193D01*
X123465391Y-145337533D01*
X123012172Y-145640365D01*
X122709340Y-146093584D01*
X122603000Y-146628193D01*
X122603000Y-147371807D01*
X122679619Y-147757000D01*
X121320381Y-147757000D01*
X121397000Y-147371807D01*
X121397000Y-146628193D01*
X121290660Y-146093584D01*
X120987828Y-145640365D01*
X120534609Y-145337533D01*
X120000000Y-145231193D01*
X119465391Y-145337533D01*
X119012172Y-145640365D01*
X118709340Y-146093584D01*
X118603000Y-146628193D01*
X118603000Y-147371807D01*
X118679619Y-147757000D01*
X117320381Y-147757000D01*
X117397000Y-147371807D01*
X117397000Y-146628193D01*
X117290660Y-146093584D01*
X116987828Y-145640365D01*
X116534609Y-145337533D01*
X116000000Y-145231193D01*
X115465391Y-145337533D01*
X115012172Y-145640365D01*
X114709340Y-146093584D01*
X114603000Y-146628193D01*
X114603000Y-147371807D01*
X114679619Y-147757000D01*
X113320381Y-147757000D01*
X113397000Y-147371807D01*
X113397000Y-146628193D01*
X113290660Y-146093584D01*
X112987828Y-145640365D01*
X112534609Y-145337533D01*
X112000000Y-145231193D01*
X111465391Y-145337533D01*
X111012172Y-145640365D01*
X110709340Y-146093584D01*
X110603000Y-146628193D01*
X110603000Y-147371807D01*
X110679619Y-147757000D01*
X109320381Y-147757000D01*
X109397000Y-147371807D01*
X109397000Y-146628193D01*
X109290660Y-146093584D01*
X108987828Y-145640365D01*
X108534609Y-145337533D01*
X108000000Y-145231193D01*
X107465391Y-145337533D01*
X107012172Y-145640365D01*
X106709340Y-146093584D01*
X106603000Y-146628193D01*
X106603000Y-147371807D01*
X106679619Y-147757000D01*
X93409440Y-147757000D01*
X93409440Y-145900180D01*
X93387253Y-145788633D01*
X96247335Y-145788633D01*
X96392039Y-146138843D01*
X96659747Y-146407020D01*
X97009705Y-146552335D01*
X97388633Y-146552665D01*
X97738843Y-146407961D01*
X98000046Y-146147215D01*
X98059747Y-146207020D01*
X98409705Y-146352335D01*
X98788633Y-146352665D01*
X99138843Y-146207961D01*
X99407020Y-145940253D01*
X99552335Y-145590295D01*
X99552665Y-145211367D01*
X99407961Y-144861157D01*
X99140253Y-144592980D01*
X98790295Y-144447665D01*
X98411367Y-144447335D01*
X98061157Y-144592039D01*
X97799954Y-144852785D01*
X97740253Y-144792980D01*
X97390295Y-144647665D01*
X97011367Y-144647335D01*
X96661157Y-144792039D01*
X96392980Y-145059747D01*
X96247665Y-145409705D01*
X96247335Y-145788633D01*
X93387253Y-145788633D01*
X93360157Y-145652415D01*
X93219809Y-145442371D01*
X93009765Y-145302023D01*
X92762000Y-145252740D01*
X91238000Y-145252740D01*
X90990235Y-145302023D01*
X90780191Y-145442371D01*
X90639843Y-145652415D01*
X90590560Y-145900180D01*
X90590560Y-147757000D01*
X89320381Y-147757000D01*
X89397000Y-147371807D01*
X89397000Y-146628193D01*
X89290660Y-146093584D01*
X88987828Y-145640365D01*
X88534609Y-145337533D01*
X88000000Y-145231193D01*
X87465391Y-145337533D01*
X87012172Y-145640365D01*
X86709340Y-146093584D01*
X86603000Y-146628193D01*
X86603000Y-147371807D01*
X86679619Y-147757000D01*
X86035626Y-147757000D01*
X85397000Y-147118374D01*
X85397000Y-146628193D01*
X85290660Y-146093584D01*
X84987828Y-145640365D01*
X84534609Y-145337533D01*
X84000000Y-145231193D01*
X83465391Y-145337533D01*
X83012172Y-145640365D01*
X82709340Y-146093584D01*
X82603000Y-146628193D01*
X82603000Y-147371807D01*
X82709340Y-147906416D01*
X83012172Y-148359635D01*
X83465391Y-148662467D01*
X83768491Y-148722757D01*
X84335734Y-149290000D01*
X52069931Y-149290000D01*
X51511660Y-149178953D01*
X51097669Y-148902333D01*
X50821046Y-148488338D01*
X50710000Y-147930069D01*
X50710000Y-146628193D01*
X58603000Y-146628193D01*
X58603000Y-147371807D01*
X58709340Y-147906416D01*
X59012172Y-148359635D01*
X59465391Y-148662467D01*
X60000000Y-148768807D01*
X60534609Y-148662467D01*
X60987828Y-148359635D01*
X61290660Y-147906416D01*
X61397000Y-147371807D01*
X61397000Y-146628193D01*
X62603000Y-146628193D01*
X62603000Y-147371807D01*
X62709340Y-147906416D01*
X63012172Y-148359635D01*
X63465391Y-148662467D01*
X64000000Y-148768807D01*
X64534609Y-148662467D01*
X64987828Y-148359635D01*
X65290660Y-147906416D01*
X65397000Y-147371807D01*
X65397000Y-146628193D01*
X66603000Y-146628193D01*
X66603000Y-147371807D01*
X66709340Y-147906416D01*
X67012172Y-148359635D01*
X67465391Y-148662467D01*
X68000000Y-148768807D01*
X68534609Y-148662467D01*
X68987828Y-148359635D01*
X69290660Y-147906416D01*
X69397000Y-147371807D01*
X69397000Y-146628193D01*
X70603000Y-146628193D01*
X70603000Y-147371807D01*
X70709340Y-147906416D01*
X71012172Y-148359635D01*
X71465391Y-148662467D01*
X72000000Y-148768807D01*
X72534609Y-148662467D01*
X72987828Y-148359635D01*
X73290660Y-147906416D01*
X73397000Y-147371807D01*
X73397000Y-146628193D01*
X74603000Y-146628193D01*
X74603000Y-147371807D01*
X74709340Y-147906416D01*
X75012172Y-148359635D01*
X75465391Y-148662467D01*
X76000000Y-148768807D01*
X76534609Y-148662467D01*
X76987828Y-148359635D01*
X77290660Y-147906416D01*
X77397000Y-147371807D01*
X77397000Y-147127000D01*
X78603000Y-147127000D01*
X78603000Y-147464820D01*
X78757941Y-147989761D01*
X79101974Y-148415450D01*
X79582723Y-148677080D01*
X79656930Y-148692040D01*
X79873000Y-148569540D01*
X79873000Y-147127000D01*
X80127000Y-147127000D01*
X80127000Y-148569540D01*
X80343070Y-148692040D01*
X80417277Y-148677080D01*
X80898026Y-148415450D01*
X81242059Y-147989761D01*
X81397000Y-147464820D01*
X81397000Y-147127000D01*
X80127000Y-147127000D01*
X79873000Y-147127000D01*
X78603000Y-147127000D01*
X77397000Y-147127000D01*
X77397000Y-146628193D01*
X77378499Y-146535180D01*
X78603000Y-146535180D01*
X78603000Y-146873000D01*
X79873000Y-146873000D01*
X79873000Y-145430460D01*
X80127000Y-145430460D01*
X80127000Y-146873000D01*
X81397000Y-146873000D01*
X81397000Y-146535180D01*
X81242059Y-146010239D01*
X80898026Y-145584550D01*
X80417277Y-145322920D01*
X80343070Y-145307960D01*
X80127000Y-145430460D01*
X79873000Y-145430460D01*
X79656930Y-145307960D01*
X79582723Y-145322920D01*
X79101974Y-145584550D01*
X78757941Y-146010239D01*
X78603000Y-146535180D01*
X77378499Y-146535180D01*
X77290660Y-146093584D01*
X76987828Y-145640365D01*
X76534609Y-145337533D01*
X76000000Y-145231193D01*
X75465391Y-145337533D01*
X75012172Y-145640365D01*
X74709340Y-146093584D01*
X74603000Y-146628193D01*
X73397000Y-146628193D01*
X73290660Y-146093584D01*
X72987828Y-145640365D01*
X72534609Y-145337533D01*
X72000000Y-145231193D01*
X71465391Y-145337533D01*
X71012172Y-145640365D01*
X70709340Y-146093584D01*
X70603000Y-146628193D01*
X69397000Y-146628193D01*
X69290660Y-146093584D01*
X68987828Y-145640365D01*
X68534609Y-145337533D01*
X68000000Y-145231193D01*
X67465391Y-145337533D01*
X67012172Y-145640365D01*
X66709340Y-146093584D01*
X66603000Y-146628193D01*
X65397000Y-146628193D01*
X65290660Y-146093584D01*
X64987828Y-145640365D01*
X64534609Y-145337533D01*
X64000000Y-145231193D01*
X63465391Y-145337533D01*
X63012172Y-145640365D01*
X62709340Y-146093584D01*
X62603000Y-146628193D01*
X61397000Y-146628193D01*
X61290660Y-146093584D01*
X60987828Y-145640365D01*
X60534609Y-145337533D01*
X60000000Y-145231193D01*
X59465391Y-145337533D01*
X59012172Y-145640365D01*
X58709340Y-146093584D01*
X58603000Y-146628193D01*
X50710000Y-146628193D01*
X50710000Y-142551540D01*
X52214518Y-142551540D01*
X52637616Y-143575515D01*
X53420365Y-144359631D01*
X54443599Y-144784515D01*
X55551540Y-144785482D01*
X56575515Y-144362384D01*
X57359631Y-143579635D01*
X57784515Y-142556401D01*
X57785359Y-141588633D01*
X63147335Y-141588633D01*
X63292039Y-141938843D01*
X63559747Y-142207020D01*
X63909705Y-142352335D01*
X64288633Y-142352665D01*
X64638843Y-142207961D01*
X64907020Y-141940253D01*
X65052335Y-141590295D01*
X65052510Y-141388633D01*
X105047335Y-141388633D01*
X105192039Y-141738843D01*
X105459747Y-142007020D01*
X105809705Y-142152335D01*
X106188633Y-142152665D01*
X106343602Y-142088633D01*
X118747335Y-142088633D01*
X118892039Y-142438843D01*
X119159747Y-142707020D01*
X119509705Y-142852335D01*
X119888633Y-142852665D01*
X120238843Y-142707961D01*
X120507020Y-142440253D01*
X120652335Y-142090295D01*
X120652665Y-141711367D01*
X120507961Y-141361157D01*
X120240253Y-141092980D01*
X119890295Y-140947665D01*
X119511367Y-140947335D01*
X119161157Y-141092039D01*
X118892980Y-141359747D01*
X118747665Y-141709705D01*
X118747335Y-142088633D01*
X106343602Y-142088633D01*
X106538843Y-142007961D01*
X106807020Y-141740253D01*
X106952335Y-141390295D01*
X106952665Y-141011367D01*
X106807961Y-140661157D01*
X106540253Y-140392980D01*
X106487096Y-140370907D01*
X123835000Y-140370907D01*
X123835000Y-140429093D01*
X123948039Y-140997378D01*
X124269946Y-141479147D01*
X124555578Y-141670000D01*
X124269946Y-141860853D01*
X123948039Y-142342622D01*
X123835000Y-142910907D01*
X123835000Y-142969093D01*
X123948039Y-143537378D01*
X124269946Y-144019147D01*
X124751715Y-144341054D01*
X125320000Y-144454093D01*
X125888285Y-144341054D01*
X126370054Y-144019147D01*
X126590000Y-143689974D01*
X126809946Y-144019147D01*
X127291715Y-144341054D01*
X127860000Y-144454093D01*
X128428285Y-144341054D01*
X128910054Y-144019147D01*
X129130000Y-143689974D01*
X129349946Y-144019147D01*
X129831715Y-144341054D01*
X130400000Y-144454093D01*
X130968285Y-144341054D01*
X131450054Y-144019147D01*
X131771961Y-143537378D01*
X131885000Y-142969093D01*
X131885000Y-142910907D01*
X131813518Y-142551540D01*
X142214518Y-142551540D01*
X142637616Y-143575515D01*
X143420365Y-144359631D01*
X144443599Y-144784515D01*
X145551540Y-144785482D01*
X146575515Y-144362384D01*
X147359631Y-143579635D01*
X147784515Y-142556401D01*
X147785482Y-141448460D01*
X147362384Y-140424485D01*
X146579635Y-139640369D01*
X145556401Y-139215485D01*
X144448460Y-139214518D01*
X143424485Y-139637616D01*
X142640369Y-140420365D01*
X142215485Y-141443599D01*
X142214518Y-142551540D01*
X131813518Y-142551540D01*
X131771961Y-142342622D01*
X131450054Y-141860853D01*
X131446357Y-141858383D01*
X131497765Y-141848157D01*
X131707809Y-141707809D01*
X131848157Y-141497765D01*
X131897440Y-141250000D01*
X131897440Y-139550000D01*
X131848157Y-139302235D01*
X131707809Y-139092191D01*
X131497765Y-138951843D01*
X131250000Y-138902560D01*
X129550000Y-138902560D01*
X129302235Y-138951843D01*
X129092191Y-139092191D01*
X128951843Y-139302235D01*
X128939403Y-139364777D01*
X128910054Y-139320853D01*
X128428285Y-138998946D01*
X127860000Y-138885907D01*
X127291715Y-138998946D01*
X126809946Y-139320853D01*
X126590000Y-139650026D01*
X126370054Y-139320853D01*
X125888285Y-138998946D01*
X125320000Y-138885907D01*
X124751715Y-138998946D01*
X124269946Y-139320853D01*
X123948039Y-139802622D01*
X123835000Y-140370907D01*
X106487096Y-140370907D01*
X106190295Y-140247665D01*
X105811367Y-140247335D01*
X105461157Y-140392039D01*
X105192980Y-140659747D01*
X105047665Y-141009705D01*
X105047335Y-141388633D01*
X65052510Y-141388633D01*
X65052665Y-141211367D01*
X64907961Y-140861157D01*
X64640253Y-140592980D01*
X64290295Y-140447665D01*
X63911367Y-140447335D01*
X63561157Y-140592039D01*
X63292980Y-140859747D01*
X63147665Y-141209705D01*
X63147335Y-141588633D01*
X57785359Y-141588633D01*
X57785482Y-141448460D01*
X57362384Y-140424485D01*
X57326595Y-140388633D01*
X70547335Y-140388633D01*
X70692039Y-140738843D01*
X70959747Y-141007020D01*
X71309705Y-141152335D01*
X71688633Y-141152665D01*
X72038843Y-141007961D01*
X72307020Y-140740253D01*
X72452335Y-140390295D01*
X72452665Y-140011367D01*
X72307961Y-139661157D01*
X72040253Y-139392980D01*
X72029785Y-139388633D01*
X109447335Y-139388633D01*
X109592039Y-139738843D01*
X109859747Y-140007020D01*
X110209705Y-140152335D01*
X110588633Y-140152665D01*
X110742038Y-140089279D01*
X110759747Y-140107020D01*
X111109705Y-140252335D01*
X111488633Y-140252665D01*
X111838843Y-140107961D01*
X111887019Y-140059870D01*
X112109705Y-140152337D01*
X112488633Y-140152667D01*
X112838843Y-140007963D01*
X113107020Y-139740255D01*
X113252335Y-139390297D01*
X113252665Y-139011369D01*
X113107961Y-138661159D01*
X112840253Y-138392982D01*
X112588953Y-138288633D01*
X118647335Y-138288633D01*
X118755417Y-138550210D01*
X118647665Y-138809705D01*
X118647335Y-139188633D01*
X118792039Y-139538843D01*
X119059747Y-139807020D01*
X119409705Y-139952335D01*
X119788633Y-139952665D01*
X120138843Y-139807961D01*
X120407020Y-139540253D01*
X120552335Y-139190295D01*
X120552665Y-138811367D01*
X120444583Y-138549790D01*
X120552335Y-138290295D01*
X120552665Y-137911367D01*
X120407961Y-137561157D01*
X120140253Y-137292980D01*
X119790295Y-137147665D01*
X119411367Y-137147335D01*
X119061157Y-137292039D01*
X118792980Y-137559747D01*
X118647665Y-137909705D01*
X118647335Y-138288633D01*
X112588953Y-138288633D01*
X112490295Y-138247667D01*
X112111367Y-138247337D01*
X111761157Y-138392041D01*
X111712981Y-138440132D01*
X111490295Y-138347665D01*
X111111367Y-138347335D01*
X110957962Y-138410721D01*
X110940253Y-138392980D01*
X110590295Y-138247665D01*
X110211367Y-138247335D01*
X109861157Y-138392039D01*
X109592980Y-138659747D01*
X109447665Y-139009705D01*
X109447335Y-139388633D01*
X72029785Y-139388633D01*
X71690295Y-139247665D01*
X71311367Y-139247335D01*
X70961157Y-139392039D01*
X70692980Y-139659747D01*
X70547665Y-140009705D01*
X70547335Y-140388633D01*
X57326595Y-140388633D01*
X56579635Y-139640369D01*
X55556401Y-139215485D01*
X54448460Y-139214518D01*
X53424485Y-139637616D01*
X52640369Y-140420365D01*
X52215485Y-141443599D01*
X52214518Y-142551540D01*
X50710000Y-142551540D01*
X50710000Y-136023100D01*
X52875410Y-136023100D01*
X53123175Y-135973817D01*
X53188921Y-135929887D01*
X53232293Y-136147935D01*
X53372641Y-136357979D01*
X53582685Y-136498327D01*
X53830450Y-136547610D01*
X55229990Y-136547610D01*
X55477755Y-136498327D01*
X55687799Y-136357979D01*
X55800953Y-136188633D01*
X74147335Y-136188633D01*
X74292039Y-136538843D01*
X74559747Y-136807020D01*
X74909705Y-136952335D01*
X75288633Y-136952665D01*
X75638843Y-136807961D01*
X75907020Y-136540253D01*
X76052335Y-136190295D01*
X76052665Y-135811367D01*
X75919314Y-135488633D01*
X83247335Y-135488633D01*
X83392039Y-135838843D01*
X83659747Y-136107020D01*
X83756644Y-136147255D01*
X83647665Y-136409705D01*
X83647335Y-136788633D01*
X83792039Y-137138843D01*
X84059747Y-137407020D01*
X84409705Y-137552335D01*
X84788633Y-137552665D01*
X85138843Y-137407961D01*
X85407020Y-137140253D01*
X85552335Y-136790295D01*
X85552629Y-136452547D01*
X85688631Y-136452665D01*
X86038841Y-136307961D01*
X86307018Y-136040253D01*
X86452333Y-135690295D01*
X86452663Y-135311367D01*
X86307959Y-134961157D01*
X86040251Y-134692980D01*
X85690293Y-134547665D01*
X85311365Y-134547335D01*
X84961155Y-134692039D01*
X84950040Y-134703135D01*
X84740253Y-134492980D01*
X84390295Y-134347665D01*
X84011367Y-134347335D01*
X83661157Y-134492039D01*
X83392980Y-134759747D01*
X83247665Y-135109705D01*
X83247335Y-135488633D01*
X75919314Y-135488633D01*
X75907961Y-135461157D01*
X75640253Y-135192980D01*
X75290295Y-135047665D01*
X74911367Y-135047335D01*
X74561157Y-135192039D01*
X74292980Y-135459747D01*
X74147665Y-135809705D01*
X74147335Y-136188633D01*
X55800953Y-136188633D01*
X55828147Y-136147935D01*
X55877430Y-135900170D01*
X55877430Y-133901190D01*
X55828147Y-133653425D01*
X55687799Y-133443381D01*
X55477755Y-133303033D01*
X55229990Y-133253750D01*
X53830450Y-133253750D01*
X53582685Y-133303033D01*
X53372641Y-133443381D01*
X53280100Y-133581878D01*
X53123175Y-133477023D01*
X52875410Y-133427740D01*
X50710000Y-133427740D01*
X50710000Y-133088633D01*
X67847335Y-133088633D01*
X67992039Y-133438843D01*
X68259747Y-133707020D01*
X68609705Y-133852335D01*
X68988633Y-133852665D01*
X69338843Y-133707961D01*
X69607020Y-133440253D01*
X69752335Y-133090295D01*
X69752665Y-132711367D01*
X69607961Y-132361157D01*
X69340253Y-132092980D01*
X68990295Y-131947665D01*
X68611367Y-131947335D01*
X68261157Y-132092039D01*
X67992980Y-132359747D01*
X67847665Y-132709705D01*
X67847335Y-133088633D01*
X50710000Y-133088633D01*
X50710000Y-131688633D01*
X85647335Y-131688633D01*
X85792039Y-132038843D01*
X85881430Y-132128390D01*
X85847665Y-132209705D01*
X85847335Y-132588633D01*
X85992039Y-132938843D01*
X86259747Y-133207020D01*
X86609705Y-133352335D01*
X86988633Y-133352665D01*
X87338843Y-133207961D01*
X87458380Y-133088633D01*
X95347335Y-133088633D01*
X95492039Y-133438843D01*
X95759747Y-133707020D01*
X96109705Y-133852335D01*
X96488633Y-133852665D01*
X96838843Y-133707961D01*
X97107020Y-133440253D01*
X97252335Y-133090295D01*
X97252665Y-132711367D01*
X97107961Y-132361157D01*
X96840253Y-132092980D01*
X96490295Y-131947665D01*
X96111367Y-131947335D01*
X95761157Y-132092039D01*
X95492980Y-132359747D01*
X95347665Y-132709705D01*
X95347335Y-133088633D01*
X87458380Y-133088633D01*
X87607020Y-132940253D01*
X87752335Y-132590295D01*
X87752665Y-132211367D01*
X87607961Y-131861157D01*
X87518570Y-131771610D01*
X87552335Y-131690295D01*
X87552665Y-131311367D01*
X87407961Y-130961157D01*
X87140253Y-130692980D01*
X86790295Y-130547665D01*
X86411367Y-130547335D01*
X86061157Y-130692039D01*
X85792980Y-130959747D01*
X85647665Y-131309705D01*
X85647335Y-131688633D01*
X50710000Y-131688633D01*
X50710000Y-130572260D01*
X52875410Y-130572260D01*
X53123175Y-130522977D01*
X53280100Y-130418122D01*
X53372641Y-130556619D01*
X53582685Y-130696967D01*
X53830450Y-130746250D01*
X55229990Y-130746250D01*
X55382560Y-130715902D01*
X55392039Y-130738843D01*
X55659747Y-131007020D01*
X56009705Y-131152335D01*
X56388633Y-131152665D01*
X56738843Y-131007961D01*
X57007020Y-130740253D01*
X57152335Y-130390295D01*
X57152665Y-130011367D01*
X57019314Y-129688633D01*
X67847335Y-129688633D01*
X67992039Y-130038843D01*
X68259747Y-130307020D01*
X68609705Y-130452335D01*
X68988633Y-130452665D01*
X69338843Y-130307961D01*
X69458380Y-130188633D01*
X79047335Y-130188633D01*
X79192039Y-130538843D01*
X79459747Y-130807020D01*
X79809705Y-130952335D01*
X80188633Y-130952665D01*
X80538843Y-130807961D01*
X80807020Y-130540253D01*
X80952335Y-130190295D01*
X80952665Y-129811367D01*
X80807961Y-129461157D01*
X80540253Y-129192980D01*
X80190295Y-129047665D01*
X79811367Y-129047335D01*
X79461157Y-129192039D01*
X79192980Y-129459747D01*
X79047665Y-129809705D01*
X79047335Y-130188633D01*
X69458380Y-130188633D01*
X69607020Y-130040253D01*
X69752335Y-129690295D01*
X69752665Y-129311367D01*
X69607961Y-128961157D01*
X69340253Y-128692980D01*
X68990295Y-128547665D01*
X68611367Y-128547335D01*
X68261157Y-128692039D01*
X67992980Y-128959747D01*
X67847665Y-129309705D01*
X67847335Y-129688633D01*
X57019314Y-129688633D01*
X57007961Y-129661157D01*
X56740253Y-129392980D01*
X56390295Y-129247665D01*
X56011367Y-129247335D01*
X55877430Y-129302677D01*
X55877430Y-128099830D01*
X55828147Y-127852065D01*
X55687799Y-127642021D01*
X55477755Y-127501673D01*
X55229990Y-127452390D01*
X53830450Y-127452390D01*
X53582685Y-127501673D01*
X53372641Y-127642021D01*
X53232293Y-127852065D01*
X53188921Y-128070113D01*
X53123175Y-128026183D01*
X52875410Y-127976900D01*
X50710000Y-127976900D01*
X50710000Y-127188633D01*
X77847335Y-127188633D01*
X77992039Y-127538843D01*
X78259747Y-127807020D01*
X78609705Y-127952335D01*
X78988633Y-127952665D01*
X79338843Y-127807961D01*
X79607020Y-127540253D01*
X79752335Y-127190295D01*
X79752665Y-126811367D01*
X79607961Y-126461157D01*
X79542239Y-126395319D01*
X82749930Y-126395319D01*
X82894634Y-126745529D01*
X83162342Y-127013706D01*
X83347507Y-127090593D01*
X83347335Y-127288633D01*
X83492039Y-127638843D01*
X83552961Y-127699871D01*
X83492980Y-127759747D01*
X83347665Y-128109705D01*
X83347335Y-128488633D01*
X83492039Y-128838843D01*
X83759747Y-129107020D01*
X84109705Y-129252335D01*
X84488633Y-129252665D01*
X84838843Y-129107961D01*
X85107020Y-128840253D01*
X85252335Y-128490295D01*
X85252597Y-128188633D01*
X92047335Y-128188633D01*
X92192039Y-128538843D01*
X92459747Y-128807020D01*
X92809705Y-128952335D01*
X93188633Y-128952665D01*
X93538843Y-128807961D01*
X93807020Y-128540253D01*
X93828454Y-128488633D01*
X95047335Y-128488633D01*
X95192039Y-128838843D01*
X95459747Y-129107020D01*
X95809705Y-129252335D01*
X96188633Y-129252665D01*
X96538843Y-129107961D01*
X96807020Y-128840253D01*
X96952335Y-128490295D01*
X96952665Y-128111367D01*
X96819314Y-127788633D01*
X96947335Y-127788633D01*
X97092039Y-128138843D01*
X97359747Y-128407020D01*
X97709705Y-128552335D01*
X98088633Y-128552665D01*
X98438843Y-128407961D01*
X98658555Y-128188633D01*
X129047335Y-128188633D01*
X129192039Y-128538843D01*
X129459747Y-128807020D01*
X129809705Y-128952335D01*
X130188633Y-128952665D01*
X130450210Y-128844583D01*
X130709705Y-128952335D01*
X131088633Y-128952665D01*
X131438843Y-128807961D01*
X131707020Y-128540253D01*
X131852335Y-128190295D01*
X131852665Y-127811367D01*
X131707961Y-127461157D01*
X131440253Y-127192980D01*
X131090295Y-127047665D01*
X130711367Y-127047335D01*
X130449790Y-127155417D01*
X130190295Y-127047665D01*
X129811367Y-127047335D01*
X129461157Y-127192039D01*
X129192980Y-127459747D01*
X129047665Y-127809705D01*
X129047335Y-128188633D01*
X98658555Y-128188633D01*
X98707020Y-128140253D01*
X98852335Y-127790295D01*
X98852665Y-127411367D01*
X98707961Y-127061157D01*
X98440253Y-126792980D01*
X98090295Y-126647665D01*
X97711367Y-126647335D01*
X97361157Y-126792039D01*
X97092980Y-127059747D01*
X96947665Y-127409705D01*
X96947335Y-127788633D01*
X96819314Y-127788633D01*
X96807961Y-127761157D01*
X96540253Y-127492980D01*
X96190295Y-127347665D01*
X95811367Y-127347335D01*
X95461157Y-127492039D01*
X95192980Y-127759747D01*
X95047665Y-128109705D01*
X95047335Y-128488633D01*
X93828454Y-128488633D01*
X93952335Y-128190295D01*
X93952665Y-127811367D01*
X93807961Y-127461157D01*
X93540253Y-127192980D01*
X93190295Y-127047665D01*
X92811367Y-127047335D01*
X92461157Y-127192039D01*
X92192980Y-127459747D01*
X92047665Y-127809705D01*
X92047335Y-128188633D01*
X85252597Y-128188633D01*
X85252665Y-128111367D01*
X85107961Y-127761157D01*
X85047039Y-127700129D01*
X85107020Y-127640253D01*
X85252335Y-127290295D01*
X85252665Y-126911367D01*
X85107961Y-126561157D01*
X84840253Y-126292980D01*
X84655088Y-126216093D01*
X84655260Y-126018053D01*
X84510556Y-125667843D01*
X84242848Y-125399666D01*
X83892890Y-125254351D01*
X83513962Y-125254021D01*
X83163752Y-125398725D01*
X82895575Y-125666433D01*
X82750260Y-126016391D01*
X82749930Y-126395319D01*
X79542239Y-126395319D01*
X79340253Y-126192980D01*
X78990295Y-126047665D01*
X78611367Y-126047335D01*
X78261157Y-126192039D01*
X77992980Y-126459747D01*
X77847665Y-126809705D01*
X77847335Y-127188633D01*
X50710000Y-127188633D01*
X50710000Y-125319414D01*
X50774550Y-125438026D01*
X51200239Y-125782059D01*
X51725180Y-125937000D01*
X52063000Y-125937000D01*
X52063000Y-124667000D01*
X52317000Y-124667000D01*
X52317000Y-125937000D01*
X52654820Y-125937000D01*
X53179761Y-125782059D01*
X53605450Y-125438026D01*
X53867080Y-124957277D01*
X53882040Y-124883070D01*
X53759540Y-124667000D01*
X52317000Y-124667000D01*
X52063000Y-124667000D01*
X52043000Y-124667000D01*
X52043000Y-124413000D01*
X52063000Y-124413000D01*
X52063000Y-122127000D01*
X52317000Y-122127000D01*
X52317000Y-124413000D01*
X53759540Y-124413000D01*
X53882040Y-124196930D01*
X53867080Y-124122723D01*
X53605450Y-123641974D01*
X53179761Y-123297941D01*
X53085097Y-123270000D01*
X53179761Y-123242059D01*
X53605450Y-122898026D01*
X53867080Y-122417277D01*
X53882040Y-122343070D01*
X53759540Y-122127000D01*
X52317000Y-122127000D01*
X52063000Y-122127000D01*
X52043000Y-122127000D01*
X52043000Y-122000000D01*
X58041193Y-122000000D01*
X58147533Y-122534609D01*
X58450365Y-122987828D01*
X58872664Y-123270000D01*
X58450365Y-123552172D01*
X58147533Y-124005391D01*
X58041193Y-124540000D01*
X58147533Y-125074609D01*
X58450365Y-125527828D01*
X58903584Y-125830660D01*
X59438193Y-125937000D01*
X60181807Y-125937000D01*
X60716416Y-125830660D01*
X61169635Y-125527828D01*
X61472467Y-125074609D01*
X61578807Y-124540000D01*
X61472467Y-124005391D01*
X61169635Y-123552172D01*
X60747336Y-123270000D01*
X61169635Y-122987828D01*
X61472467Y-122534609D01*
X61561176Y-122088633D01*
X77747335Y-122088633D01*
X77892039Y-122438843D01*
X78159747Y-122707020D01*
X78509705Y-122852335D01*
X78888633Y-122852665D01*
X79112959Y-122759975D01*
X79259747Y-122907020D01*
X79609705Y-123052335D01*
X79613009Y-123052338D01*
X79547665Y-123209705D01*
X79547335Y-123588633D01*
X79600292Y-123716799D01*
X79328958Y-123828912D01*
X79060781Y-124096620D01*
X78915466Y-124446578D01*
X78915136Y-124825506D01*
X79059840Y-125175716D01*
X79327548Y-125443893D01*
X79677506Y-125589208D01*
X80056434Y-125589538D01*
X80242377Y-125512708D01*
X80242368Y-125523303D01*
X80387072Y-125873513D01*
X80654780Y-126141690D01*
X81004738Y-126287005D01*
X81383666Y-126287335D01*
X81733876Y-126142631D01*
X82002053Y-125874923D01*
X82147368Y-125524965D01*
X82147698Y-125146037D01*
X82048209Y-124905256D01*
X82138159Y-124688633D01*
X88547335Y-124688633D01*
X88692039Y-125038843D01*
X88959747Y-125307020D01*
X89309705Y-125452335D01*
X89688633Y-125452665D01*
X90038843Y-125307961D01*
X90070886Y-125275974D01*
X90241235Y-125346709D01*
X90247633Y-125346715D01*
X90247335Y-125688633D01*
X90392039Y-126038843D01*
X90659747Y-126307020D01*
X91009705Y-126452335D01*
X91388633Y-126452665D01*
X91738843Y-126307961D01*
X92007020Y-126040253D01*
X92043514Y-125952364D01*
X92388633Y-125952665D01*
X92738843Y-125807961D01*
X93007020Y-125540253D01*
X93152335Y-125190295D01*
X93152665Y-124811367D01*
X93007961Y-124461157D01*
X92940329Y-124393406D01*
X94648753Y-124393406D01*
X94793457Y-124743616D01*
X95061165Y-125011793D01*
X95411123Y-125157108D01*
X95790051Y-125157438D01*
X96140261Y-125012734D01*
X96408438Y-124745026D01*
X96553753Y-124395068D01*
X96553790Y-124352635D01*
X96588633Y-124352665D01*
X96938843Y-124207961D01*
X97207020Y-123940253D01*
X97351410Y-123592521D01*
X138764570Y-123592521D01*
X138764570Y-126207479D01*
X138888988Y-126832971D01*
X139243301Y-127363238D01*
X139773568Y-127717551D01*
X140399060Y-127841969D01*
X141024552Y-127717551D01*
X141554819Y-127363238D01*
X141909132Y-126832971D01*
X142033550Y-126207479D01*
X142033550Y-125027000D01*
X144766590Y-125027000D01*
X144766590Y-126027760D01*
X144939609Y-126643585D01*
X145335124Y-127146322D01*
X145892921Y-127459433D01*
X146020726Y-127490379D01*
X146274080Y-127371025D01*
X146274080Y-125027000D01*
X146528080Y-125027000D01*
X146528080Y-127371025D01*
X146781434Y-127490379D01*
X146909239Y-127459433D01*
X147467036Y-127146322D01*
X147862551Y-126643585D01*
X148035570Y-126027760D01*
X148035570Y-125027000D01*
X146528080Y-125027000D01*
X146274080Y-125027000D01*
X144766590Y-125027000D01*
X142033550Y-125027000D01*
X142033550Y-123772240D01*
X144766590Y-123772240D01*
X144766590Y-124773000D01*
X146274080Y-124773000D01*
X146274080Y-122428975D01*
X146528080Y-122428975D01*
X146528080Y-124773000D01*
X148035570Y-124773000D01*
X148035570Y-123772240D01*
X147862551Y-123156415D01*
X147467036Y-122653678D01*
X146909239Y-122340567D01*
X146781434Y-122309621D01*
X146528080Y-122428975D01*
X146274080Y-122428975D01*
X146020726Y-122309621D01*
X145892921Y-122340567D01*
X145335124Y-122653678D01*
X144939609Y-123156415D01*
X144766590Y-123772240D01*
X142033550Y-123772240D01*
X142033550Y-123592521D01*
X141909132Y-122967029D01*
X141554819Y-122436762D01*
X141024552Y-122082449D01*
X140399060Y-121958031D01*
X139773568Y-122082449D01*
X139243301Y-122436762D01*
X138888988Y-122967029D01*
X138764570Y-123592521D01*
X97351410Y-123592521D01*
X97352335Y-123590295D01*
X97352665Y-123211367D01*
X97207961Y-122861157D01*
X96940253Y-122592980D01*
X96590295Y-122447665D01*
X96211367Y-122447335D01*
X95861157Y-122592039D01*
X95592980Y-122859747D01*
X95447665Y-123209705D01*
X95447628Y-123252138D01*
X95412785Y-123252108D01*
X95062575Y-123396812D01*
X94794398Y-123664520D01*
X94649083Y-124014478D01*
X94648753Y-124393406D01*
X92940329Y-124393406D01*
X92740253Y-124192980D01*
X92390295Y-124047665D01*
X92283742Y-124047572D01*
X92246161Y-123956619D01*
X91978453Y-123688442D01*
X91628495Y-123543127D01*
X91249567Y-123542797D01*
X91021411Y-123637069D01*
X90971783Y-123587354D01*
X90621825Y-123442039D01*
X90242897Y-123441709D01*
X89892687Y-123586413D01*
X89860644Y-123618400D01*
X89690295Y-123547665D01*
X89311367Y-123547335D01*
X88961157Y-123692039D01*
X88692980Y-123959747D01*
X88547665Y-124309705D01*
X88547335Y-124688633D01*
X82138159Y-124688633D01*
X82138919Y-124686803D01*
X82139249Y-124307875D01*
X81994545Y-123957665D01*
X81825809Y-123788633D01*
X84447335Y-123788633D01*
X84592039Y-124138843D01*
X84859747Y-124407020D01*
X85209705Y-124552335D01*
X85588633Y-124552665D01*
X85938843Y-124407961D01*
X86207020Y-124140253D01*
X86352335Y-123790295D01*
X86352665Y-123411367D01*
X86207961Y-123061157D01*
X85940253Y-122792980D01*
X85590295Y-122647665D01*
X85211367Y-122647335D01*
X84861157Y-122792039D01*
X84592980Y-123059747D01*
X84447665Y-123409705D01*
X84447335Y-123788633D01*
X81825809Y-123788633D01*
X81726837Y-123689488D01*
X81452348Y-123575510D01*
X81452665Y-123211367D01*
X81307961Y-122861157D01*
X81040253Y-122592980D01*
X80690295Y-122447665D01*
X80686991Y-122447662D01*
X80752335Y-122290295D01*
X80752510Y-122088633D01*
X127447335Y-122088633D01*
X127592039Y-122438843D01*
X127859747Y-122707020D01*
X128209705Y-122852335D01*
X128588633Y-122852665D01*
X128938843Y-122707961D01*
X129207020Y-122440253D01*
X129352335Y-122090295D01*
X129352665Y-121711367D01*
X129207961Y-121361157D01*
X128940253Y-121092980D01*
X128590295Y-120947665D01*
X128211367Y-120947335D01*
X127861157Y-121092039D01*
X127592980Y-121359747D01*
X127447665Y-121709705D01*
X127447335Y-122088633D01*
X80752510Y-122088633D01*
X80752665Y-121911367D01*
X80607961Y-121561157D01*
X80340253Y-121292980D01*
X79990295Y-121147665D01*
X79611367Y-121147335D01*
X79387041Y-121240025D01*
X79240253Y-121092980D01*
X78890295Y-120947665D01*
X78511367Y-120947335D01*
X78161157Y-121092039D01*
X77892980Y-121359747D01*
X77747665Y-121709705D01*
X77747335Y-122088633D01*
X61561176Y-122088633D01*
X61578807Y-122000000D01*
X61472467Y-121465391D01*
X61169635Y-121012172D01*
X60945423Y-120862358D01*
X61157585Y-120820157D01*
X61367629Y-120679809D01*
X61507977Y-120469765D01*
X61557260Y-120222000D01*
X61557260Y-118988633D01*
X86547335Y-118988633D01*
X86692039Y-119338843D01*
X86959747Y-119607020D01*
X87309705Y-119752335D01*
X87688633Y-119752665D01*
X88038843Y-119607961D01*
X88047799Y-119599020D01*
X140463002Y-119599020D01*
X140587420Y-120224512D01*
X140941733Y-120754779D01*
X141472000Y-121109092D01*
X142097492Y-121233510D01*
X144202268Y-121233510D01*
X144827760Y-121109092D01*
X145358027Y-120754779D01*
X145712340Y-120224512D01*
X145836758Y-119599020D01*
X145712340Y-118973528D01*
X145358027Y-118443261D01*
X144827760Y-118088948D01*
X144202268Y-117964530D01*
X142097492Y-117964530D01*
X141472000Y-118088948D01*
X140941733Y-118443261D01*
X140587420Y-118973528D01*
X140463002Y-119599020D01*
X88047799Y-119599020D01*
X88307020Y-119340253D01*
X88452335Y-118990295D01*
X88452665Y-118611367D01*
X88307961Y-118261157D01*
X88040253Y-117992980D01*
X87690295Y-117847665D01*
X87311367Y-117847335D01*
X86961157Y-117992039D01*
X86692980Y-118259747D01*
X86547665Y-118609705D01*
X86547335Y-118988633D01*
X61557260Y-118988633D01*
X61557260Y-118698000D01*
X61507977Y-118450235D01*
X61367629Y-118240191D01*
X61157585Y-118099843D01*
X60909820Y-118050560D01*
X58710180Y-118050560D01*
X58462415Y-118099843D01*
X58252371Y-118240191D01*
X58112023Y-118450235D01*
X58062740Y-118698000D01*
X58062740Y-120222000D01*
X58112023Y-120469765D01*
X58252371Y-120679809D01*
X58462415Y-120820157D01*
X58674577Y-120862358D01*
X58450365Y-121012172D01*
X58147533Y-121465391D01*
X58041193Y-122000000D01*
X52043000Y-122000000D01*
X52043000Y-121873000D01*
X52063000Y-121873000D01*
X52063000Y-119587000D01*
X52317000Y-119587000D01*
X52317000Y-121873000D01*
X53759540Y-121873000D01*
X53882040Y-121656930D01*
X53867080Y-121582723D01*
X53605450Y-121101974D01*
X53179761Y-120757941D01*
X53085097Y-120730000D01*
X53179761Y-120702059D01*
X53605450Y-120358026D01*
X53867080Y-119877277D01*
X53882040Y-119803070D01*
X53759540Y-119587000D01*
X52317000Y-119587000D01*
X52063000Y-119587000D01*
X52043000Y-119587000D01*
X52043000Y-119333000D01*
X52063000Y-119333000D01*
X52063000Y-118063000D01*
X52317000Y-118063000D01*
X52317000Y-119333000D01*
X53759540Y-119333000D01*
X53882040Y-119116930D01*
X53867080Y-119042723D01*
X53605450Y-118561974D01*
X53179761Y-118217941D01*
X52654820Y-118063000D01*
X52317000Y-118063000D01*
X52063000Y-118063000D01*
X51725180Y-118063000D01*
X51200239Y-118217941D01*
X50774550Y-118561974D01*
X50710000Y-118680586D01*
X50710000Y-115988633D01*
X111447345Y-115988633D01*
X111592049Y-116338843D01*
X111859757Y-116607020D01*
X112209715Y-116752335D01*
X112490190Y-116752579D01*
X112464200Y-116763318D01*
X112196023Y-117031026D01*
X112050708Y-117380984D01*
X112050378Y-117759912D01*
X112195082Y-118110122D01*
X112462790Y-118378299D01*
X112812748Y-118523614D01*
X113191676Y-118523944D01*
X113541886Y-118379240D01*
X113810063Y-118111532D01*
X113955378Y-117761574D01*
X113955708Y-117382646D01*
X113811004Y-117032436D01*
X113543296Y-116764259D01*
X113193338Y-116618944D01*
X112912863Y-116618700D01*
X112938853Y-116607961D01*
X113207030Y-116340253D01*
X113269988Y-116188633D01*
X119147335Y-116188633D01*
X119292039Y-116538843D01*
X119559747Y-116807020D01*
X119909705Y-116952335D01*
X120288633Y-116952665D01*
X120638843Y-116807961D01*
X120907020Y-116540253D01*
X121052335Y-116190295D01*
X121052665Y-115811367D01*
X120907961Y-115461157D01*
X120640253Y-115192980D01*
X120290295Y-115047665D01*
X119911367Y-115047335D01*
X119561157Y-115192039D01*
X119292980Y-115459747D01*
X119147665Y-115809705D01*
X119147335Y-116188633D01*
X113269988Y-116188633D01*
X113352345Y-115990295D01*
X113352675Y-115611367D01*
X113207971Y-115261157D01*
X112940263Y-114992980D01*
X112590305Y-114847665D01*
X112211377Y-114847335D01*
X111861167Y-114992039D01*
X111592990Y-115259747D01*
X111447675Y-115609705D01*
X111447345Y-115988633D01*
X50710000Y-115988633D01*
X50710000Y-115054489D01*
X50920853Y-115370054D01*
X51402622Y-115691961D01*
X51970907Y-115805000D01*
X52029093Y-115805000D01*
X52597378Y-115691961D01*
X53079147Y-115370054D01*
X53401054Y-114888285D01*
X53514093Y-114320000D01*
X53412199Y-113807743D01*
X86447335Y-113807743D01*
X86592039Y-114157953D01*
X86859747Y-114426130D01*
X87209705Y-114571445D01*
X87588633Y-114571775D01*
X87938843Y-114427071D01*
X88207020Y-114159363D01*
X88352335Y-113809405D01*
X88352665Y-113430477D01*
X88211418Y-113088633D01*
X89547335Y-113088633D01*
X89692039Y-113438843D01*
X89959747Y-113707020D01*
X90309705Y-113852335D01*
X90688633Y-113852665D01*
X91038843Y-113707961D01*
X91049871Y-113696952D01*
X91159747Y-113807020D01*
X91509705Y-113952335D01*
X91888633Y-113952665D01*
X92238843Y-113807961D01*
X92507020Y-113540253D01*
X92528454Y-113488633D01*
X111447343Y-113488633D01*
X111592047Y-113838843D01*
X111859755Y-114107020D01*
X112209713Y-114252335D01*
X112588641Y-114252665D01*
X112938851Y-114107961D01*
X113207028Y-113840253D01*
X113219862Y-113809345D01*
X116125025Y-113809345D01*
X116269729Y-114159555D01*
X116537437Y-114427732D01*
X116887395Y-114573047D01*
X117266323Y-114573377D01*
X117616533Y-114428673D01*
X117884710Y-114160965D01*
X118030025Y-113811007D01*
X118030355Y-113432079D01*
X117885651Y-113081869D01*
X117617943Y-112813692D01*
X117316767Y-112688633D01*
X125447335Y-112688633D01*
X125592039Y-113038843D01*
X125859747Y-113307020D01*
X126209705Y-113452335D01*
X126588633Y-113452665D01*
X126938843Y-113307961D01*
X127207020Y-113040253D01*
X127352335Y-112690295D01*
X127352665Y-112311367D01*
X127207961Y-111961157D01*
X126940253Y-111692980D01*
X126590295Y-111547665D01*
X126211367Y-111547335D01*
X125861157Y-111692039D01*
X125592980Y-111959747D01*
X125447665Y-112309705D01*
X125447335Y-112688633D01*
X117316767Y-112688633D01*
X117267985Y-112668377D01*
X116889057Y-112668047D01*
X116538847Y-112812751D01*
X116270670Y-113080459D01*
X116125355Y-113430417D01*
X116125025Y-113809345D01*
X113219862Y-113809345D01*
X113352343Y-113490295D01*
X113352486Y-113326282D01*
X113638843Y-113207961D01*
X113907020Y-112940253D01*
X114052335Y-112590295D01*
X114052665Y-112211367D01*
X113907961Y-111861157D01*
X113640253Y-111592980D01*
X113290295Y-111447665D01*
X112911367Y-111447335D01*
X112561157Y-111592039D01*
X112292980Y-111859747D01*
X112147665Y-112209705D01*
X112147522Y-112373718D01*
X111861165Y-112492039D01*
X111592988Y-112759747D01*
X111447673Y-113109705D01*
X111447343Y-113488633D01*
X92528454Y-113488633D01*
X92652335Y-113190295D01*
X92652665Y-112811367D01*
X92507961Y-112461157D01*
X92240253Y-112192980D01*
X91890295Y-112047665D01*
X91511367Y-112047335D01*
X91161157Y-112192039D01*
X91150129Y-112203048D01*
X91040253Y-112092980D01*
X90788958Y-111988633D01*
X110247335Y-111988633D01*
X110392039Y-112338843D01*
X110659747Y-112607020D01*
X111009705Y-112752335D01*
X111388633Y-112752665D01*
X111738843Y-112607961D01*
X112007020Y-112340253D01*
X112152335Y-111990295D01*
X112152665Y-111611367D01*
X112007961Y-111261157D01*
X111740253Y-110992980D01*
X111390295Y-110847665D01*
X111011367Y-110847335D01*
X110661157Y-110992039D01*
X110392980Y-111259747D01*
X110247665Y-111609705D01*
X110247335Y-111988633D01*
X90788958Y-111988633D01*
X90690295Y-111947665D01*
X90311367Y-111947335D01*
X89961157Y-112092039D01*
X89692980Y-112359747D01*
X89547665Y-112709705D01*
X89547335Y-113088633D01*
X88211418Y-113088633D01*
X88207961Y-113080267D01*
X87940253Y-112812090D01*
X87590295Y-112666775D01*
X87211367Y-112666445D01*
X86861157Y-112811149D01*
X86592980Y-113078857D01*
X86447665Y-113428815D01*
X86447335Y-113807743D01*
X53412199Y-113807743D01*
X53401054Y-113751715D01*
X53079147Y-113269946D01*
X52738447Y-113042298D01*
X52881358Y-112975183D01*
X53271645Y-112546924D01*
X53441476Y-112136890D01*
X53320155Y-111907000D01*
X52127000Y-111907000D01*
X52127000Y-111927000D01*
X51873000Y-111927000D01*
X51873000Y-111907000D01*
X51853000Y-111907000D01*
X51853000Y-111653000D01*
X51873000Y-111653000D01*
X51873000Y-111633000D01*
X52127000Y-111633000D01*
X52127000Y-111653000D01*
X53320155Y-111653000D01*
X53441476Y-111423110D01*
X53271645Y-111013076D01*
X53064476Y-110785750D01*
X64515000Y-110785750D01*
X64515000Y-111476309D01*
X64611673Y-111709698D01*
X64790301Y-111888327D01*
X65023690Y-111985000D01*
X65714250Y-111985000D01*
X65873000Y-111826250D01*
X65873000Y-110627000D01*
X64673750Y-110627000D01*
X64515000Y-110785750D01*
X53064476Y-110785750D01*
X52881358Y-110584817D01*
X52738447Y-110517702D01*
X53079147Y-110290054D01*
X53401054Y-109808285D01*
X53514093Y-109240000D01*
X53401054Y-108671715D01*
X53079147Y-108189946D01*
X52749974Y-107970000D01*
X52808480Y-107930907D01*
X64515000Y-107930907D01*
X64515000Y-107989093D01*
X64628039Y-108557378D01*
X64949946Y-109039147D01*
X64955858Y-109043097D01*
X64790301Y-109111673D01*
X64611673Y-109290302D01*
X64515000Y-109523691D01*
X64515000Y-110214250D01*
X64673750Y-110373000D01*
X65873000Y-110373000D01*
X65873000Y-110353000D01*
X66127000Y-110353000D01*
X66127000Y-110373000D01*
X66147000Y-110373000D01*
X66147000Y-110627000D01*
X66127000Y-110627000D01*
X66127000Y-111826250D01*
X66285750Y-111985000D01*
X66976310Y-111985000D01*
X67209699Y-111888327D01*
X67388327Y-111709698D01*
X67460597Y-111535223D01*
X67489946Y-111579147D01*
X67971715Y-111901054D01*
X68540000Y-112014093D01*
X69108285Y-111901054D01*
X69590054Y-111579147D01*
X69810000Y-111249974D01*
X70029946Y-111579147D01*
X70511715Y-111901054D01*
X71080000Y-112014093D01*
X71648285Y-111901054D01*
X72130054Y-111579147D01*
X72350000Y-111249974D01*
X72569946Y-111579147D01*
X73051715Y-111901054D01*
X73620000Y-112014093D01*
X74188285Y-111901054D01*
X74670054Y-111579147D01*
X74991961Y-111097378D01*
X75105000Y-110529093D01*
X75105000Y-110470907D01*
X74991961Y-109902622D01*
X74848979Y-109688633D01*
X107847335Y-109688633D01*
X107992039Y-110038843D01*
X108259747Y-110307020D01*
X108609705Y-110452335D01*
X108856383Y-110452550D01*
X108892039Y-110538843D01*
X109159747Y-110807020D01*
X109509705Y-110952335D01*
X109888633Y-110952665D01*
X110238843Y-110807961D01*
X110507020Y-110540253D01*
X110652335Y-110190295D01*
X110652665Y-109811367D01*
X110507961Y-109461157D01*
X110240253Y-109192980D01*
X109890295Y-109047665D01*
X109643617Y-109047450D01*
X109607961Y-108961157D01*
X109340253Y-108692980D01*
X108990295Y-108547665D01*
X108611367Y-108547335D01*
X108261157Y-108692039D01*
X107992980Y-108959747D01*
X107847665Y-109309705D01*
X107847335Y-109688633D01*
X74848979Y-109688633D01*
X74670054Y-109420853D01*
X74384422Y-109230000D01*
X74670054Y-109039147D01*
X74991961Y-108557378D01*
X75105000Y-107989093D01*
X75105000Y-107930907D01*
X75076700Y-107788633D01*
X109447335Y-107788633D01*
X109592039Y-108138843D01*
X109859747Y-108407020D01*
X110147650Y-108526568D01*
X110147335Y-108888633D01*
X110292039Y-109238843D01*
X110559747Y-109507020D01*
X110909705Y-109652335D01*
X111288633Y-109652665D01*
X111638843Y-109507961D01*
X111907020Y-109240253D01*
X112052335Y-108890295D01*
X112052665Y-108511367D01*
X111907961Y-108161157D01*
X111902338Y-108155524D01*
X113200363Y-108155524D01*
X113345067Y-108505734D01*
X113612775Y-108773911D01*
X113962733Y-108919226D01*
X114341661Y-108919556D01*
X114691871Y-108774852D01*
X114960048Y-108507144D01*
X115105363Y-108157186D01*
X115105619Y-107863008D01*
X115238843Y-107807961D01*
X115458555Y-107588633D01*
X118447335Y-107588633D01*
X118555417Y-107850210D01*
X118447665Y-108109705D01*
X118447335Y-108488633D01*
X118555417Y-108750210D01*
X118447665Y-109009705D01*
X118447335Y-109388633D01*
X118592039Y-109738843D01*
X118859747Y-110007020D01*
X119209705Y-110152335D01*
X119588633Y-110152665D01*
X119938843Y-110007961D01*
X120207020Y-109740253D01*
X120352335Y-109390295D01*
X120352665Y-109011367D01*
X120244583Y-108749790D01*
X120352335Y-108490295D01*
X120352665Y-108111367D01*
X120244583Y-107849790D01*
X120352335Y-107590295D01*
X120352665Y-107211367D01*
X120207961Y-106861157D01*
X119940253Y-106592980D01*
X119590295Y-106447665D01*
X119211367Y-106447335D01*
X118861157Y-106592039D01*
X118592980Y-106859747D01*
X118447665Y-107209705D01*
X118447335Y-107588633D01*
X115458555Y-107588633D01*
X115507020Y-107540253D01*
X115652335Y-107190295D01*
X115652665Y-106811367D01*
X115507961Y-106461157D01*
X115240253Y-106192980D01*
X114890295Y-106047665D01*
X114511367Y-106047335D01*
X114161157Y-106192039D01*
X113892980Y-106459747D01*
X113747665Y-106809705D01*
X113747409Y-107103883D01*
X113614185Y-107158930D01*
X113346008Y-107426638D01*
X113200693Y-107776596D01*
X113200363Y-108155524D01*
X111902338Y-108155524D01*
X111640253Y-107892980D01*
X111352350Y-107773432D01*
X111352665Y-107411367D01*
X111207961Y-107061157D01*
X110940253Y-106792980D01*
X110590295Y-106647665D01*
X110211367Y-106647335D01*
X109861157Y-106792039D01*
X109592980Y-107059747D01*
X109447665Y-107409705D01*
X109447335Y-107788633D01*
X75076700Y-107788633D01*
X74991961Y-107362622D01*
X74670054Y-106880853D01*
X74188285Y-106558946D01*
X73620000Y-106445907D01*
X73051715Y-106558946D01*
X72569946Y-106880853D01*
X72350000Y-107210026D01*
X72130054Y-106880853D01*
X71648285Y-106558946D01*
X71080000Y-106445907D01*
X70511715Y-106558946D01*
X70029946Y-106880853D01*
X69810000Y-107210026D01*
X69590054Y-106880853D01*
X69108285Y-106558946D01*
X68540000Y-106445907D01*
X67971715Y-106558946D01*
X67489946Y-106880853D01*
X67270000Y-107210026D01*
X67050054Y-106880853D01*
X66568285Y-106558946D01*
X66000000Y-106445907D01*
X65431715Y-106558946D01*
X64949946Y-106880853D01*
X64628039Y-107362622D01*
X64515000Y-107930907D01*
X52808480Y-107930907D01*
X53079147Y-107750054D01*
X53401054Y-107268285D01*
X53514093Y-106700000D01*
X53401054Y-106131715D01*
X53079147Y-105649946D01*
X52749974Y-105430000D01*
X53079147Y-105210054D01*
X53401054Y-104728285D01*
X53408941Y-104688633D01*
X67847335Y-104688633D01*
X67992039Y-105038843D01*
X68259747Y-105307020D01*
X68609705Y-105452335D01*
X68988633Y-105452665D01*
X69338843Y-105307961D01*
X69607020Y-105040253D01*
X69752335Y-104690295D01*
X69752665Y-104311367D01*
X69607961Y-103961157D01*
X69340253Y-103692980D01*
X68990295Y-103547665D01*
X68611367Y-103547335D01*
X68261157Y-103692039D01*
X67992980Y-103959747D01*
X67847665Y-104309705D01*
X67847335Y-104688633D01*
X53408941Y-104688633D01*
X53514093Y-104160000D01*
X53401054Y-103591715D01*
X53079147Y-103109946D01*
X52749974Y-102890000D01*
X53079147Y-102670054D01*
X53401054Y-102188285D01*
X53514093Y-101620000D01*
X53401054Y-101051715D01*
X53079147Y-100569946D01*
X52749974Y-100350000D01*
X53079147Y-100130054D01*
X53401054Y-99648285D01*
X53514093Y-99080000D01*
X53401054Y-98511715D01*
X53079147Y-98029946D01*
X52749974Y-97810000D01*
X53079147Y-97590054D01*
X53401054Y-97108285D01*
X53514093Y-96540000D01*
X53401054Y-95971715D01*
X53079147Y-95489946D01*
X53035223Y-95460597D01*
X53097765Y-95448157D01*
X53307809Y-95307809D01*
X53448157Y-95097765D01*
X53497440Y-94850000D01*
X53497440Y-93150000D01*
X53448157Y-92902235D01*
X53307809Y-92692191D01*
X53097765Y-92551843D01*
X52850000Y-92502560D01*
X51150000Y-92502560D01*
X50902235Y-92551843D01*
X50710000Y-92680291D01*
X50710000Y-90088633D01*
X128047335Y-90088633D01*
X128192039Y-90438843D01*
X128459747Y-90707020D01*
X128809705Y-90852335D01*
X129188633Y-90852665D01*
X129538843Y-90707961D01*
X129807020Y-90440253D01*
X129952335Y-90090295D01*
X129952665Y-89711367D01*
X129807961Y-89361157D01*
X129540253Y-89092980D01*
X129190295Y-88947665D01*
X128811367Y-88947335D01*
X128461157Y-89092039D01*
X128192980Y-89359747D01*
X128047665Y-89709705D01*
X128047335Y-90088633D01*
X50710000Y-90088633D01*
X50710000Y-87551540D01*
X52214518Y-87551540D01*
X52637616Y-88575515D01*
X53420365Y-89359631D01*
X54443599Y-89784515D01*
X55551540Y-89785482D01*
X56575515Y-89362384D01*
X57359631Y-88579635D01*
X57784515Y-87556401D01*
X57785482Y-86448460D01*
X57362384Y-85424485D01*
X56579635Y-84640369D01*
X55556401Y-84215485D01*
X54448460Y-84214518D01*
X53424485Y-84637616D01*
X52640369Y-85420365D01*
X52215485Y-86443599D01*
X52214518Y-87551540D01*
X50710000Y-87551540D01*
X50710000Y-84069931D01*
X50821046Y-83511662D01*
X51097669Y-83097667D01*
X51511660Y-82821047D01*
X52069931Y-82710000D01*
X116645511Y-82710000D01*
X116329946Y-82920853D01*
M02*
