G04 #@! TF.GenerationSoftware,KiCad,Pcbnew,(2017-08-04 revision 7bf9f8e1c)-master*
G04 #@! TF.CreationDate,2019-03-18T20:52:30+01:00*
G04 #@! TF.ProjectId,pcb_ledtorus_controller,7063625F6C6564746F7275735F636F6E,rev?*
G04 #@! TF.SameCoordinates,Original*
G04 #@! TF.FileFunction,Copper,L4,Bot,Signal*
G04 #@! TF.FilePolarity,Positive*
%FSLAX46Y46*%
G04 Gerber Fmt 4.6, Leading zero omitted, Abs format (unit mm)*
G04 Created by KiCad (PCBNEW (2017-08-04 revision 7bf9f8e1c)-master) date Mon Mar 18 20:52:30 2019*
%MOMM*%
%LPD*%
G01*
G04 APERTURE LIST*
%ADD10O,1.998980X4.500880*%
%ADD11O,1.998980X4.000500*%
%ADD12O,4.000500X1.998980*%
%ADD13R,1.524000X2.199640*%
%ADD14O,1.524000X2.199640*%
%ADD15O,2.199640X1.524000*%
%ADD16R,2.199640X1.524000*%
%ADD17R,2.451100X1.300480*%
%ADD18R,1.399540X1.998980*%
%ADD19R,1.700000X1.700000*%
%ADD20O,1.700000X1.700000*%
%ADD21C,0.635000*%
%ADD22C,0.203200*%
%ADD23C,1.016000*%
%ADD24C,0.200000*%
%ADD25C,0.254000*%
G04 APERTURE END LIST*
D10*
X140399060Y-124900000D03*
D11*
X146401080Y-124900000D03*
D12*
X143149880Y-119599020D03*
D13*
X92000000Y-147000000D03*
D14*
X88000000Y-147000000D03*
X84000000Y-147000000D03*
X80000000Y-147000000D03*
X76000000Y-147000000D03*
X72000000Y-147000000D03*
X68000000Y-147000000D03*
X64000000Y-147000000D03*
X60000000Y-147000000D03*
D13*
X140000000Y-147000000D03*
D14*
X136000000Y-147000000D03*
X132000000Y-147000000D03*
X128000000Y-147000000D03*
X124000000Y-147000000D03*
X120000000Y-147000000D03*
X116000000Y-147000000D03*
X112000000Y-147000000D03*
X108000000Y-147000000D03*
D15*
X52190000Y-124540000D03*
X59810000Y-124540000D03*
X52190000Y-122000000D03*
X59810000Y-122000000D03*
X52190000Y-119460000D03*
D16*
X59810000Y-119460000D03*
D17*
X51649860Y-134725420D03*
X51649860Y-129274580D03*
D18*
X54530220Y-134900680D03*
X54530220Y-129099320D03*
D19*
X125000000Y-84000000D03*
D20*
X122460000Y-84000000D03*
X119920000Y-84000000D03*
X117380000Y-84000000D03*
D19*
X66000000Y-110500000D03*
D20*
X66000000Y-107960000D03*
X68540000Y-110500000D03*
X68540000Y-107960000D03*
X71080000Y-110500000D03*
X71080000Y-107960000D03*
X73620000Y-110500000D03*
X73620000Y-107960000D03*
D19*
X52000000Y-94000000D03*
D20*
X52000000Y-96540000D03*
X52000000Y-99080000D03*
X52000000Y-101620000D03*
X52000000Y-104160000D03*
X52000000Y-106700000D03*
X52000000Y-109240000D03*
X52000000Y-111780000D03*
X52000000Y-114320000D03*
D19*
X130400000Y-140400000D03*
D20*
X130400000Y-142940000D03*
X127860000Y-140400000D03*
X127860000Y-142940000D03*
X125320000Y-140400000D03*
X125320000Y-142940000D03*
D21*
X129500000Y-101500000D03*
X127500000Y-101500000D03*
X125500000Y-101500000D03*
X123500000Y-101500000D03*
X121500000Y-101500000D03*
X129500000Y-99500000D03*
X127500000Y-99500000D03*
X125500000Y-99500000D03*
X123500000Y-99500000D03*
X121500000Y-99500000D03*
X129500000Y-97500000D03*
X127500000Y-97500000D03*
X125500000Y-97500000D03*
X123500000Y-97500000D03*
X121500000Y-97500000D03*
X129500000Y-95500000D03*
X127500000Y-95500000D03*
X125500000Y-95500000D03*
X123500000Y-95500000D03*
X121500000Y-95500000D03*
X108500000Y-100500000D03*
X110500000Y-100500000D03*
X112500000Y-100500000D03*
X114500000Y-100500000D03*
X108500000Y-98500000D03*
X110500000Y-98500000D03*
X112500000Y-98500000D03*
X114500000Y-98500000D03*
X108500000Y-96500000D03*
X110500000Y-96500000D03*
X112500000Y-96500000D03*
X114500000Y-96500000D03*
X108500000Y-94500000D03*
X110500000Y-94500000D03*
X112500000Y-94500000D03*
X114500000Y-94500000D03*
X68800000Y-129500000D03*
X68800000Y-132900000D03*
X103900000Y-102100000D03*
X103000000Y-102800000D03*
X127000000Y-89000000D03*
X127100000Y-88100000D03*
X113500000Y-89800000D03*
X113300000Y-88800000D03*
X111700000Y-90300000D03*
X132000000Y-89700000D03*
X126500000Y-106100000D03*
X126700000Y-104800000D03*
X115900000Y-113500000D03*
X106000000Y-133299998D03*
X108800000Y-133200000D03*
X117200000Y-135000000D03*
X117500000Y-135800000D03*
X116300000Y-134900000D03*
X108800000Y-141800000D03*
X86200000Y-117500000D03*
X85400000Y-138900000D03*
X87000000Y-138700000D03*
X127100000Y-107600000D03*
X125500000Y-110800000D03*
X121000000Y-110400000D03*
X99400000Y-141900000D03*
X106100000Y-119600000D03*
X105600000Y-123000000D03*
X106100000Y-113300000D03*
X98600000Y-113300000D03*
X99700000Y-115800000D03*
X99500000Y-118700000D03*
X84500000Y-118300000D03*
X87300000Y-114500000D03*
X98000000Y-126300000D03*
X99100000Y-130400000D03*
X74000000Y-139000000D03*
X59000000Y-133600000D03*
X65300000Y-134200000D03*
X65200000Y-125000000D03*
X76627562Y-124952518D03*
X77000000Y-132100000D03*
X79000000Y-132000000D03*
X83531400Y-127464341D03*
X113500000Y-105800000D03*
X113600000Y-106700000D03*
X128700000Y-133400000D03*
X127900000Y-133400000D03*
X127100000Y-133400000D03*
X126300000Y-133400000D03*
X128700000Y-132600000D03*
X127900000Y-132600000D03*
X127100000Y-132600000D03*
X126300000Y-132600000D03*
X127650000Y-125400000D03*
X127650000Y-124400000D03*
X128650000Y-125400000D03*
X128650000Y-124400000D03*
X75100000Y-136000000D03*
X78800000Y-127000000D03*
X87500000Y-118800000D03*
X97900000Y-127600000D03*
X96300000Y-132900000D03*
X71500000Y-140200000D03*
X64100000Y-141400000D03*
X80000000Y-130000000D03*
X84600000Y-136600000D03*
X97200000Y-145600000D03*
X106000000Y-141200000D03*
X111300000Y-139300000D03*
X112300000Y-139200002D03*
X110400000Y-139200000D03*
X119700000Y-141900000D03*
X114153028Y-107966891D03*
X114600000Y-86900000D03*
X113500000Y-86800000D03*
X114700000Y-107000000D03*
X111100000Y-108700000D03*
X109700000Y-110000000D03*
X110400000Y-107600000D03*
X108800000Y-109500000D03*
X126400000Y-112500000D03*
X130000000Y-128000000D03*
X130900000Y-128000000D03*
X128400000Y-121900000D03*
X87400000Y-113619110D03*
X91700000Y-113000000D03*
X91200000Y-125500000D03*
X95601418Y-124204773D03*
X96400000Y-123400000D03*
X91438200Y-124495462D03*
X92200000Y-125000000D03*
X119600000Y-139000000D03*
X119600000Y-138100000D03*
X90500000Y-112900000D03*
X113003043Y-117571279D03*
X119400000Y-107400000D03*
X119400000Y-108300000D03*
X119400000Y-109200000D03*
X112400010Y-115800000D03*
X120600000Y-87200000D03*
X120600000Y-89000010D03*
X120600000Y-88100012D03*
X112400008Y-113300000D03*
X119400000Y-87199992D03*
X119400000Y-89000000D03*
X119400000Y-88100000D03*
X113100000Y-112400000D03*
X68800000Y-104500000D03*
X79800000Y-122100000D03*
X85499998Y-135500000D03*
X84200000Y-135300000D03*
X78700000Y-121900000D03*
X86600000Y-131500000D03*
X80500000Y-123400000D03*
X79867801Y-124636873D03*
X86800000Y-132400000D03*
X56200000Y-130200000D03*
X98600000Y-145400000D03*
X111200000Y-111800000D03*
X85400000Y-123600000D03*
X84300000Y-128300000D03*
X122700000Y-86300000D03*
X114900000Y-86000000D03*
X81186584Y-124496508D03*
X96000000Y-128300000D03*
X129000000Y-89900000D03*
X120100000Y-116000000D03*
X93000000Y-128000000D03*
X90431530Y-124394374D03*
X89500000Y-124500000D03*
X84300000Y-127100000D03*
X117077690Y-113620712D03*
X83702595Y-126206686D03*
X116700000Y-86000000D03*
X115800000Y-86100000D03*
X81195033Y-125334670D03*
D22*
X68800000Y-132900000D02*
X68800000Y-129500000D01*
X127700000Y-124450000D02*
X127700000Y-125349994D01*
X127700000Y-125349994D02*
X127699994Y-125350000D01*
X128600000Y-125350000D02*
X127699994Y-125350000D01*
X128600000Y-124450000D02*
X128600000Y-125350000D01*
X52000000Y-94000000D02*
X53053200Y-94000000D01*
X53053200Y-94000000D02*
X54500000Y-95446800D01*
X54500000Y-95446800D02*
X54500000Y-121700000D01*
X58900000Y-126100000D02*
X77900000Y-126100000D01*
X54500000Y-121700000D02*
X58900000Y-126100000D01*
X77900000Y-126100000D02*
X78800000Y-127000000D01*
X81000000Y-132600000D02*
X77600000Y-136000000D01*
X77600000Y-136000000D02*
X75100000Y-136000000D01*
X81000000Y-129200000D02*
X81000000Y-132600000D01*
X78800000Y-127000000D02*
X81000000Y-129200000D01*
D23*
X130900000Y-128000000D02*
X130000000Y-128000000D01*
X130900000Y-122500000D02*
X130900000Y-128000000D01*
X130300000Y-121900000D02*
X130900000Y-122500000D01*
X128400000Y-121900000D02*
X130300000Y-121900000D01*
D22*
X64421400Y-120266420D02*
X80374032Y-120266420D01*
X60147820Y-124540000D02*
X64421400Y-120266420D01*
X59810000Y-124540000D02*
X60147820Y-124540000D01*
X87021342Y-113619110D02*
X87400000Y-113619110D01*
X80374032Y-120266420D02*
X87021342Y-113619110D01*
X60147820Y-122000000D02*
X62284610Y-119863210D01*
X90900000Y-113800000D02*
X91382501Y-113317499D01*
X89000000Y-113000000D02*
X89800000Y-113800000D01*
X87070226Y-113000000D02*
X89000000Y-113000000D01*
X89800000Y-113800000D02*
X90900000Y-113800000D01*
X80207016Y-119863210D02*
X87070226Y-113000000D01*
X62284610Y-119863210D02*
X80207016Y-119863210D01*
X59810000Y-122000000D02*
X60147820Y-122000000D01*
X91382501Y-113317499D02*
X91700000Y-113000000D01*
X91200000Y-130700000D02*
X98600000Y-138100000D01*
X98600000Y-138100000D02*
X98600000Y-145400000D01*
X91200000Y-125500000D02*
X91200000Y-130700000D01*
X88400000Y-124578992D02*
X89207704Y-123771288D01*
X95167933Y-123771288D02*
X95283919Y-123887274D01*
X88400000Y-141900000D02*
X88400000Y-124578992D01*
X89207704Y-123771288D02*
X95167933Y-123771288D01*
X95283919Y-123887274D02*
X95601418Y-124204773D01*
X86200000Y-148404621D02*
X86200000Y-144100000D01*
X86200000Y-144100000D02*
X88400000Y-141900000D01*
X86200000Y-148404621D02*
X105630179Y-148404621D01*
X86200000Y-148404621D02*
X62369821Y-148404621D01*
X107034800Y-147000000D02*
X108000000Y-147000000D01*
X89221740Y-123182501D02*
X95733489Y-123182501D01*
X87900000Y-135000000D02*
X87900000Y-124504241D01*
X72000000Y-147000000D02*
X72965200Y-147000000D01*
X95733489Y-123182501D02*
X95950988Y-123400000D01*
X95950988Y-123400000D02*
X96400000Y-123400000D01*
X78293589Y-144606411D02*
X87900000Y-135000000D01*
X87900000Y-124504241D02*
X89221740Y-123182501D01*
X72965200Y-147000000D02*
X75358789Y-144606411D01*
X75358789Y-144606411D02*
X78293589Y-144606411D01*
X91755699Y-124177963D02*
X91438200Y-124495462D01*
X92322301Y-125898705D02*
X92822301Y-125398705D01*
X92822301Y-125398705D02*
X92822301Y-124701295D01*
X92822301Y-124701295D02*
X92298969Y-124177963D01*
X92298969Y-124177963D02*
X91755699Y-124177963D01*
X92322301Y-130122301D02*
X92322301Y-125898705D01*
X106900000Y-144700000D02*
X92322301Y-130122301D01*
X116734800Y-144700000D02*
X106900000Y-144700000D01*
X119034800Y-147000000D02*
X116734800Y-144700000D01*
X120000000Y-147000000D02*
X119034800Y-147000000D01*
X91882501Y-125317499D02*
X92200000Y-125000000D01*
X106688959Y-145188959D02*
X91882501Y-130382501D01*
X91882501Y-130382501D02*
X91882501Y-125317499D01*
X113223759Y-145188959D02*
X106688959Y-145188959D01*
X115034800Y-147000000D02*
X113223759Y-145188959D01*
X116000000Y-147000000D02*
X115034800Y-147000000D01*
X88000000Y-147000000D02*
X88000000Y-145696980D01*
X89500000Y-144196980D02*
X89500000Y-124500000D01*
X88000000Y-145696980D02*
X89500000Y-144196980D01*
X59810000Y-119460000D02*
X80040000Y-119460000D01*
X80040000Y-119460000D02*
X87000000Y-112500000D01*
X87000000Y-112500000D02*
X90100000Y-112500000D01*
X90100000Y-112500000D02*
X90182501Y-112582501D01*
X90182501Y-112582501D02*
X90500000Y-112900000D01*
D24*
X114581482Y-117571279D02*
X113003043Y-117571279D01*
X119400000Y-112752761D02*
X114581482Y-117571279D01*
X119400000Y-109200000D02*
X119400000Y-112752761D01*
D23*
X119400000Y-92249488D02*
X119400000Y-105700000D01*
X125000000Y-86649488D02*
X119400000Y-92249488D01*
X125000000Y-84000000D02*
X125000000Y-86649488D01*
X119400000Y-105700000D02*
X119400000Y-107400000D01*
X119400000Y-105700000D02*
X119400000Y-108300000D01*
X119400000Y-109200000D02*
X119400000Y-105700000D01*
D24*
X120600000Y-89000010D02*
X120282501Y-89317509D01*
X117995189Y-110204821D02*
X112400010Y-115800000D01*
X117995189Y-91732322D02*
X117995189Y-110204821D01*
X120282501Y-89445010D02*
X117995189Y-91732322D01*
X120282501Y-89317509D02*
X120282501Y-89445010D01*
X120600000Y-85800000D02*
X120660000Y-85800000D01*
X120660000Y-85800000D02*
X122460000Y-84000000D01*
X120600000Y-85800000D02*
X120600000Y-89000010D01*
X113149012Y-113300000D02*
X112400008Y-113300000D01*
X117591978Y-91565307D02*
X117591978Y-108857034D01*
X119400000Y-89000000D02*
X119400000Y-89757285D01*
X119400000Y-89757285D02*
X117591978Y-91565307D01*
X117591978Y-108857034D02*
X113149012Y-113300000D01*
D23*
X119400000Y-86200012D02*
X119400000Y-84520000D01*
X119400000Y-84520000D02*
X119920000Y-84000000D01*
X119400000Y-88100000D02*
X119400000Y-87199992D01*
X119400000Y-86200012D02*
X119400000Y-87199992D01*
X119400000Y-86200012D02*
X119400000Y-89000000D01*
D24*
X117188767Y-108311233D02*
X113100000Y-112400000D01*
X117380000Y-84000000D02*
X117380000Y-91207059D01*
X117188767Y-91398292D02*
X117188767Y-108311233D01*
X117380000Y-91207059D02*
X117188767Y-91398292D01*
D22*
X68800000Y-104500000D02*
X68800000Y-107700000D01*
X68800000Y-107700000D02*
X68540000Y-107960000D01*
X85499998Y-132125248D02*
X85499998Y-135500000D01*
X79106411Y-125731661D02*
X85499998Y-132125248D01*
X79800000Y-122100000D02*
X79106411Y-122793589D01*
X79106411Y-122793589D02*
X79106411Y-125731661D01*
X78700000Y-125900000D02*
X84200000Y-131400000D01*
X84200000Y-131400000D02*
X84200000Y-135300000D01*
X78700000Y-121900000D02*
X78700000Y-125900000D01*
X86150988Y-131500000D02*
X86600000Y-131500000D01*
X80500000Y-125849012D02*
X86150988Y-131500000D01*
X80500000Y-123400000D02*
X80500000Y-125849012D01*
X79867801Y-125916813D02*
X79867801Y-124636873D01*
X86800000Y-132400000D02*
X86350988Y-132400000D01*
X86350988Y-132400000D02*
X79867801Y-125916813D01*
X87487178Y-121512822D02*
X98836680Y-121512822D01*
X107563319Y-115436681D02*
X111200000Y-111800000D01*
X98836680Y-121512822D02*
X104912820Y-115436681D01*
X85400000Y-123600000D02*
X87487178Y-121512822D01*
X104912820Y-115436681D02*
X107563319Y-115436681D01*
X85117499Y-127482501D02*
X84300000Y-128300000D01*
X89091541Y-122732055D02*
X85117499Y-126706097D01*
X114730272Y-116850000D02*
X105223754Y-116850000D01*
X85117499Y-126706097D02*
X85117499Y-127482501D01*
X118400000Y-113180272D02*
X114730272Y-116850000D01*
X99341700Y-122732055D02*
X89091541Y-122732055D01*
X118400000Y-92100000D02*
X118400000Y-113180272D01*
X122700000Y-87800000D02*
X118400000Y-92100000D01*
X122700000Y-86300000D02*
X122700000Y-87800000D01*
X105223754Y-116850000D02*
X99341700Y-122732055D01*
X114900000Y-86278994D02*
X115600000Y-86978994D01*
X115600000Y-107400000D02*
X112400000Y-110600000D01*
X112400000Y-110600000D02*
X110900000Y-110600000D01*
X114900000Y-86000000D02*
X114900000Y-86278994D01*
X110900000Y-110600000D02*
X106900000Y-114600000D01*
X84983092Y-120700000D02*
X81186584Y-124496508D01*
X115600000Y-86978994D02*
X115600000Y-107400000D01*
X106900000Y-114600000D02*
X104600000Y-114600000D01*
X104600000Y-114600000D02*
X98500000Y-120700000D01*
X98500000Y-120700000D02*
X84983092Y-120700000D01*
X114531661Y-118193589D02*
X120225250Y-112500000D01*
X123100000Y-89900000D02*
X120225250Y-92774750D01*
X120225250Y-92774750D02*
X120225250Y-112500000D01*
X129000000Y-89900000D02*
X123100000Y-89900000D01*
X104531660Y-118193589D02*
X114531661Y-118193589D01*
X96000000Y-128300000D02*
X96000000Y-126725250D01*
X96000000Y-126725250D02*
X104531660Y-118193589D01*
X93000000Y-128000000D02*
X94006411Y-129006411D01*
X94006411Y-129006411D02*
X96393589Y-129006411D01*
X96393589Y-129006411D02*
X96700000Y-128700000D01*
X96700000Y-128700000D02*
X96700000Y-126600000D01*
X96700000Y-126600000D02*
X104700000Y-118600000D01*
X104700000Y-118600000D02*
X114700000Y-118600000D01*
X117300000Y-116000000D02*
X120100000Y-116000000D01*
X114700000Y-118600000D02*
X117300000Y-116000000D01*
X60965200Y-147000000D02*
X60000000Y-147000000D01*
X60965200Y-147000000D02*
X62369821Y-148404621D01*
X105630179Y-148404621D02*
X107034800Y-147000000D01*
X92000000Y-147000000D02*
X92800000Y-147800000D01*
X137630170Y-148404630D02*
X139034800Y-147000000D01*
X92800000Y-147800000D02*
X105353483Y-147800000D01*
X105353483Y-147800000D02*
X107558113Y-145595370D01*
X115558113Y-148404630D02*
X137630170Y-148404630D01*
X107558113Y-145595370D02*
X112748853Y-145595370D01*
X112748853Y-145595370D02*
X115558113Y-148404630D01*
X139034800Y-147000000D02*
X140000000Y-147000000D01*
X90431530Y-144128510D02*
X90431530Y-124394374D01*
X92000000Y-145696980D02*
X90431530Y-144128510D01*
X92000000Y-147000000D02*
X92000000Y-145696980D01*
X88625344Y-122325644D02*
X84300000Y-126650988D01*
X114254813Y-116443589D02*
X105055414Y-116443589D01*
X84300000Y-126650988D02*
X84300000Y-127100000D01*
X117077690Y-113620712D02*
X114254813Y-116443589D01*
X105055414Y-116443589D02*
X99173360Y-122325644D01*
X99173360Y-122325644D02*
X88625344Y-122325644D01*
X105019231Y-115905021D02*
X99005020Y-121919233D01*
X116700000Y-107849502D02*
X108644481Y-115905021D01*
X116700000Y-86000000D02*
X116700000Y-107849502D01*
X99005020Y-121919233D02*
X87990048Y-121919233D01*
X87990048Y-121919233D02*
X83702595Y-126206686D01*
X108644481Y-115905021D02*
X105019231Y-115905021D01*
X116117499Y-107857252D02*
X116117499Y-86417499D01*
X116117499Y-86417499D02*
X115800000Y-86100000D01*
X110968341Y-111106409D02*
X112868342Y-111106409D01*
X112868342Y-111106409D02*
X116117499Y-107857252D01*
X107068340Y-115006411D02*
X110968341Y-111106409D01*
X98668340Y-121106411D02*
X104768339Y-115006411D01*
X104768339Y-115006411D02*
X107068340Y-115006411D01*
X86968340Y-121106411D02*
X98668340Y-121106411D01*
X82740081Y-125334670D02*
X86968340Y-121106411D01*
X81195033Y-125334670D02*
X82740081Y-125334670D01*
D25*
G36*
X148488338Y-82821046D02*
X148902333Y-83097669D01*
X149178953Y-83511660D01*
X149290000Y-84069931D01*
X149290000Y-147930069D01*
X149178953Y-148488340D01*
X148902333Y-148902331D01*
X148488338Y-149178954D01*
X147930069Y-149290000D01*
X52069931Y-149290000D01*
X51511660Y-149178953D01*
X51097669Y-148902333D01*
X50821046Y-148488338D01*
X50710000Y-147930069D01*
X50710000Y-142551540D01*
X52214518Y-142551540D01*
X52637616Y-143575515D01*
X53420365Y-144359631D01*
X54443599Y-144784515D01*
X55551540Y-144785482D01*
X56575515Y-144362384D01*
X57359631Y-143579635D01*
X57784515Y-142556401D01*
X57785359Y-141588633D01*
X63147335Y-141588633D01*
X63292039Y-141938843D01*
X63559747Y-142207020D01*
X63909705Y-142352335D01*
X64288633Y-142352665D01*
X64638843Y-142207961D01*
X64907020Y-141940253D01*
X65052335Y-141590295D01*
X65052665Y-141211367D01*
X64907961Y-140861157D01*
X64640253Y-140592980D01*
X64290295Y-140447665D01*
X63911367Y-140447335D01*
X63561157Y-140592039D01*
X63292980Y-140859747D01*
X63147665Y-141209705D01*
X63147335Y-141588633D01*
X57785359Y-141588633D01*
X57785482Y-141448460D01*
X57362384Y-140424485D01*
X57326595Y-140388633D01*
X70547335Y-140388633D01*
X70692039Y-140738843D01*
X70959747Y-141007020D01*
X71309705Y-141152335D01*
X71688633Y-141152665D01*
X72038843Y-141007961D01*
X72307020Y-140740253D01*
X72452335Y-140390295D01*
X72452665Y-140011367D01*
X72307961Y-139661157D01*
X72040253Y-139392980D01*
X71690295Y-139247665D01*
X71311367Y-139247335D01*
X70961157Y-139392039D01*
X70692980Y-139659747D01*
X70547665Y-140009705D01*
X70547335Y-140388633D01*
X57326595Y-140388633D01*
X56579635Y-139640369D01*
X55556401Y-139215485D01*
X54448460Y-139214518D01*
X53424485Y-139637616D01*
X52640369Y-140420365D01*
X52215485Y-141443599D01*
X52214518Y-142551540D01*
X50710000Y-142551540D01*
X50710000Y-136023100D01*
X52875410Y-136023100D01*
X53123175Y-135973817D01*
X53188921Y-135929887D01*
X53232293Y-136147935D01*
X53372641Y-136357979D01*
X53582685Y-136498327D01*
X53830450Y-136547610D01*
X55229990Y-136547610D01*
X55477755Y-136498327D01*
X55687799Y-136357979D01*
X55828147Y-136147935D01*
X55877430Y-135900170D01*
X55877430Y-133901190D01*
X55828147Y-133653425D01*
X55687799Y-133443381D01*
X55477755Y-133303033D01*
X55229990Y-133253750D01*
X53830450Y-133253750D01*
X53582685Y-133303033D01*
X53372641Y-133443381D01*
X53280100Y-133581878D01*
X53123175Y-133477023D01*
X52875410Y-133427740D01*
X50710000Y-133427740D01*
X50710000Y-130572260D01*
X52875410Y-130572260D01*
X53123175Y-130522977D01*
X53280100Y-130418122D01*
X53372641Y-130556619D01*
X53582685Y-130696967D01*
X53830450Y-130746250D01*
X55229990Y-130746250D01*
X55382560Y-130715902D01*
X55392039Y-130738843D01*
X55659747Y-131007020D01*
X56009705Y-131152335D01*
X56388633Y-131152665D01*
X56738843Y-131007961D01*
X57007020Y-130740253D01*
X57152335Y-130390295D01*
X57152665Y-130011367D01*
X57019314Y-129688633D01*
X67847335Y-129688633D01*
X67992039Y-130038843D01*
X68063400Y-130110329D01*
X68063400Y-132289450D01*
X67992980Y-132359747D01*
X67847665Y-132709705D01*
X67847335Y-133088633D01*
X67992039Y-133438843D01*
X68259747Y-133707020D01*
X68609705Y-133852335D01*
X68988633Y-133852665D01*
X69338843Y-133707961D01*
X69607020Y-133440253D01*
X69752335Y-133090295D01*
X69752665Y-132711367D01*
X69607961Y-132361157D01*
X69536600Y-132289671D01*
X69536600Y-130110550D01*
X69607020Y-130040253D01*
X69752335Y-129690295D01*
X69752665Y-129311367D01*
X69607961Y-128961157D01*
X69340253Y-128692980D01*
X68990295Y-128547665D01*
X68611367Y-128547335D01*
X68261157Y-128692039D01*
X67992980Y-128959747D01*
X67847665Y-129309705D01*
X67847335Y-129688633D01*
X57019314Y-129688633D01*
X57007961Y-129661157D01*
X56740253Y-129392980D01*
X56390295Y-129247665D01*
X56011367Y-129247335D01*
X55877430Y-129302677D01*
X55877430Y-128099830D01*
X55828147Y-127852065D01*
X55687799Y-127642021D01*
X55477755Y-127501673D01*
X55229990Y-127452390D01*
X53830450Y-127452390D01*
X53582685Y-127501673D01*
X53372641Y-127642021D01*
X53232293Y-127852065D01*
X53188921Y-128070113D01*
X53123175Y-128026183D01*
X52875410Y-127976900D01*
X50710000Y-127976900D01*
X50710000Y-125319414D01*
X50774550Y-125438026D01*
X51200239Y-125782059D01*
X51725180Y-125937000D01*
X52063000Y-125937000D01*
X52063000Y-124667000D01*
X52317000Y-124667000D01*
X52317000Y-125937000D01*
X52654820Y-125937000D01*
X53179761Y-125782059D01*
X53605450Y-125438026D01*
X53867080Y-124957277D01*
X53882040Y-124883070D01*
X53759540Y-124667000D01*
X52317000Y-124667000D01*
X52063000Y-124667000D01*
X52043000Y-124667000D01*
X52043000Y-124413000D01*
X52063000Y-124413000D01*
X52063000Y-122127000D01*
X52043000Y-122127000D01*
X52043000Y-121873000D01*
X52063000Y-121873000D01*
X52063000Y-119587000D01*
X52043000Y-119587000D01*
X52043000Y-119333000D01*
X52063000Y-119333000D01*
X52063000Y-118063000D01*
X51725180Y-118063000D01*
X51200239Y-118217941D01*
X50774550Y-118561974D01*
X50710000Y-118680586D01*
X50710000Y-115054489D01*
X50920853Y-115370054D01*
X51402622Y-115691961D01*
X51970907Y-115805000D01*
X52029093Y-115805000D01*
X52597378Y-115691961D01*
X53079147Y-115370054D01*
X53401054Y-114888285D01*
X53514093Y-114320000D01*
X53401054Y-113751715D01*
X53079147Y-113269946D01*
X52738447Y-113042298D01*
X52881358Y-112975183D01*
X53271645Y-112546924D01*
X53441476Y-112136890D01*
X53320155Y-111907000D01*
X52127000Y-111907000D01*
X52127000Y-111927000D01*
X51873000Y-111927000D01*
X51873000Y-111907000D01*
X51853000Y-111907000D01*
X51853000Y-111653000D01*
X51873000Y-111653000D01*
X51873000Y-111633000D01*
X52127000Y-111633000D01*
X52127000Y-111653000D01*
X53320155Y-111653000D01*
X53441476Y-111423110D01*
X53271645Y-111013076D01*
X52881358Y-110584817D01*
X52738447Y-110517702D01*
X53079147Y-110290054D01*
X53401054Y-109808285D01*
X53514093Y-109240000D01*
X53401054Y-108671715D01*
X53079147Y-108189946D01*
X52749974Y-107970000D01*
X53079147Y-107750054D01*
X53401054Y-107268285D01*
X53514093Y-106700000D01*
X53401054Y-106131715D01*
X53079147Y-105649946D01*
X52749974Y-105430000D01*
X53079147Y-105210054D01*
X53401054Y-104728285D01*
X53514093Y-104160000D01*
X53401054Y-103591715D01*
X53079147Y-103109946D01*
X52749974Y-102890000D01*
X53079147Y-102670054D01*
X53401054Y-102188285D01*
X53514093Y-101620000D01*
X53401054Y-101051715D01*
X53079147Y-100569946D01*
X52749974Y-100350000D01*
X53079147Y-100130054D01*
X53401054Y-99648285D01*
X53514093Y-99080000D01*
X53401054Y-98511715D01*
X53079147Y-98029946D01*
X52749974Y-97810000D01*
X53079147Y-97590054D01*
X53401054Y-97108285D01*
X53514093Y-96540000D01*
X53401054Y-95971715D01*
X53079147Y-95489946D01*
X53035223Y-95460597D01*
X53097765Y-95448157D01*
X53307809Y-95307809D01*
X53312411Y-95300921D01*
X53763400Y-95751910D01*
X53763400Y-118852209D01*
X53605450Y-118561974D01*
X53179761Y-118217941D01*
X52654820Y-118063000D01*
X52317000Y-118063000D01*
X52317000Y-119333000D01*
X52337000Y-119333000D01*
X52337000Y-119587000D01*
X52317000Y-119587000D01*
X52317000Y-121873000D01*
X52337000Y-121873000D01*
X52337000Y-122127000D01*
X52317000Y-122127000D01*
X52317000Y-124413000D01*
X53759540Y-124413000D01*
X53882040Y-124196930D01*
X53867080Y-124122723D01*
X53605450Y-123641974D01*
X53179761Y-123297941D01*
X53085097Y-123270000D01*
X53179761Y-123242059D01*
X53605450Y-122898026D01*
X53867080Y-122417277D01*
X53882040Y-122343070D01*
X53759541Y-122127002D01*
X53916434Y-122127002D01*
X53979145Y-122220855D01*
X58379145Y-126620855D01*
X58618115Y-126780530D01*
X58900000Y-126836600D01*
X77594890Y-126836600D01*
X77847422Y-127089132D01*
X77847335Y-127188633D01*
X77992039Y-127538843D01*
X78259747Y-127807020D01*
X78609705Y-127952335D01*
X78710713Y-127952423D01*
X79807304Y-129049014D01*
X79461157Y-129192039D01*
X79192980Y-129459747D01*
X79047665Y-129809705D01*
X79047335Y-130188633D01*
X79192039Y-130538843D01*
X79459747Y-130807020D01*
X79809705Y-130952335D01*
X80188633Y-130952665D01*
X80263400Y-130921772D01*
X80263400Y-132294890D01*
X77294890Y-135263400D01*
X75710550Y-135263400D01*
X75640253Y-135192980D01*
X75290295Y-135047665D01*
X74911367Y-135047335D01*
X74561157Y-135192039D01*
X74292980Y-135459747D01*
X74147665Y-135809705D01*
X74147335Y-136188633D01*
X74292039Y-136538843D01*
X74559747Y-136807020D01*
X74909705Y-136952335D01*
X75288633Y-136952665D01*
X75638843Y-136807961D01*
X75710329Y-136736600D01*
X77600000Y-136736600D01*
X77881885Y-136680530D01*
X78120855Y-136520855D01*
X81520855Y-133120855D01*
X81680530Y-132881885D01*
X81736600Y-132600000D01*
X81736600Y-129978310D01*
X83463400Y-131705110D01*
X83463400Y-134689450D01*
X83392980Y-134759747D01*
X83247665Y-135109705D01*
X83247335Y-135488633D01*
X83392039Y-135838843D01*
X83659747Y-136107020D01*
X83756644Y-136147255D01*
X83647665Y-136409705D01*
X83647335Y-136788633D01*
X83792039Y-137138843D01*
X84059747Y-137407020D01*
X84336396Y-137521894D01*
X77988479Y-143869811D01*
X75358789Y-143869811D01*
X75076904Y-143925881D01*
X74837934Y-144085556D01*
X73106108Y-145817382D01*
X72987828Y-145640365D01*
X72534609Y-145337533D01*
X72000000Y-145231193D01*
X71465391Y-145337533D01*
X71012172Y-145640365D01*
X70709340Y-146093584D01*
X70603000Y-146628193D01*
X70603000Y-147371807D01*
X70661920Y-147668021D01*
X69338080Y-147668021D01*
X69397000Y-147371807D01*
X69397000Y-146628193D01*
X69290660Y-146093584D01*
X68987828Y-145640365D01*
X68534609Y-145337533D01*
X68000000Y-145231193D01*
X67465391Y-145337533D01*
X67012172Y-145640365D01*
X66709340Y-146093584D01*
X66603000Y-146628193D01*
X66603000Y-147371807D01*
X66661920Y-147668021D01*
X65338080Y-147668021D01*
X65397000Y-147371807D01*
X65397000Y-146628193D01*
X65290660Y-146093584D01*
X64987828Y-145640365D01*
X64534609Y-145337533D01*
X64000000Y-145231193D01*
X63465391Y-145337533D01*
X63012172Y-145640365D01*
X62709340Y-146093584D01*
X62603000Y-146628193D01*
X62603000Y-147371807D01*
X62658690Y-147651780D01*
X61486055Y-146479145D01*
X61349158Y-146387673D01*
X61290660Y-146093584D01*
X60987828Y-145640365D01*
X60534609Y-145337533D01*
X60000000Y-145231193D01*
X59465391Y-145337533D01*
X59012172Y-145640365D01*
X58709340Y-146093584D01*
X58603000Y-146628193D01*
X58603000Y-147371807D01*
X58709340Y-147906416D01*
X59012172Y-148359635D01*
X59465391Y-148662467D01*
X60000000Y-148768807D01*
X60534609Y-148662467D01*
X60987828Y-148359635D01*
X61106108Y-148182618D01*
X61848966Y-148925476D01*
X62087936Y-149085151D01*
X62369821Y-149141221D01*
X105630179Y-149141221D01*
X105912064Y-149085151D01*
X106151034Y-148925476D01*
X106893892Y-148182618D01*
X107012172Y-148359635D01*
X107465391Y-148662467D01*
X108000000Y-148768807D01*
X108534609Y-148662467D01*
X108987828Y-148359635D01*
X109290660Y-147906416D01*
X109397000Y-147371807D01*
X109397000Y-146628193D01*
X109338078Y-146331970D01*
X110661922Y-146331970D01*
X110603000Y-146628193D01*
X110603000Y-147371807D01*
X110709340Y-147906416D01*
X111012172Y-148359635D01*
X111465391Y-148662467D01*
X112000000Y-148768807D01*
X112534609Y-148662467D01*
X112987828Y-148359635D01*
X113290660Y-147906416D01*
X113397000Y-147371807D01*
X113397000Y-147285227D01*
X115037258Y-148925485D01*
X115276228Y-149085160D01*
X115558113Y-149141230D01*
X137630170Y-149141230D01*
X137912055Y-149085160D01*
X138151025Y-148925485D01*
X138675524Y-148400986D01*
X138780191Y-148557629D01*
X138990235Y-148697977D01*
X139238000Y-148747260D01*
X140762000Y-148747260D01*
X141009765Y-148697977D01*
X141219809Y-148557629D01*
X141360157Y-148347585D01*
X141409440Y-148099820D01*
X141409440Y-145900180D01*
X141360157Y-145652415D01*
X141219809Y-145442371D01*
X141009765Y-145302023D01*
X140762000Y-145252740D01*
X139238000Y-145252740D01*
X138990235Y-145302023D01*
X138780191Y-145442371D01*
X138639843Y-145652415D01*
X138590560Y-145900180D01*
X138590560Y-146427952D01*
X138582138Y-146433580D01*
X138513945Y-146479145D01*
X137341310Y-147651780D01*
X137397000Y-147371807D01*
X137397000Y-146628193D01*
X137290660Y-146093584D01*
X136987828Y-145640365D01*
X136534609Y-145337533D01*
X136000000Y-145231193D01*
X135465391Y-145337533D01*
X135012172Y-145640365D01*
X134709340Y-146093584D01*
X134603000Y-146628193D01*
X134603000Y-147371807D01*
X134661922Y-147668030D01*
X133338078Y-147668030D01*
X133397000Y-147371807D01*
X133397000Y-146628193D01*
X133290660Y-146093584D01*
X132987828Y-145640365D01*
X132534609Y-145337533D01*
X132000000Y-145231193D01*
X131465391Y-145337533D01*
X131012172Y-145640365D01*
X130709340Y-146093584D01*
X130603000Y-146628193D01*
X130603000Y-147371807D01*
X130661922Y-147668030D01*
X129337021Y-147668030D01*
X129397000Y-147464820D01*
X129397000Y-147127000D01*
X128127000Y-147127000D01*
X128127000Y-147147000D01*
X127873000Y-147147000D01*
X127873000Y-147127000D01*
X126603000Y-147127000D01*
X126603000Y-147464820D01*
X126662979Y-147668030D01*
X125338078Y-147668030D01*
X125397000Y-147371807D01*
X125397000Y-146628193D01*
X125378499Y-146535180D01*
X126603000Y-146535180D01*
X126603000Y-146873000D01*
X127873000Y-146873000D01*
X127873000Y-145430460D01*
X128127000Y-145430460D01*
X128127000Y-146873000D01*
X129397000Y-146873000D01*
X129397000Y-146535180D01*
X129242059Y-146010239D01*
X128898026Y-145584550D01*
X128417277Y-145322920D01*
X128343070Y-145307960D01*
X128127000Y-145430460D01*
X127873000Y-145430460D01*
X127656930Y-145307960D01*
X127582723Y-145322920D01*
X127101974Y-145584550D01*
X126757941Y-146010239D01*
X126603000Y-146535180D01*
X125378499Y-146535180D01*
X125290660Y-146093584D01*
X124987828Y-145640365D01*
X124534609Y-145337533D01*
X124000000Y-145231193D01*
X123465391Y-145337533D01*
X123012172Y-145640365D01*
X122709340Y-146093584D01*
X122603000Y-146628193D01*
X122603000Y-147371807D01*
X122661922Y-147668030D01*
X121338078Y-147668030D01*
X121397000Y-147371807D01*
X121397000Y-146628193D01*
X121290660Y-146093584D01*
X120987828Y-145640365D01*
X120534609Y-145337533D01*
X120000000Y-145231193D01*
X119465391Y-145337533D01*
X119012172Y-145640365D01*
X118893892Y-145817382D01*
X117255655Y-144179145D01*
X117016685Y-144019470D01*
X116734800Y-143963400D01*
X107205110Y-143963400D01*
X104630343Y-141388633D01*
X105047335Y-141388633D01*
X105192039Y-141738843D01*
X105459747Y-142007020D01*
X105809705Y-142152335D01*
X106188633Y-142152665D01*
X106343602Y-142088633D01*
X118747335Y-142088633D01*
X118892039Y-142438843D01*
X119159747Y-142707020D01*
X119509705Y-142852335D01*
X119888633Y-142852665D01*
X120238843Y-142707961D01*
X120507020Y-142440253D01*
X120652335Y-142090295D01*
X120652665Y-141711367D01*
X120507961Y-141361157D01*
X120240253Y-141092980D01*
X119890295Y-140947665D01*
X119511367Y-140947335D01*
X119161157Y-141092039D01*
X118892980Y-141359747D01*
X118747665Y-141709705D01*
X118747335Y-142088633D01*
X106343602Y-142088633D01*
X106538843Y-142007961D01*
X106807020Y-141740253D01*
X106952335Y-141390295D01*
X106952665Y-141011367D01*
X106807961Y-140661157D01*
X106540253Y-140392980D01*
X106487096Y-140370907D01*
X123835000Y-140370907D01*
X123835000Y-140429093D01*
X123948039Y-140997378D01*
X124269946Y-141479147D01*
X124555578Y-141670000D01*
X124269946Y-141860853D01*
X123948039Y-142342622D01*
X123835000Y-142910907D01*
X123835000Y-142969093D01*
X123948039Y-143537378D01*
X124269946Y-144019147D01*
X124751715Y-144341054D01*
X125320000Y-144454093D01*
X125888285Y-144341054D01*
X126370054Y-144019147D01*
X126590000Y-143689974D01*
X126809946Y-144019147D01*
X127291715Y-144341054D01*
X127860000Y-144454093D01*
X128428285Y-144341054D01*
X128910054Y-144019147D01*
X129130000Y-143689974D01*
X129349946Y-144019147D01*
X129831715Y-144341054D01*
X130400000Y-144454093D01*
X130968285Y-144341054D01*
X131450054Y-144019147D01*
X131771961Y-143537378D01*
X131885000Y-142969093D01*
X131885000Y-142910907D01*
X131813518Y-142551540D01*
X142214518Y-142551540D01*
X142637616Y-143575515D01*
X143420365Y-144359631D01*
X144443599Y-144784515D01*
X145551540Y-144785482D01*
X146575515Y-144362384D01*
X147359631Y-143579635D01*
X147784515Y-142556401D01*
X147785482Y-141448460D01*
X147362384Y-140424485D01*
X146579635Y-139640369D01*
X145556401Y-139215485D01*
X144448460Y-139214518D01*
X143424485Y-139637616D01*
X142640369Y-140420365D01*
X142215485Y-141443599D01*
X142214518Y-142551540D01*
X131813518Y-142551540D01*
X131771961Y-142342622D01*
X131450054Y-141860853D01*
X131446357Y-141858383D01*
X131497765Y-141848157D01*
X131707809Y-141707809D01*
X131848157Y-141497765D01*
X131897440Y-141250000D01*
X131897440Y-139550000D01*
X131848157Y-139302235D01*
X131707809Y-139092191D01*
X131497765Y-138951843D01*
X131250000Y-138902560D01*
X129550000Y-138902560D01*
X129302235Y-138951843D01*
X129092191Y-139092191D01*
X128951843Y-139302235D01*
X128939403Y-139364777D01*
X128910054Y-139320853D01*
X128428285Y-138998946D01*
X127860000Y-138885907D01*
X127291715Y-138998946D01*
X126809946Y-139320853D01*
X126590000Y-139650026D01*
X126370054Y-139320853D01*
X125888285Y-138998946D01*
X125320000Y-138885907D01*
X124751715Y-138998946D01*
X124269946Y-139320853D01*
X123948039Y-139802622D01*
X123835000Y-140370907D01*
X106487096Y-140370907D01*
X106190295Y-140247665D01*
X105811367Y-140247335D01*
X105461157Y-140392039D01*
X105192980Y-140659747D01*
X105047665Y-141009705D01*
X105047335Y-141388633D01*
X104630343Y-141388633D01*
X102630343Y-139388633D01*
X109447335Y-139388633D01*
X109592039Y-139738843D01*
X109859747Y-140007020D01*
X110209705Y-140152335D01*
X110588633Y-140152665D01*
X110742038Y-140089279D01*
X110759747Y-140107020D01*
X111109705Y-140252335D01*
X111488633Y-140252665D01*
X111838843Y-140107961D01*
X111887019Y-140059870D01*
X112109705Y-140152337D01*
X112488633Y-140152667D01*
X112838843Y-140007963D01*
X113107020Y-139740255D01*
X113252335Y-139390297D01*
X113252665Y-139011369D01*
X113107961Y-138661159D01*
X112840253Y-138392982D01*
X112588953Y-138288633D01*
X118647335Y-138288633D01*
X118755417Y-138550210D01*
X118647665Y-138809705D01*
X118647335Y-139188633D01*
X118792039Y-139538843D01*
X119059747Y-139807020D01*
X119409705Y-139952335D01*
X119788633Y-139952665D01*
X120138843Y-139807961D01*
X120407020Y-139540253D01*
X120552335Y-139190295D01*
X120552665Y-138811367D01*
X120444583Y-138549790D01*
X120552335Y-138290295D01*
X120552665Y-137911367D01*
X120407961Y-137561157D01*
X120140253Y-137292980D01*
X119790295Y-137147665D01*
X119411367Y-137147335D01*
X119061157Y-137292039D01*
X118792980Y-137559747D01*
X118647665Y-137909705D01*
X118647335Y-138288633D01*
X112588953Y-138288633D01*
X112490295Y-138247667D01*
X112111367Y-138247337D01*
X111761157Y-138392041D01*
X111712981Y-138440132D01*
X111490295Y-138347665D01*
X111111367Y-138347335D01*
X110957962Y-138410721D01*
X110940253Y-138392980D01*
X110590295Y-138247665D01*
X110211367Y-138247335D01*
X109861157Y-138392039D01*
X109592980Y-138659747D01*
X109447665Y-139009705D01*
X109447335Y-139388633D01*
X102630343Y-139388633D01*
X96894305Y-133652595D01*
X97107020Y-133440253D01*
X97252335Y-133090295D01*
X97252665Y-132711367D01*
X97107961Y-132361157D01*
X96840253Y-132092980D01*
X96490295Y-131947665D01*
X96111367Y-131947335D01*
X95761157Y-132092039D01*
X95547266Y-132305556D01*
X93058901Y-129817191D01*
X93058901Y-129100611D01*
X93485556Y-129527266D01*
X93724526Y-129686941D01*
X94006411Y-129743011D01*
X96393589Y-129743011D01*
X96675474Y-129686941D01*
X96914444Y-129527266D01*
X97220855Y-129220855D01*
X97234790Y-129200000D01*
X97380530Y-128981885D01*
X97436600Y-128700000D01*
X97436600Y-128438932D01*
X97709705Y-128552335D01*
X98088633Y-128552665D01*
X98438843Y-128407961D01*
X98707020Y-128140253D01*
X98852335Y-127790295D01*
X98852665Y-127411367D01*
X98707961Y-127061157D01*
X98440253Y-126792980D01*
X98090295Y-126647665D01*
X97711367Y-126647335D01*
X97682410Y-126659300D01*
X102441710Y-121900000D01*
X127257000Y-121900000D01*
X127344006Y-122337407D01*
X127591777Y-122708223D01*
X127962593Y-122955994D01*
X128400000Y-123043000D01*
X129757000Y-123043000D01*
X129757000Y-126905336D01*
X129562593Y-126944006D01*
X129191777Y-127191777D01*
X128944006Y-127562593D01*
X128857000Y-128000000D01*
X128944006Y-128437407D01*
X129191777Y-128808223D01*
X129562593Y-129055994D01*
X130000000Y-129143000D01*
X130900000Y-129143000D01*
X131337407Y-129055994D01*
X131708223Y-128808223D01*
X131955994Y-128437407D01*
X132043000Y-128000000D01*
X132043000Y-123592521D01*
X138764570Y-123592521D01*
X138764570Y-126207479D01*
X138888988Y-126832971D01*
X139243301Y-127363238D01*
X139773568Y-127717551D01*
X140399060Y-127841969D01*
X141024552Y-127717551D01*
X141554819Y-127363238D01*
X141909132Y-126832971D01*
X142033550Y-126207479D01*
X142033550Y-125027000D01*
X144766590Y-125027000D01*
X144766590Y-126027760D01*
X144939609Y-126643585D01*
X145335124Y-127146322D01*
X145892921Y-127459433D01*
X146020726Y-127490379D01*
X146274080Y-127371025D01*
X146274080Y-125027000D01*
X146528080Y-125027000D01*
X146528080Y-127371025D01*
X146781434Y-127490379D01*
X146909239Y-127459433D01*
X147467036Y-127146322D01*
X147862551Y-126643585D01*
X148035570Y-126027760D01*
X148035570Y-125027000D01*
X146528080Y-125027000D01*
X146274080Y-125027000D01*
X144766590Y-125027000D01*
X142033550Y-125027000D01*
X142033550Y-123772240D01*
X144766590Y-123772240D01*
X144766590Y-124773000D01*
X146274080Y-124773000D01*
X146274080Y-122428975D01*
X146528080Y-122428975D01*
X146528080Y-124773000D01*
X148035570Y-124773000D01*
X148035570Y-123772240D01*
X147862551Y-123156415D01*
X147467036Y-122653678D01*
X146909239Y-122340567D01*
X146781434Y-122309621D01*
X146528080Y-122428975D01*
X146274080Y-122428975D01*
X146020726Y-122309621D01*
X145892921Y-122340567D01*
X145335124Y-122653678D01*
X144939609Y-123156415D01*
X144766590Y-123772240D01*
X142033550Y-123772240D01*
X142033550Y-123592521D01*
X141909132Y-122967029D01*
X141554819Y-122436762D01*
X141024552Y-122082449D01*
X140399060Y-121958031D01*
X139773568Y-122082449D01*
X139243301Y-122436762D01*
X138888988Y-122967029D01*
X138764570Y-123592521D01*
X132043000Y-123592521D01*
X132043000Y-122500000D01*
X131955994Y-122062593D01*
X131708223Y-121691777D01*
X131108223Y-121091777D01*
X130737407Y-120844006D01*
X130300000Y-120757000D01*
X128400000Y-120757000D01*
X127962593Y-120844006D01*
X127591777Y-121091777D01*
X127344006Y-121462593D01*
X127257000Y-121900000D01*
X102441710Y-121900000D01*
X104742690Y-119599020D01*
X140463002Y-119599020D01*
X140587420Y-120224512D01*
X140941733Y-120754779D01*
X141472000Y-121109092D01*
X142097492Y-121233510D01*
X144202268Y-121233510D01*
X144827760Y-121109092D01*
X145358027Y-120754779D01*
X145712340Y-120224512D01*
X145836758Y-119599020D01*
X145712340Y-118973528D01*
X145358027Y-118443261D01*
X144827760Y-118088948D01*
X144202268Y-117964530D01*
X142097492Y-117964530D01*
X141472000Y-118088948D01*
X140941733Y-118443261D01*
X140587420Y-118973528D01*
X140463002Y-119599020D01*
X104742690Y-119599020D01*
X105005110Y-119336600D01*
X114700000Y-119336600D01*
X114981885Y-119280530D01*
X115220855Y-119120855D01*
X117605110Y-116736600D01*
X119489450Y-116736600D01*
X119559747Y-116807020D01*
X119909705Y-116952335D01*
X120288633Y-116952665D01*
X120638843Y-116807961D01*
X120907020Y-116540253D01*
X121052335Y-116190295D01*
X121052665Y-115811367D01*
X120907961Y-115461157D01*
X120640253Y-115192980D01*
X120290295Y-115047665D01*
X119911367Y-115047335D01*
X119561157Y-115192039D01*
X119489671Y-115263400D01*
X118503560Y-115263400D01*
X120746105Y-113020855D01*
X120794759Y-112948039D01*
X120905780Y-112781885D01*
X120924328Y-112688633D01*
X125447335Y-112688633D01*
X125592039Y-113038843D01*
X125859747Y-113307020D01*
X126209705Y-113452335D01*
X126588633Y-113452665D01*
X126938843Y-113307961D01*
X127207020Y-113040253D01*
X127352335Y-112690295D01*
X127352665Y-112311367D01*
X127207961Y-111961157D01*
X126940253Y-111692980D01*
X126590295Y-111547665D01*
X126211367Y-111547335D01*
X125861157Y-111692039D01*
X125592980Y-111959747D01*
X125447665Y-112309705D01*
X125447335Y-112688633D01*
X120924328Y-112688633D01*
X120961850Y-112500000D01*
X120961850Y-93079860D01*
X123405110Y-90636600D01*
X128389450Y-90636600D01*
X128459747Y-90707020D01*
X128809705Y-90852335D01*
X129188633Y-90852665D01*
X129538843Y-90707961D01*
X129807020Y-90440253D01*
X129952335Y-90090295D01*
X129952665Y-89711367D01*
X129807961Y-89361157D01*
X129540253Y-89092980D01*
X129190295Y-88947665D01*
X128811367Y-88947335D01*
X128461157Y-89092039D01*
X128389671Y-89163400D01*
X124102534Y-89163400D01*
X125714394Y-87551540D01*
X142214518Y-87551540D01*
X142637616Y-88575515D01*
X143420365Y-89359631D01*
X144443599Y-89784515D01*
X145551540Y-89785482D01*
X146575515Y-89362384D01*
X147359631Y-88579635D01*
X147784515Y-87556401D01*
X147785482Y-86448460D01*
X147362384Y-85424485D01*
X146579635Y-84640369D01*
X145556401Y-84215485D01*
X144448460Y-84214518D01*
X143424485Y-84637616D01*
X142640369Y-85420365D01*
X142215485Y-86443599D01*
X142214518Y-87551540D01*
X125714394Y-87551540D01*
X125808223Y-87457711D01*
X126055994Y-87086895D01*
X126143000Y-86649488D01*
X126143000Y-85417932D01*
X126307809Y-85307809D01*
X126448157Y-85097765D01*
X126497440Y-84850000D01*
X126497440Y-83150000D01*
X126448157Y-82902235D01*
X126319709Y-82710000D01*
X147930069Y-82710000D01*
X148488338Y-82821046D01*
X148488338Y-82821046D01*
G37*
X148488338Y-82821046D02*
X148902333Y-83097669D01*
X149178953Y-83511660D01*
X149290000Y-84069931D01*
X149290000Y-147930069D01*
X149178953Y-148488340D01*
X148902333Y-148902331D01*
X148488338Y-149178954D01*
X147930069Y-149290000D01*
X52069931Y-149290000D01*
X51511660Y-149178953D01*
X51097669Y-148902333D01*
X50821046Y-148488338D01*
X50710000Y-147930069D01*
X50710000Y-142551540D01*
X52214518Y-142551540D01*
X52637616Y-143575515D01*
X53420365Y-144359631D01*
X54443599Y-144784515D01*
X55551540Y-144785482D01*
X56575515Y-144362384D01*
X57359631Y-143579635D01*
X57784515Y-142556401D01*
X57785359Y-141588633D01*
X63147335Y-141588633D01*
X63292039Y-141938843D01*
X63559747Y-142207020D01*
X63909705Y-142352335D01*
X64288633Y-142352665D01*
X64638843Y-142207961D01*
X64907020Y-141940253D01*
X65052335Y-141590295D01*
X65052665Y-141211367D01*
X64907961Y-140861157D01*
X64640253Y-140592980D01*
X64290295Y-140447665D01*
X63911367Y-140447335D01*
X63561157Y-140592039D01*
X63292980Y-140859747D01*
X63147665Y-141209705D01*
X63147335Y-141588633D01*
X57785359Y-141588633D01*
X57785482Y-141448460D01*
X57362384Y-140424485D01*
X57326595Y-140388633D01*
X70547335Y-140388633D01*
X70692039Y-140738843D01*
X70959747Y-141007020D01*
X71309705Y-141152335D01*
X71688633Y-141152665D01*
X72038843Y-141007961D01*
X72307020Y-140740253D01*
X72452335Y-140390295D01*
X72452665Y-140011367D01*
X72307961Y-139661157D01*
X72040253Y-139392980D01*
X71690295Y-139247665D01*
X71311367Y-139247335D01*
X70961157Y-139392039D01*
X70692980Y-139659747D01*
X70547665Y-140009705D01*
X70547335Y-140388633D01*
X57326595Y-140388633D01*
X56579635Y-139640369D01*
X55556401Y-139215485D01*
X54448460Y-139214518D01*
X53424485Y-139637616D01*
X52640369Y-140420365D01*
X52215485Y-141443599D01*
X52214518Y-142551540D01*
X50710000Y-142551540D01*
X50710000Y-136023100D01*
X52875410Y-136023100D01*
X53123175Y-135973817D01*
X53188921Y-135929887D01*
X53232293Y-136147935D01*
X53372641Y-136357979D01*
X53582685Y-136498327D01*
X53830450Y-136547610D01*
X55229990Y-136547610D01*
X55477755Y-136498327D01*
X55687799Y-136357979D01*
X55828147Y-136147935D01*
X55877430Y-135900170D01*
X55877430Y-133901190D01*
X55828147Y-133653425D01*
X55687799Y-133443381D01*
X55477755Y-133303033D01*
X55229990Y-133253750D01*
X53830450Y-133253750D01*
X53582685Y-133303033D01*
X53372641Y-133443381D01*
X53280100Y-133581878D01*
X53123175Y-133477023D01*
X52875410Y-133427740D01*
X50710000Y-133427740D01*
X50710000Y-130572260D01*
X52875410Y-130572260D01*
X53123175Y-130522977D01*
X53280100Y-130418122D01*
X53372641Y-130556619D01*
X53582685Y-130696967D01*
X53830450Y-130746250D01*
X55229990Y-130746250D01*
X55382560Y-130715902D01*
X55392039Y-130738843D01*
X55659747Y-131007020D01*
X56009705Y-131152335D01*
X56388633Y-131152665D01*
X56738843Y-131007961D01*
X57007020Y-130740253D01*
X57152335Y-130390295D01*
X57152665Y-130011367D01*
X57019314Y-129688633D01*
X67847335Y-129688633D01*
X67992039Y-130038843D01*
X68063400Y-130110329D01*
X68063400Y-132289450D01*
X67992980Y-132359747D01*
X67847665Y-132709705D01*
X67847335Y-133088633D01*
X67992039Y-133438843D01*
X68259747Y-133707020D01*
X68609705Y-133852335D01*
X68988633Y-133852665D01*
X69338843Y-133707961D01*
X69607020Y-133440253D01*
X69752335Y-133090295D01*
X69752665Y-132711367D01*
X69607961Y-132361157D01*
X69536600Y-132289671D01*
X69536600Y-130110550D01*
X69607020Y-130040253D01*
X69752335Y-129690295D01*
X69752665Y-129311367D01*
X69607961Y-128961157D01*
X69340253Y-128692980D01*
X68990295Y-128547665D01*
X68611367Y-128547335D01*
X68261157Y-128692039D01*
X67992980Y-128959747D01*
X67847665Y-129309705D01*
X67847335Y-129688633D01*
X57019314Y-129688633D01*
X57007961Y-129661157D01*
X56740253Y-129392980D01*
X56390295Y-129247665D01*
X56011367Y-129247335D01*
X55877430Y-129302677D01*
X55877430Y-128099830D01*
X55828147Y-127852065D01*
X55687799Y-127642021D01*
X55477755Y-127501673D01*
X55229990Y-127452390D01*
X53830450Y-127452390D01*
X53582685Y-127501673D01*
X53372641Y-127642021D01*
X53232293Y-127852065D01*
X53188921Y-128070113D01*
X53123175Y-128026183D01*
X52875410Y-127976900D01*
X50710000Y-127976900D01*
X50710000Y-125319414D01*
X50774550Y-125438026D01*
X51200239Y-125782059D01*
X51725180Y-125937000D01*
X52063000Y-125937000D01*
X52063000Y-124667000D01*
X52317000Y-124667000D01*
X52317000Y-125937000D01*
X52654820Y-125937000D01*
X53179761Y-125782059D01*
X53605450Y-125438026D01*
X53867080Y-124957277D01*
X53882040Y-124883070D01*
X53759540Y-124667000D01*
X52317000Y-124667000D01*
X52063000Y-124667000D01*
X52043000Y-124667000D01*
X52043000Y-124413000D01*
X52063000Y-124413000D01*
X52063000Y-122127000D01*
X52043000Y-122127000D01*
X52043000Y-121873000D01*
X52063000Y-121873000D01*
X52063000Y-119587000D01*
X52043000Y-119587000D01*
X52043000Y-119333000D01*
X52063000Y-119333000D01*
X52063000Y-118063000D01*
X51725180Y-118063000D01*
X51200239Y-118217941D01*
X50774550Y-118561974D01*
X50710000Y-118680586D01*
X50710000Y-115054489D01*
X50920853Y-115370054D01*
X51402622Y-115691961D01*
X51970907Y-115805000D01*
X52029093Y-115805000D01*
X52597378Y-115691961D01*
X53079147Y-115370054D01*
X53401054Y-114888285D01*
X53514093Y-114320000D01*
X53401054Y-113751715D01*
X53079147Y-113269946D01*
X52738447Y-113042298D01*
X52881358Y-112975183D01*
X53271645Y-112546924D01*
X53441476Y-112136890D01*
X53320155Y-111907000D01*
X52127000Y-111907000D01*
X52127000Y-111927000D01*
X51873000Y-111927000D01*
X51873000Y-111907000D01*
X51853000Y-111907000D01*
X51853000Y-111653000D01*
X51873000Y-111653000D01*
X51873000Y-111633000D01*
X52127000Y-111633000D01*
X52127000Y-111653000D01*
X53320155Y-111653000D01*
X53441476Y-111423110D01*
X53271645Y-111013076D01*
X52881358Y-110584817D01*
X52738447Y-110517702D01*
X53079147Y-110290054D01*
X53401054Y-109808285D01*
X53514093Y-109240000D01*
X53401054Y-108671715D01*
X53079147Y-108189946D01*
X52749974Y-107970000D01*
X53079147Y-107750054D01*
X53401054Y-107268285D01*
X53514093Y-106700000D01*
X53401054Y-106131715D01*
X53079147Y-105649946D01*
X52749974Y-105430000D01*
X53079147Y-105210054D01*
X53401054Y-104728285D01*
X53514093Y-104160000D01*
X53401054Y-103591715D01*
X53079147Y-103109946D01*
X52749974Y-102890000D01*
X53079147Y-102670054D01*
X53401054Y-102188285D01*
X53514093Y-101620000D01*
X53401054Y-101051715D01*
X53079147Y-100569946D01*
X52749974Y-100350000D01*
X53079147Y-100130054D01*
X53401054Y-99648285D01*
X53514093Y-99080000D01*
X53401054Y-98511715D01*
X53079147Y-98029946D01*
X52749974Y-97810000D01*
X53079147Y-97590054D01*
X53401054Y-97108285D01*
X53514093Y-96540000D01*
X53401054Y-95971715D01*
X53079147Y-95489946D01*
X53035223Y-95460597D01*
X53097765Y-95448157D01*
X53307809Y-95307809D01*
X53312411Y-95300921D01*
X53763400Y-95751910D01*
X53763400Y-118852209D01*
X53605450Y-118561974D01*
X53179761Y-118217941D01*
X52654820Y-118063000D01*
X52317000Y-118063000D01*
X52317000Y-119333000D01*
X52337000Y-119333000D01*
X52337000Y-119587000D01*
X52317000Y-119587000D01*
X52317000Y-121873000D01*
X52337000Y-121873000D01*
X52337000Y-122127000D01*
X52317000Y-122127000D01*
X52317000Y-124413000D01*
X53759540Y-124413000D01*
X53882040Y-124196930D01*
X53867080Y-124122723D01*
X53605450Y-123641974D01*
X53179761Y-123297941D01*
X53085097Y-123270000D01*
X53179761Y-123242059D01*
X53605450Y-122898026D01*
X53867080Y-122417277D01*
X53882040Y-122343070D01*
X53759541Y-122127002D01*
X53916434Y-122127002D01*
X53979145Y-122220855D01*
X58379145Y-126620855D01*
X58618115Y-126780530D01*
X58900000Y-126836600D01*
X77594890Y-126836600D01*
X77847422Y-127089132D01*
X77847335Y-127188633D01*
X77992039Y-127538843D01*
X78259747Y-127807020D01*
X78609705Y-127952335D01*
X78710713Y-127952423D01*
X79807304Y-129049014D01*
X79461157Y-129192039D01*
X79192980Y-129459747D01*
X79047665Y-129809705D01*
X79047335Y-130188633D01*
X79192039Y-130538843D01*
X79459747Y-130807020D01*
X79809705Y-130952335D01*
X80188633Y-130952665D01*
X80263400Y-130921772D01*
X80263400Y-132294890D01*
X77294890Y-135263400D01*
X75710550Y-135263400D01*
X75640253Y-135192980D01*
X75290295Y-135047665D01*
X74911367Y-135047335D01*
X74561157Y-135192039D01*
X74292980Y-135459747D01*
X74147665Y-135809705D01*
X74147335Y-136188633D01*
X74292039Y-136538843D01*
X74559747Y-136807020D01*
X74909705Y-136952335D01*
X75288633Y-136952665D01*
X75638843Y-136807961D01*
X75710329Y-136736600D01*
X77600000Y-136736600D01*
X77881885Y-136680530D01*
X78120855Y-136520855D01*
X81520855Y-133120855D01*
X81680530Y-132881885D01*
X81736600Y-132600000D01*
X81736600Y-129978310D01*
X83463400Y-131705110D01*
X83463400Y-134689450D01*
X83392980Y-134759747D01*
X83247665Y-135109705D01*
X83247335Y-135488633D01*
X83392039Y-135838843D01*
X83659747Y-136107020D01*
X83756644Y-136147255D01*
X83647665Y-136409705D01*
X83647335Y-136788633D01*
X83792039Y-137138843D01*
X84059747Y-137407020D01*
X84336396Y-137521894D01*
X77988479Y-143869811D01*
X75358789Y-143869811D01*
X75076904Y-143925881D01*
X74837934Y-144085556D01*
X73106108Y-145817382D01*
X72987828Y-145640365D01*
X72534609Y-145337533D01*
X72000000Y-145231193D01*
X71465391Y-145337533D01*
X71012172Y-145640365D01*
X70709340Y-146093584D01*
X70603000Y-146628193D01*
X70603000Y-147371807D01*
X70661920Y-147668021D01*
X69338080Y-147668021D01*
X69397000Y-147371807D01*
X69397000Y-146628193D01*
X69290660Y-146093584D01*
X68987828Y-145640365D01*
X68534609Y-145337533D01*
X68000000Y-145231193D01*
X67465391Y-145337533D01*
X67012172Y-145640365D01*
X66709340Y-146093584D01*
X66603000Y-146628193D01*
X66603000Y-147371807D01*
X66661920Y-147668021D01*
X65338080Y-147668021D01*
X65397000Y-147371807D01*
X65397000Y-146628193D01*
X65290660Y-146093584D01*
X64987828Y-145640365D01*
X64534609Y-145337533D01*
X64000000Y-145231193D01*
X63465391Y-145337533D01*
X63012172Y-145640365D01*
X62709340Y-146093584D01*
X62603000Y-146628193D01*
X62603000Y-147371807D01*
X62658690Y-147651780D01*
X61486055Y-146479145D01*
X61349158Y-146387673D01*
X61290660Y-146093584D01*
X60987828Y-145640365D01*
X60534609Y-145337533D01*
X60000000Y-145231193D01*
X59465391Y-145337533D01*
X59012172Y-145640365D01*
X58709340Y-146093584D01*
X58603000Y-146628193D01*
X58603000Y-147371807D01*
X58709340Y-147906416D01*
X59012172Y-148359635D01*
X59465391Y-148662467D01*
X60000000Y-148768807D01*
X60534609Y-148662467D01*
X60987828Y-148359635D01*
X61106108Y-148182618D01*
X61848966Y-148925476D01*
X62087936Y-149085151D01*
X62369821Y-149141221D01*
X105630179Y-149141221D01*
X105912064Y-149085151D01*
X106151034Y-148925476D01*
X106893892Y-148182618D01*
X107012172Y-148359635D01*
X107465391Y-148662467D01*
X108000000Y-148768807D01*
X108534609Y-148662467D01*
X108987828Y-148359635D01*
X109290660Y-147906416D01*
X109397000Y-147371807D01*
X109397000Y-146628193D01*
X109338078Y-146331970D01*
X110661922Y-146331970D01*
X110603000Y-146628193D01*
X110603000Y-147371807D01*
X110709340Y-147906416D01*
X111012172Y-148359635D01*
X111465391Y-148662467D01*
X112000000Y-148768807D01*
X112534609Y-148662467D01*
X112987828Y-148359635D01*
X113290660Y-147906416D01*
X113397000Y-147371807D01*
X113397000Y-147285227D01*
X115037258Y-148925485D01*
X115276228Y-149085160D01*
X115558113Y-149141230D01*
X137630170Y-149141230D01*
X137912055Y-149085160D01*
X138151025Y-148925485D01*
X138675524Y-148400986D01*
X138780191Y-148557629D01*
X138990235Y-148697977D01*
X139238000Y-148747260D01*
X140762000Y-148747260D01*
X141009765Y-148697977D01*
X141219809Y-148557629D01*
X141360157Y-148347585D01*
X141409440Y-148099820D01*
X141409440Y-145900180D01*
X141360157Y-145652415D01*
X141219809Y-145442371D01*
X141009765Y-145302023D01*
X140762000Y-145252740D01*
X139238000Y-145252740D01*
X138990235Y-145302023D01*
X138780191Y-145442371D01*
X138639843Y-145652415D01*
X138590560Y-145900180D01*
X138590560Y-146427952D01*
X138582138Y-146433580D01*
X138513945Y-146479145D01*
X137341310Y-147651780D01*
X137397000Y-147371807D01*
X137397000Y-146628193D01*
X137290660Y-146093584D01*
X136987828Y-145640365D01*
X136534609Y-145337533D01*
X136000000Y-145231193D01*
X135465391Y-145337533D01*
X135012172Y-145640365D01*
X134709340Y-146093584D01*
X134603000Y-146628193D01*
X134603000Y-147371807D01*
X134661922Y-147668030D01*
X133338078Y-147668030D01*
X133397000Y-147371807D01*
X133397000Y-146628193D01*
X133290660Y-146093584D01*
X132987828Y-145640365D01*
X132534609Y-145337533D01*
X132000000Y-145231193D01*
X131465391Y-145337533D01*
X131012172Y-145640365D01*
X130709340Y-146093584D01*
X130603000Y-146628193D01*
X130603000Y-147371807D01*
X130661922Y-147668030D01*
X129337021Y-147668030D01*
X129397000Y-147464820D01*
X129397000Y-147127000D01*
X128127000Y-147127000D01*
X128127000Y-147147000D01*
X127873000Y-147147000D01*
X127873000Y-147127000D01*
X126603000Y-147127000D01*
X126603000Y-147464820D01*
X126662979Y-147668030D01*
X125338078Y-147668030D01*
X125397000Y-147371807D01*
X125397000Y-146628193D01*
X125378499Y-146535180D01*
X126603000Y-146535180D01*
X126603000Y-146873000D01*
X127873000Y-146873000D01*
X127873000Y-145430460D01*
X128127000Y-145430460D01*
X128127000Y-146873000D01*
X129397000Y-146873000D01*
X129397000Y-146535180D01*
X129242059Y-146010239D01*
X128898026Y-145584550D01*
X128417277Y-145322920D01*
X128343070Y-145307960D01*
X128127000Y-145430460D01*
X127873000Y-145430460D01*
X127656930Y-145307960D01*
X127582723Y-145322920D01*
X127101974Y-145584550D01*
X126757941Y-146010239D01*
X126603000Y-146535180D01*
X125378499Y-146535180D01*
X125290660Y-146093584D01*
X124987828Y-145640365D01*
X124534609Y-145337533D01*
X124000000Y-145231193D01*
X123465391Y-145337533D01*
X123012172Y-145640365D01*
X122709340Y-146093584D01*
X122603000Y-146628193D01*
X122603000Y-147371807D01*
X122661922Y-147668030D01*
X121338078Y-147668030D01*
X121397000Y-147371807D01*
X121397000Y-146628193D01*
X121290660Y-146093584D01*
X120987828Y-145640365D01*
X120534609Y-145337533D01*
X120000000Y-145231193D01*
X119465391Y-145337533D01*
X119012172Y-145640365D01*
X118893892Y-145817382D01*
X117255655Y-144179145D01*
X117016685Y-144019470D01*
X116734800Y-143963400D01*
X107205110Y-143963400D01*
X104630343Y-141388633D01*
X105047335Y-141388633D01*
X105192039Y-141738843D01*
X105459747Y-142007020D01*
X105809705Y-142152335D01*
X106188633Y-142152665D01*
X106343602Y-142088633D01*
X118747335Y-142088633D01*
X118892039Y-142438843D01*
X119159747Y-142707020D01*
X119509705Y-142852335D01*
X119888633Y-142852665D01*
X120238843Y-142707961D01*
X120507020Y-142440253D01*
X120652335Y-142090295D01*
X120652665Y-141711367D01*
X120507961Y-141361157D01*
X120240253Y-141092980D01*
X119890295Y-140947665D01*
X119511367Y-140947335D01*
X119161157Y-141092039D01*
X118892980Y-141359747D01*
X118747665Y-141709705D01*
X118747335Y-142088633D01*
X106343602Y-142088633D01*
X106538843Y-142007961D01*
X106807020Y-141740253D01*
X106952335Y-141390295D01*
X106952665Y-141011367D01*
X106807961Y-140661157D01*
X106540253Y-140392980D01*
X106487096Y-140370907D01*
X123835000Y-140370907D01*
X123835000Y-140429093D01*
X123948039Y-140997378D01*
X124269946Y-141479147D01*
X124555578Y-141670000D01*
X124269946Y-141860853D01*
X123948039Y-142342622D01*
X123835000Y-142910907D01*
X123835000Y-142969093D01*
X123948039Y-143537378D01*
X124269946Y-144019147D01*
X124751715Y-144341054D01*
X125320000Y-144454093D01*
X125888285Y-144341054D01*
X126370054Y-144019147D01*
X126590000Y-143689974D01*
X126809946Y-144019147D01*
X127291715Y-144341054D01*
X127860000Y-144454093D01*
X128428285Y-144341054D01*
X128910054Y-144019147D01*
X129130000Y-143689974D01*
X129349946Y-144019147D01*
X129831715Y-144341054D01*
X130400000Y-144454093D01*
X130968285Y-144341054D01*
X131450054Y-144019147D01*
X131771961Y-143537378D01*
X131885000Y-142969093D01*
X131885000Y-142910907D01*
X131813518Y-142551540D01*
X142214518Y-142551540D01*
X142637616Y-143575515D01*
X143420365Y-144359631D01*
X144443599Y-144784515D01*
X145551540Y-144785482D01*
X146575515Y-144362384D01*
X147359631Y-143579635D01*
X147784515Y-142556401D01*
X147785482Y-141448460D01*
X147362384Y-140424485D01*
X146579635Y-139640369D01*
X145556401Y-139215485D01*
X144448460Y-139214518D01*
X143424485Y-139637616D01*
X142640369Y-140420365D01*
X142215485Y-141443599D01*
X142214518Y-142551540D01*
X131813518Y-142551540D01*
X131771961Y-142342622D01*
X131450054Y-141860853D01*
X131446357Y-141858383D01*
X131497765Y-141848157D01*
X131707809Y-141707809D01*
X131848157Y-141497765D01*
X131897440Y-141250000D01*
X131897440Y-139550000D01*
X131848157Y-139302235D01*
X131707809Y-139092191D01*
X131497765Y-138951843D01*
X131250000Y-138902560D01*
X129550000Y-138902560D01*
X129302235Y-138951843D01*
X129092191Y-139092191D01*
X128951843Y-139302235D01*
X128939403Y-139364777D01*
X128910054Y-139320853D01*
X128428285Y-138998946D01*
X127860000Y-138885907D01*
X127291715Y-138998946D01*
X126809946Y-139320853D01*
X126590000Y-139650026D01*
X126370054Y-139320853D01*
X125888285Y-138998946D01*
X125320000Y-138885907D01*
X124751715Y-138998946D01*
X124269946Y-139320853D01*
X123948039Y-139802622D01*
X123835000Y-140370907D01*
X106487096Y-140370907D01*
X106190295Y-140247665D01*
X105811367Y-140247335D01*
X105461157Y-140392039D01*
X105192980Y-140659747D01*
X105047665Y-141009705D01*
X105047335Y-141388633D01*
X104630343Y-141388633D01*
X102630343Y-139388633D01*
X109447335Y-139388633D01*
X109592039Y-139738843D01*
X109859747Y-140007020D01*
X110209705Y-140152335D01*
X110588633Y-140152665D01*
X110742038Y-140089279D01*
X110759747Y-140107020D01*
X111109705Y-140252335D01*
X111488633Y-140252665D01*
X111838843Y-140107961D01*
X111887019Y-140059870D01*
X112109705Y-140152337D01*
X112488633Y-140152667D01*
X112838843Y-140007963D01*
X113107020Y-139740255D01*
X113252335Y-139390297D01*
X113252665Y-139011369D01*
X113107961Y-138661159D01*
X112840253Y-138392982D01*
X112588953Y-138288633D01*
X118647335Y-138288633D01*
X118755417Y-138550210D01*
X118647665Y-138809705D01*
X118647335Y-139188633D01*
X118792039Y-139538843D01*
X119059747Y-139807020D01*
X119409705Y-139952335D01*
X119788633Y-139952665D01*
X120138843Y-139807961D01*
X120407020Y-139540253D01*
X120552335Y-139190295D01*
X120552665Y-138811367D01*
X120444583Y-138549790D01*
X120552335Y-138290295D01*
X120552665Y-137911367D01*
X120407961Y-137561157D01*
X120140253Y-137292980D01*
X119790295Y-137147665D01*
X119411367Y-137147335D01*
X119061157Y-137292039D01*
X118792980Y-137559747D01*
X118647665Y-137909705D01*
X118647335Y-138288633D01*
X112588953Y-138288633D01*
X112490295Y-138247667D01*
X112111367Y-138247337D01*
X111761157Y-138392041D01*
X111712981Y-138440132D01*
X111490295Y-138347665D01*
X111111367Y-138347335D01*
X110957962Y-138410721D01*
X110940253Y-138392980D01*
X110590295Y-138247665D01*
X110211367Y-138247335D01*
X109861157Y-138392039D01*
X109592980Y-138659747D01*
X109447665Y-139009705D01*
X109447335Y-139388633D01*
X102630343Y-139388633D01*
X96894305Y-133652595D01*
X97107020Y-133440253D01*
X97252335Y-133090295D01*
X97252665Y-132711367D01*
X97107961Y-132361157D01*
X96840253Y-132092980D01*
X96490295Y-131947665D01*
X96111367Y-131947335D01*
X95761157Y-132092039D01*
X95547266Y-132305556D01*
X93058901Y-129817191D01*
X93058901Y-129100611D01*
X93485556Y-129527266D01*
X93724526Y-129686941D01*
X94006411Y-129743011D01*
X96393589Y-129743011D01*
X96675474Y-129686941D01*
X96914444Y-129527266D01*
X97220855Y-129220855D01*
X97234790Y-129200000D01*
X97380530Y-128981885D01*
X97436600Y-128700000D01*
X97436600Y-128438932D01*
X97709705Y-128552335D01*
X98088633Y-128552665D01*
X98438843Y-128407961D01*
X98707020Y-128140253D01*
X98852335Y-127790295D01*
X98852665Y-127411367D01*
X98707961Y-127061157D01*
X98440253Y-126792980D01*
X98090295Y-126647665D01*
X97711367Y-126647335D01*
X97682410Y-126659300D01*
X102441710Y-121900000D01*
X127257000Y-121900000D01*
X127344006Y-122337407D01*
X127591777Y-122708223D01*
X127962593Y-122955994D01*
X128400000Y-123043000D01*
X129757000Y-123043000D01*
X129757000Y-126905336D01*
X129562593Y-126944006D01*
X129191777Y-127191777D01*
X128944006Y-127562593D01*
X128857000Y-128000000D01*
X128944006Y-128437407D01*
X129191777Y-128808223D01*
X129562593Y-129055994D01*
X130000000Y-129143000D01*
X130900000Y-129143000D01*
X131337407Y-129055994D01*
X131708223Y-128808223D01*
X131955994Y-128437407D01*
X132043000Y-128000000D01*
X132043000Y-123592521D01*
X138764570Y-123592521D01*
X138764570Y-126207479D01*
X138888988Y-126832971D01*
X139243301Y-127363238D01*
X139773568Y-127717551D01*
X140399060Y-127841969D01*
X141024552Y-127717551D01*
X141554819Y-127363238D01*
X141909132Y-126832971D01*
X142033550Y-126207479D01*
X142033550Y-125027000D01*
X144766590Y-125027000D01*
X144766590Y-126027760D01*
X144939609Y-126643585D01*
X145335124Y-127146322D01*
X145892921Y-127459433D01*
X146020726Y-127490379D01*
X146274080Y-127371025D01*
X146274080Y-125027000D01*
X146528080Y-125027000D01*
X146528080Y-127371025D01*
X146781434Y-127490379D01*
X146909239Y-127459433D01*
X147467036Y-127146322D01*
X147862551Y-126643585D01*
X148035570Y-126027760D01*
X148035570Y-125027000D01*
X146528080Y-125027000D01*
X146274080Y-125027000D01*
X144766590Y-125027000D01*
X142033550Y-125027000D01*
X142033550Y-123772240D01*
X144766590Y-123772240D01*
X144766590Y-124773000D01*
X146274080Y-124773000D01*
X146274080Y-122428975D01*
X146528080Y-122428975D01*
X146528080Y-124773000D01*
X148035570Y-124773000D01*
X148035570Y-123772240D01*
X147862551Y-123156415D01*
X147467036Y-122653678D01*
X146909239Y-122340567D01*
X146781434Y-122309621D01*
X146528080Y-122428975D01*
X146274080Y-122428975D01*
X146020726Y-122309621D01*
X145892921Y-122340567D01*
X145335124Y-122653678D01*
X144939609Y-123156415D01*
X144766590Y-123772240D01*
X142033550Y-123772240D01*
X142033550Y-123592521D01*
X141909132Y-122967029D01*
X141554819Y-122436762D01*
X141024552Y-122082449D01*
X140399060Y-121958031D01*
X139773568Y-122082449D01*
X139243301Y-122436762D01*
X138888988Y-122967029D01*
X138764570Y-123592521D01*
X132043000Y-123592521D01*
X132043000Y-122500000D01*
X131955994Y-122062593D01*
X131708223Y-121691777D01*
X131108223Y-121091777D01*
X130737407Y-120844006D01*
X130300000Y-120757000D01*
X128400000Y-120757000D01*
X127962593Y-120844006D01*
X127591777Y-121091777D01*
X127344006Y-121462593D01*
X127257000Y-121900000D01*
X102441710Y-121900000D01*
X104742690Y-119599020D01*
X140463002Y-119599020D01*
X140587420Y-120224512D01*
X140941733Y-120754779D01*
X141472000Y-121109092D01*
X142097492Y-121233510D01*
X144202268Y-121233510D01*
X144827760Y-121109092D01*
X145358027Y-120754779D01*
X145712340Y-120224512D01*
X145836758Y-119599020D01*
X145712340Y-118973528D01*
X145358027Y-118443261D01*
X144827760Y-118088948D01*
X144202268Y-117964530D01*
X142097492Y-117964530D01*
X141472000Y-118088948D01*
X140941733Y-118443261D01*
X140587420Y-118973528D01*
X140463002Y-119599020D01*
X104742690Y-119599020D01*
X105005110Y-119336600D01*
X114700000Y-119336600D01*
X114981885Y-119280530D01*
X115220855Y-119120855D01*
X117605110Y-116736600D01*
X119489450Y-116736600D01*
X119559747Y-116807020D01*
X119909705Y-116952335D01*
X120288633Y-116952665D01*
X120638843Y-116807961D01*
X120907020Y-116540253D01*
X121052335Y-116190295D01*
X121052665Y-115811367D01*
X120907961Y-115461157D01*
X120640253Y-115192980D01*
X120290295Y-115047665D01*
X119911367Y-115047335D01*
X119561157Y-115192039D01*
X119489671Y-115263400D01*
X118503560Y-115263400D01*
X120746105Y-113020855D01*
X120794759Y-112948039D01*
X120905780Y-112781885D01*
X120924328Y-112688633D01*
X125447335Y-112688633D01*
X125592039Y-113038843D01*
X125859747Y-113307020D01*
X126209705Y-113452335D01*
X126588633Y-113452665D01*
X126938843Y-113307961D01*
X127207020Y-113040253D01*
X127352335Y-112690295D01*
X127352665Y-112311367D01*
X127207961Y-111961157D01*
X126940253Y-111692980D01*
X126590295Y-111547665D01*
X126211367Y-111547335D01*
X125861157Y-111692039D01*
X125592980Y-111959747D01*
X125447665Y-112309705D01*
X125447335Y-112688633D01*
X120924328Y-112688633D01*
X120961850Y-112500000D01*
X120961850Y-93079860D01*
X123405110Y-90636600D01*
X128389450Y-90636600D01*
X128459747Y-90707020D01*
X128809705Y-90852335D01*
X129188633Y-90852665D01*
X129538843Y-90707961D01*
X129807020Y-90440253D01*
X129952335Y-90090295D01*
X129952665Y-89711367D01*
X129807961Y-89361157D01*
X129540253Y-89092980D01*
X129190295Y-88947665D01*
X128811367Y-88947335D01*
X128461157Y-89092039D01*
X128389671Y-89163400D01*
X124102534Y-89163400D01*
X125714394Y-87551540D01*
X142214518Y-87551540D01*
X142637616Y-88575515D01*
X143420365Y-89359631D01*
X144443599Y-89784515D01*
X145551540Y-89785482D01*
X146575515Y-89362384D01*
X147359631Y-88579635D01*
X147784515Y-87556401D01*
X147785482Y-86448460D01*
X147362384Y-85424485D01*
X146579635Y-84640369D01*
X145556401Y-84215485D01*
X144448460Y-84214518D01*
X143424485Y-84637616D01*
X142640369Y-85420365D01*
X142215485Y-86443599D01*
X142214518Y-87551540D01*
X125714394Y-87551540D01*
X125808223Y-87457711D01*
X126055994Y-87086895D01*
X126143000Y-86649488D01*
X126143000Y-85417932D01*
X126307809Y-85307809D01*
X126448157Y-85097765D01*
X126497440Y-84850000D01*
X126497440Y-83150000D01*
X126448157Y-82902235D01*
X126319709Y-82710000D01*
X147930069Y-82710000D01*
X148488338Y-82821046D01*
G36*
X87663400Y-141594890D02*
X85679145Y-143579145D01*
X85519470Y-143818115D01*
X85463400Y-144100000D01*
X85463400Y-147668021D01*
X85338080Y-147668021D01*
X85397000Y-147371807D01*
X85397000Y-146628193D01*
X85290660Y-146093584D01*
X84987828Y-145640365D01*
X84534609Y-145337533D01*
X84000000Y-145231193D01*
X83465391Y-145337533D01*
X83012172Y-145640365D01*
X82709340Y-146093584D01*
X82603000Y-146628193D01*
X82603000Y-147371807D01*
X82661920Y-147668021D01*
X81337023Y-147668021D01*
X81397000Y-147464820D01*
X81397000Y-147127000D01*
X80127000Y-147127000D01*
X80127000Y-147147000D01*
X79873000Y-147147000D01*
X79873000Y-147127000D01*
X78603000Y-147127000D01*
X78603000Y-147464820D01*
X78662977Y-147668021D01*
X77338080Y-147668021D01*
X77397000Y-147371807D01*
X77397000Y-146628193D01*
X77378499Y-146535180D01*
X78603000Y-146535180D01*
X78603000Y-146873000D01*
X79873000Y-146873000D01*
X79873000Y-145430460D01*
X80127000Y-145430460D01*
X80127000Y-146873000D01*
X81397000Y-146873000D01*
X81397000Y-146535180D01*
X81242059Y-146010239D01*
X80898026Y-145584550D01*
X80417277Y-145322920D01*
X80343070Y-145307960D01*
X80127000Y-145430460D01*
X79873000Y-145430460D01*
X79656930Y-145307960D01*
X79582723Y-145322920D01*
X79101974Y-145584550D01*
X78757941Y-146010239D01*
X78603000Y-146535180D01*
X77378499Y-146535180D01*
X77290660Y-146093584D01*
X76987828Y-145640365D01*
X76542807Y-145343011D01*
X78293589Y-145343011D01*
X78575474Y-145286941D01*
X78814444Y-145127266D01*
X87663400Y-136278310D01*
X87663400Y-141594890D01*
X87663400Y-141594890D01*
G37*
X87663400Y-141594890D02*
X85679145Y-143579145D01*
X85519470Y-143818115D01*
X85463400Y-144100000D01*
X85463400Y-147668021D01*
X85338080Y-147668021D01*
X85397000Y-147371807D01*
X85397000Y-146628193D01*
X85290660Y-146093584D01*
X84987828Y-145640365D01*
X84534609Y-145337533D01*
X84000000Y-145231193D01*
X83465391Y-145337533D01*
X83012172Y-145640365D01*
X82709340Y-146093584D01*
X82603000Y-146628193D01*
X82603000Y-147371807D01*
X82661920Y-147668021D01*
X81337023Y-147668021D01*
X81397000Y-147464820D01*
X81397000Y-147127000D01*
X80127000Y-147127000D01*
X80127000Y-147147000D01*
X79873000Y-147147000D01*
X79873000Y-147127000D01*
X78603000Y-147127000D01*
X78603000Y-147464820D01*
X78662977Y-147668021D01*
X77338080Y-147668021D01*
X77397000Y-147371807D01*
X77397000Y-146628193D01*
X77378499Y-146535180D01*
X78603000Y-146535180D01*
X78603000Y-146873000D01*
X79873000Y-146873000D01*
X79873000Y-145430460D01*
X80127000Y-145430460D01*
X80127000Y-146873000D01*
X81397000Y-146873000D01*
X81397000Y-146535180D01*
X81242059Y-146010239D01*
X80898026Y-145584550D01*
X80417277Y-145322920D01*
X80343070Y-145307960D01*
X80127000Y-145430460D01*
X79873000Y-145430460D01*
X79656930Y-145307960D01*
X79582723Y-145322920D01*
X79101974Y-145584550D01*
X78757941Y-146010239D01*
X78603000Y-146535180D01*
X77378499Y-146535180D01*
X77290660Y-146093584D01*
X76987828Y-145640365D01*
X76542807Y-145343011D01*
X78293589Y-145343011D01*
X78575474Y-145286941D01*
X78814444Y-145127266D01*
X87663400Y-136278310D01*
X87663400Y-141594890D01*
G36*
X97863400Y-138405110D02*
X97863400Y-144789450D01*
X97799954Y-144852785D01*
X97740253Y-144792980D01*
X97390295Y-144647665D01*
X97011367Y-144647335D01*
X96661157Y-144792039D01*
X96392980Y-145059747D01*
X96247665Y-145409705D01*
X96247335Y-145788633D01*
X96392039Y-146138843D01*
X96659747Y-146407020D01*
X97009705Y-146552335D01*
X97388633Y-146552665D01*
X97738843Y-146407961D01*
X98000046Y-146147215D01*
X98059747Y-146207020D01*
X98409705Y-146352335D01*
X98788633Y-146352665D01*
X99138843Y-146207961D01*
X99407020Y-145940253D01*
X99552335Y-145590295D01*
X99552665Y-145211367D01*
X99407961Y-144861157D01*
X99336600Y-144789671D01*
X99336600Y-138878310D01*
X106168104Y-145709814D01*
X106308290Y-145803483D01*
X105048373Y-147063400D01*
X93409440Y-147063400D01*
X93409440Y-145900180D01*
X93360157Y-145652415D01*
X93219809Y-145442371D01*
X93009765Y-145302023D01*
X92762000Y-145252740D01*
X92572048Y-145252740D01*
X92520855Y-145176125D01*
X91168130Y-143823400D01*
X91168130Y-131709840D01*
X97863400Y-138405110D01*
X97863400Y-138405110D01*
G37*
X97863400Y-138405110D02*
X97863400Y-144789450D01*
X97799954Y-144852785D01*
X97740253Y-144792980D01*
X97390295Y-144647665D01*
X97011367Y-144647335D01*
X96661157Y-144792039D01*
X96392980Y-145059747D01*
X96247665Y-145409705D01*
X96247335Y-145788633D01*
X96392039Y-146138843D01*
X96659747Y-146407020D01*
X97009705Y-146552335D01*
X97388633Y-146552665D01*
X97738843Y-146407961D01*
X98000046Y-146147215D01*
X98059747Y-146207020D01*
X98409705Y-146352335D01*
X98788633Y-146352665D01*
X99138843Y-146207961D01*
X99407020Y-145940253D01*
X99552335Y-145590295D01*
X99552665Y-145211367D01*
X99407961Y-144861157D01*
X99336600Y-144789671D01*
X99336600Y-138878310D01*
X106168104Y-145709814D01*
X106308290Y-145803483D01*
X105048373Y-147063400D01*
X93409440Y-147063400D01*
X93409440Y-145900180D01*
X93360157Y-145652415D01*
X93219809Y-145442371D01*
X93009765Y-145302023D01*
X92762000Y-145252740D01*
X92572048Y-145252740D01*
X92520855Y-145176125D01*
X91168130Y-143823400D01*
X91168130Y-131709840D01*
X97863400Y-138405110D01*
G36*
X82749930Y-126395319D02*
X82894634Y-126745529D01*
X83162342Y-127013706D01*
X83347507Y-127090593D01*
X83347335Y-127288633D01*
X83492039Y-127638843D01*
X83552961Y-127699871D01*
X83492980Y-127759747D01*
X83481087Y-127788389D01*
X81784647Y-126091949D01*
X81805362Y-126071270D01*
X82740081Y-126071270D01*
X82750214Y-126069254D01*
X82749930Y-126395319D01*
X82749930Y-126395319D01*
G37*
X82749930Y-126395319D02*
X82894634Y-126745529D01*
X83162342Y-127013706D01*
X83347507Y-127090593D01*
X83347335Y-127288633D01*
X83492039Y-127638843D01*
X83552961Y-127699871D01*
X83492980Y-127759747D01*
X83481087Y-127788389D01*
X81784647Y-126091949D01*
X81805362Y-126071270D01*
X82740081Y-126071270D01*
X82750214Y-126069254D01*
X82749930Y-126395319D01*
G36*
X78161157Y-121092039D02*
X77892980Y-121359747D01*
X77747665Y-121709705D01*
X77747335Y-122088633D01*
X77892039Y-122438843D01*
X77963400Y-122510329D01*
X77963400Y-125376011D01*
X77900000Y-125363400D01*
X61279503Y-125363400D01*
X61472467Y-125074609D01*
X61578807Y-124540000D01*
X61514222Y-124215308D01*
X64726510Y-121003020D01*
X78376599Y-121003020D01*
X78161157Y-121092039D01*
X78161157Y-121092039D01*
G37*
X78161157Y-121092039D02*
X77892980Y-121359747D01*
X77747665Y-121709705D01*
X77747335Y-122088633D01*
X77892039Y-122438843D01*
X77963400Y-122510329D01*
X77963400Y-125376011D01*
X77900000Y-125363400D01*
X61279503Y-125363400D01*
X61472467Y-125074609D01*
X61578807Y-124540000D01*
X61514222Y-124215308D01*
X64726510Y-121003020D01*
X78376599Y-121003020D01*
X78161157Y-121092039D01*
G36*
X116329946Y-82920853D02*
X116008039Y-83402622D01*
X115895000Y-83970907D01*
X115895000Y-84029093D01*
X116008039Y-84597378D01*
X116329946Y-85079147D01*
X116369849Y-85105809D01*
X116161157Y-85192039D01*
X116142357Y-85210806D01*
X115990295Y-85147665D01*
X115611367Y-85147335D01*
X115457962Y-85210721D01*
X115440253Y-85192980D01*
X115090295Y-85047665D01*
X114711367Y-85047335D01*
X114361157Y-85192039D01*
X114092980Y-85459747D01*
X113947665Y-85809705D01*
X113947539Y-85954482D01*
X113690295Y-85847665D01*
X113311367Y-85847335D01*
X112961157Y-85992039D01*
X112692980Y-86259747D01*
X112547665Y-86609705D01*
X112547335Y-86988633D01*
X112692039Y-87338843D01*
X112959747Y-87607020D01*
X113309705Y-87752335D01*
X113688633Y-87752665D01*
X113983633Y-87630773D01*
X114059747Y-87707020D01*
X114409705Y-87852335D01*
X114788633Y-87852665D01*
X114863400Y-87821772D01*
X114863400Y-106047642D01*
X114511367Y-106047335D01*
X114161157Y-106192039D01*
X113892980Y-106459747D01*
X113747665Y-106809705D01*
X113747409Y-107103883D01*
X113614185Y-107158930D01*
X113346008Y-107426638D01*
X113200693Y-107776596D01*
X113200363Y-108155524D01*
X113345067Y-108505734D01*
X113398764Y-108559526D01*
X112094890Y-109863400D01*
X110900000Y-109863400D01*
X110652577Y-109912615D01*
X110652665Y-109811367D01*
X110507961Y-109461157D01*
X110240253Y-109192980D01*
X109890295Y-109047665D01*
X109643617Y-109047450D01*
X109607961Y-108961157D01*
X109340253Y-108692980D01*
X108990295Y-108547665D01*
X108611367Y-108547335D01*
X108261157Y-108692039D01*
X107992980Y-108959747D01*
X107847665Y-109309705D01*
X107847335Y-109688633D01*
X107992039Y-110038843D01*
X108259747Y-110307020D01*
X108609705Y-110452335D01*
X108856383Y-110452550D01*
X108892039Y-110538843D01*
X109159747Y-110807020D01*
X109507055Y-110951235D01*
X106594890Y-113863400D01*
X104600000Y-113863400D01*
X104318115Y-113919470D01*
X104145214Y-114034999D01*
X104079145Y-114079145D01*
X98194890Y-119963400D01*
X84983092Y-119963400D01*
X84701207Y-120019470D01*
X84462237Y-120179145D01*
X81446043Y-123195339D01*
X81307961Y-122861157D01*
X81040253Y-122592980D01*
X80690295Y-122447665D01*
X80686991Y-122447662D01*
X80752335Y-122290295D01*
X80752665Y-121911367D01*
X80607961Y-121561157D01*
X80340253Y-121292980D01*
X79990295Y-121147665D01*
X79611367Y-121147335D01*
X79387041Y-121240025D01*
X79240253Y-121092980D01*
X79023605Y-121003020D01*
X80374032Y-121003020D01*
X80655917Y-120946950D01*
X80894887Y-120787275D01*
X82693529Y-118988633D01*
X86547335Y-118988633D01*
X86692039Y-119338843D01*
X86959747Y-119607020D01*
X87309705Y-119752335D01*
X87688633Y-119752665D01*
X88038843Y-119607961D01*
X88307020Y-119340253D01*
X88452335Y-118990295D01*
X88452665Y-118611367D01*
X88307961Y-118261157D01*
X88040253Y-117992980D01*
X87690295Y-117847665D01*
X87311367Y-117847335D01*
X86961157Y-117992039D01*
X86692980Y-118259747D01*
X86547665Y-118609705D01*
X86547335Y-118988633D01*
X82693529Y-118988633D01*
X87139760Y-114542402D01*
X87209705Y-114571445D01*
X87588633Y-114571775D01*
X87938843Y-114427071D01*
X88207020Y-114159363D01*
X88352335Y-113809405D01*
X88352398Y-113736600D01*
X88694890Y-113736600D01*
X89279145Y-114320855D01*
X89518115Y-114480530D01*
X89800000Y-114536600D01*
X90900000Y-114536600D01*
X91181885Y-114480530D01*
X91420855Y-114320855D01*
X91789132Y-113952578D01*
X91888633Y-113952665D01*
X92238843Y-113807961D01*
X92507020Y-113540253D01*
X92652335Y-113190295D01*
X92652665Y-112811367D01*
X92507961Y-112461157D01*
X92240253Y-112192980D01*
X91890295Y-112047665D01*
X91511367Y-112047335D01*
X91161157Y-112192039D01*
X91150129Y-112203048D01*
X91040253Y-112092980D01*
X90690295Y-111947665D01*
X90573590Y-111947563D01*
X90381885Y-111819470D01*
X90100000Y-111763400D01*
X87000000Y-111763400D01*
X86718115Y-111819470D01*
X86479145Y-111979145D01*
X79734890Y-118723400D01*
X61557260Y-118723400D01*
X61557260Y-118698000D01*
X61507977Y-118450235D01*
X61367629Y-118240191D01*
X61157585Y-118099843D01*
X60909820Y-118050560D01*
X58710180Y-118050560D01*
X58462415Y-118099843D01*
X58252371Y-118240191D01*
X58112023Y-118450235D01*
X58062740Y-118698000D01*
X58062740Y-120222000D01*
X58112023Y-120469765D01*
X58252371Y-120679809D01*
X58462415Y-120820157D01*
X58674577Y-120862358D01*
X58450365Y-121012172D01*
X58147533Y-121465391D01*
X58041193Y-122000000D01*
X58147533Y-122534609D01*
X58450365Y-122987828D01*
X58872664Y-123270000D01*
X58450365Y-123552172D01*
X58147533Y-124005391D01*
X58097688Y-124255978D01*
X55236600Y-121394890D01*
X55236600Y-110785750D01*
X64515000Y-110785750D01*
X64515000Y-111476309D01*
X64611673Y-111709698D01*
X64790301Y-111888327D01*
X65023690Y-111985000D01*
X65714250Y-111985000D01*
X65873000Y-111826250D01*
X65873000Y-110627000D01*
X64673750Y-110627000D01*
X64515000Y-110785750D01*
X55236600Y-110785750D01*
X55236600Y-107930907D01*
X64515000Y-107930907D01*
X64515000Y-107989093D01*
X64628039Y-108557378D01*
X64949946Y-109039147D01*
X64955858Y-109043097D01*
X64790301Y-109111673D01*
X64611673Y-109290302D01*
X64515000Y-109523691D01*
X64515000Y-110214250D01*
X64673750Y-110373000D01*
X65873000Y-110373000D01*
X65873000Y-110353000D01*
X66127000Y-110353000D01*
X66127000Y-110373000D01*
X66147000Y-110373000D01*
X66147000Y-110627000D01*
X66127000Y-110627000D01*
X66127000Y-111826250D01*
X66285750Y-111985000D01*
X66976310Y-111985000D01*
X67209699Y-111888327D01*
X67388327Y-111709698D01*
X67460597Y-111535223D01*
X67489946Y-111579147D01*
X67971715Y-111901054D01*
X68540000Y-112014093D01*
X69108285Y-111901054D01*
X69590054Y-111579147D01*
X69810000Y-111249974D01*
X70029946Y-111579147D01*
X70511715Y-111901054D01*
X71080000Y-112014093D01*
X71648285Y-111901054D01*
X72130054Y-111579147D01*
X72350000Y-111249974D01*
X72569946Y-111579147D01*
X73051715Y-111901054D01*
X73620000Y-112014093D01*
X74188285Y-111901054D01*
X74670054Y-111579147D01*
X74991961Y-111097378D01*
X75105000Y-110529093D01*
X75105000Y-110470907D01*
X74991961Y-109902622D01*
X74670054Y-109420853D01*
X74384422Y-109230000D01*
X74670054Y-109039147D01*
X74991961Y-108557378D01*
X75105000Y-107989093D01*
X75105000Y-107930907D01*
X75076700Y-107788633D01*
X109447335Y-107788633D01*
X109592039Y-108138843D01*
X109859747Y-108407020D01*
X110147650Y-108526568D01*
X110147335Y-108888633D01*
X110292039Y-109238843D01*
X110559747Y-109507020D01*
X110909705Y-109652335D01*
X111288633Y-109652665D01*
X111638843Y-109507961D01*
X111907020Y-109240253D01*
X112052335Y-108890295D01*
X112052665Y-108511367D01*
X111907961Y-108161157D01*
X111640253Y-107892980D01*
X111352350Y-107773432D01*
X111352665Y-107411367D01*
X111207961Y-107061157D01*
X110940253Y-106792980D01*
X110590295Y-106647665D01*
X110211367Y-106647335D01*
X109861157Y-106792039D01*
X109592980Y-107059747D01*
X109447665Y-107409705D01*
X109447335Y-107788633D01*
X75076700Y-107788633D01*
X74991961Y-107362622D01*
X74670054Y-106880853D01*
X74188285Y-106558946D01*
X73620000Y-106445907D01*
X73051715Y-106558946D01*
X72569946Y-106880853D01*
X72350000Y-107210026D01*
X72130054Y-106880853D01*
X71648285Y-106558946D01*
X71080000Y-106445907D01*
X70511715Y-106558946D01*
X70029946Y-106880853D01*
X69810000Y-107210026D01*
X69590054Y-106880853D01*
X69536600Y-106845136D01*
X69536600Y-105110550D01*
X69607020Y-105040253D01*
X69752335Y-104690295D01*
X69752665Y-104311367D01*
X69607961Y-103961157D01*
X69340253Y-103692980D01*
X68990295Y-103547665D01*
X68611367Y-103547335D01*
X68261157Y-103692039D01*
X67992980Y-103959747D01*
X67847665Y-104309705D01*
X67847335Y-104688633D01*
X67992039Y-105038843D01*
X68063400Y-105110329D01*
X68063400Y-106540709D01*
X67971715Y-106558946D01*
X67489946Y-106880853D01*
X67270000Y-107210026D01*
X67050054Y-106880853D01*
X66568285Y-106558946D01*
X66000000Y-106445907D01*
X65431715Y-106558946D01*
X64949946Y-106880853D01*
X64628039Y-107362622D01*
X64515000Y-107930907D01*
X55236600Y-107930907D01*
X55236600Y-95446800D01*
X55180530Y-95164915D01*
X55020855Y-94925945D01*
X53574055Y-93479145D01*
X53497440Y-93427952D01*
X53497440Y-93150000D01*
X53448157Y-92902235D01*
X53307809Y-92692191D01*
X53097765Y-92551843D01*
X52850000Y-92502560D01*
X51150000Y-92502560D01*
X50902235Y-92551843D01*
X50710000Y-92680291D01*
X50710000Y-87551540D01*
X52214518Y-87551540D01*
X52637616Y-88575515D01*
X53420365Y-89359631D01*
X54443599Y-89784515D01*
X55551540Y-89785482D01*
X56575515Y-89362384D01*
X57359631Y-88579635D01*
X57784515Y-87556401D01*
X57785482Y-86448460D01*
X57362384Y-85424485D01*
X56579635Y-84640369D01*
X55556401Y-84215485D01*
X54448460Y-84214518D01*
X53424485Y-84637616D01*
X52640369Y-85420365D01*
X52215485Y-86443599D01*
X52214518Y-87551540D01*
X50710000Y-87551540D01*
X50710000Y-84069931D01*
X50821046Y-83511662D01*
X51097669Y-83097667D01*
X51511660Y-82821047D01*
X52069931Y-82710000D01*
X116645511Y-82710000D01*
X116329946Y-82920853D01*
X116329946Y-82920853D01*
G37*
X116329946Y-82920853D02*
X116008039Y-83402622D01*
X115895000Y-83970907D01*
X115895000Y-84029093D01*
X116008039Y-84597378D01*
X116329946Y-85079147D01*
X116369849Y-85105809D01*
X116161157Y-85192039D01*
X116142357Y-85210806D01*
X115990295Y-85147665D01*
X115611367Y-85147335D01*
X115457962Y-85210721D01*
X115440253Y-85192980D01*
X115090295Y-85047665D01*
X114711367Y-85047335D01*
X114361157Y-85192039D01*
X114092980Y-85459747D01*
X113947665Y-85809705D01*
X113947539Y-85954482D01*
X113690295Y-85847665D01*
X113311367Y-85847335D01*
X112961157Y-85992039D01*
X112692980Y-86259747D01*
X112547665Y-86609705D01*
X112547335Y-86988633D01*
X112692039Y-87338843D01*
X112959747Y-87607020D01*
X113309705Y-87752335D01*
X113688633Y-87752665D01*
X113983633Y-87630773D01*
X114059747Y-87707020D01*
X114409705Y-87852335D01*
X114788633Y-87852665D01*
X114863400Y-87821772D01*
X114863400Y-106047642D01*
X114511367Y-106047335D01*
X114161157Y-106192039D01*
X113892980Y-106459747D01*
X113747665Y-106809705D01*
X113747409Y-107103883D01*
X113614185Y-107158930D01*
X113346008Y-107426638D01*
X113200693Y-107776596D01*
X113200363Y-108155524D01*
X113345067Y-108505734D01*
X113398764Y-108559526D01*
X112094890Y-109863400D01*
X110900000Y-109863400D01*
X110652577Y-109912615D01*
X110652665Y-109811367D01*
X110507961Y-109461157D01*
X110240253Y-109192980D01*
X109890295Y-109047665D01*
X109643617Y-109047450D01*
X109607961Y-108961157D01*
X109340253Y-108692980D01*
X108990295Y-108547665D01*
X108611367Y-108547335D01*
X108261157Y-108692039D01*
X107992980Y-108959747D01*
X107847665Y-109309705D01*
X107847335Y-109688633D01*
X107992039Y-110038843D01*
X108259747Y-110307020D01*
X108609705Y-110452335D01*
X108856383Y-110452550D01*
X108892039Y-110538843D01*
X109159747Y-110807020D01*
X109507055Y-110951235D01*
X106594890Y-113863400D01*
X104600000Y-113863400D01*
X104318115Y-113919470D01*
X104145214Y-114034999D01*
X104079145Y-114079145D01*
X98194890Y-119963400D01*
X84983092Y-119963400D01*
X84701207Y-120019470D01*
X84462237Y-120179145D01*
X81446043Y-123195339D01*
X81307961Y-122861157D01*
X81040253Y-122592980D01*
X80690295Y-122447665D01*
X80686991Y-122447662D01*
X80752335Y-122290295D01*
X80752665Y-121911367D01*
X80607961Y-121561157D01*
X80340253Y-121292980D01*
X79990295Y-121147665D01*
X79611367Y-121147335D01*
X79387041Y-121240025D01*
X79240253Y-121092980D01*
X79023605Y-121003020D01*
X80374032Y-121003020D01*
X80655917Y-120946950D01*
X80894887Y-120787275D01*
X82693529Y-118988633D01*
X86547335Y-118988633D01*
X86692039Y-119338843D01*
X86959747Y-119607020D01*
X87309705Y-119752335D01*
X87688633Y-119752665D01*
X88038843Y-119607961D01*
X88307020Y-119340253D01*
X88452335Y-118990295D01*
X88452665Y-118611367D01*
X88307961Y-118261157D01*
X88040253Y-117992980D01*
X87690295Y-117847665D01*
X87311367Y-117847335D01*
X86961157Y-117992039D01*
X86692980Y-118259747D01*
X86547665Y-118609705D01*
X86547335Y-118988633D01*
X82693529Y-118988633D01*
X87139760Y-114542402D01*
X87209705Y-114571445D01*
X87588633Y-114571775D01*
X87938843Y-114427071D01*
X88207020Y-114159363D01*
X88352335Y-113809405D01*
X88352398Y-113736600D01*
X88694890Y-113736600D01*
X89279145Y-114320855D01*
X89518115Y-114480530D01*
X89800000Y-114536600D01*
X90900000Y-114536600D01*
X91181885Y-114480530D01*
X91420855Y-114320855D01*
X91789132Y-113952578D01*
X91888633Y-113952665D01*
X92238843Y-113807961D01*
X92507020Y-113540253D01*
X92652335Y-113190295D01*
X92652665Y-112811367D01*
X92507961Y-112461157D01*
X92240253Y-112192980D01*
X91890295Y-112047665D01*
X91511367Y-112047335D01*
X91161157Y-112192039D01*
X91150129Y-112203048D01*
X91040253Y-112092980D01*
X90690295Y-111947665D01*
X90573590Y-111947563D01*
X90381885Y-111819470D01*
X90100000Y-111763400D01*
X87000000Y-111763400D01*
X86718115Y-111819470D01*
X86479145Y-111979145D01*
X79734890Y-118723400D01*
X61557260Y-118723400D01*
X61557260Y-118698000D01*
X61507977Y-118450235D01*
X61367629Y-118240191D01*
X61157585Y-118099843D01*
X60909820Y-118050560D01*
X58710180Y-118050560D01*
X58462415Y-118099843D01*
X58252371Y-118240191D01*
X58112023Y-118450235D01*
X58062740Y-118698000D01*
X58062740Y-120222000D01*
X58112023Y-120469765D01*
X58252371Y-120679809D01*
X58462415Y-120820157D01*
X58674577Y-120862358D01*
X58450365Y-121012172D01*
X58147533Y-121465391D01*
X58041193Y-122000000D01*
X58147533Y-122534609D01*
X58450365Y-122987828D01*
X58872664Y-123270000D01*
X58450365Y-123552172D01*
X58147533Y-124005391D01*
X58097688Y-124255978D01*
X55236600Y-121394890D01*
X55236600Y-110785750D01*
X64515000Y-110785750D01*
X64515000Y-111476309D01*
X64611673Y-111709698D01*
X64790301Y-111888327D01*
X65023690Y-111985000D01*
X65714250Y-111985000D01*
X65873000Y-111826250D01*
X65873000Y-110627000D01*
X64673750Y-110627000D01*
X64515000Y-110785750D01*
X55236600Y-110785750D01*
X55236600Y-107930907D01*
X64515000Y-107930907D01*
X64515000Y-107989093D01*
X64628039Y-108557378D01*
X64949946Y-109039147D01*
X64955858Y-109043097D01*
X64790301Y-109111673D01*
X64611673Y-109290302D01*
X64515000Y-109523691D01*
X64515000Y-110214250D01*
X64673750Y-110373000D01*
X65873000Y-110373000D01*
X65873000Y-110353000D01*
X66127000Y-110353000D01*
X66127000Y-110373000D01*
X66147000Y-110373000D01*
X66147000Y-110627000D01*
X66127000Y-110627000D01*
X66127000Y-111826250D01*
X66285750Y-111985000D01*
X66976310Y-111985000D01*
X67209699Y-111888327D01*
X67388327Y-111709698D01*
X67460597Y-111535223D01*
X67489946Y-111579147D01*
X67971715Y-111901054D01*
X68540000Y-112014093D01*
X69108285Y-111901054D01*
X69590054Y-111579147D01*
X69810000Y-111249974D01*
X70029946Y-111579147D01*
X70511715Y-111901054D01*
X71080000Y-112014093D01*
X71648285Y-111901054D01*
X72130054Y-111579147D01*
X72350000Y-111249974D01*
X72569946Y-111579147D01*
X73051715Y-111901054D01*
X73620000Y-112014093D01*
X74188285Y-111901054D01*
X74670054Y-111579147D01*
X74991961Y-111097378D01*
X75105000Y-110529093D01*
X75105000Y-110470907D01*
X74991961Y-109902622D01*
X74670054Y-109420853D01*
X74384422Y-109230000D01*
X74670054Y-109039147D01*
X74991961Y-108557378D01*
X75105000Y-107989093D01*
X75105000Y-107930907D01*
X75076700Y-107788633D01*
X109447335Y-107788633D01*
X109592039Y-108138843D01*
X109859747Y-108407020D01*
X110147650Y-108526568D01*
X110147335Y-108888633D01*
X110292039Y-109238843D01*
X110559747Y-109507020D01*
X110909705Y-109652335D01*
X111288633Y-109652665D01*
X111638843Y-109507961D01*
X111907020Y-109240253D01*
X112052335Y-108890295D01*
X112052665Y-108511367D01*
X111907961Y-108161157D01*
X111640253Y-107892980D01*
X111352350Y-107773432D01*
X111352665Y-107411367D01*
X111207961Y-107061157D01*
X110940253Y-106792980D01*
X110590295Y-106647665D01*
X110211367Y-106647335D01*
X109861157Y-106792039D01*
X109592980Y-107059747D01*
X109447665Y-107409705D01*
X109447335Y-107788633D01*
X75076700Y-107788633D01*
X74991961Y-107362622D01*
X74670054Y-106880853D01*
X74188285Y-106558946D01*
X73620000Y-106445907D01*
X73051715Y-106558946D01*
X72569946Y-106880853D01*
X72350000Y-107210026D01*
X72130054Y-106880853D01*
X71648285Y-106558946D01*
X71080000Y-106445907D01*
X70511715Y-106558946D01*
X70029946Y-106880853D01*
X69810000Y-107210026D01*
X69590054Y-106880853D01*
X69536600Y-106845136D01*
X69536600Y-105110550D01*
X69607020Y-105040253D01*
X69752335Y-104690295D01*
X69752665Y-104311367D01*
X69607961Y-103961157D01*
X69340253Y-103692980D01*
X68990295Y-103547665D01*
X68611367Y-103547335D01*
X68261157Y-103692039D01*
X67992980Y-103959747D01*
X67847665Y-104309705D01*
X67847335Y-104688633D01*
X67992039Y-105038843D01*
X68063400Y-105110329D01*
X68063400Y-106540709D01*
X67971715Y-106558946D01*
X67489946Y-106880853D01*
X67270000Y-107210026D01*
X67050054Y-106880853D01*
X66568285Y-106558946D01*
X66000000Y-106445907D01*
X65431715Y-106558946D01*
X64949946Y-106880853D01*
X64628039Y-107362622D01*
X64515000Y-107930907D01*
X55236600Y-107930907D01*
X55236600Y-95446800D01*
X55180530Y-95164915D01*
X55020855Y-94925945D01*
X53574055Y-93479145D01*
X53497440Y-93427952D01*
X53497440Y-93150000D01*
X53448157Y-92902235D01*
X53307809Y-92692191D01*
X53097765Y-92551843D01*
X52850000Y-92502560D01*
X51150000Y-92502560D01*
X50902235Y-92551843D01*
X50710000Y-92680291D01*
X50710000Y-87551540D01*
X52214518Y-87551540D01*
X52637616Y-88575515D01*
X53420365Y-89359631D01*
X54443599Y-89784515D01*
X55551540Y-89785482D01*
X56575515Y-89362384D01*
X57359631Y-88579635D01*
X57784515Y-87556401D01*
X57785482Y-86448460D01*
X57362384Y-85424485D01*
X56579635Y-84640369D01*
X55556401Y-84215485D01*
X54448460Y-84214518D01*
X53424485Y-84637616D01*
X52640369Y-85420365D01*
X52215485Y-86443599D01*
X52214518Y-87551540D01*
X50710000Y-87551540D01*
X50710000Y-84069931D01*
X50821046Y-83511662D01*
X51097669Y-83097667D01*
X51511660Y-82821047D01*
X52069931Y-82710000D01*
X116645511Y-82710000D01*
X116329946Y-82920853D01*
G36*
X117663400Y-112859229D02*
X117617943Y-112813692D01*
X117267985Y-112668377D01*
X116889057Y-112668047D01*
X116538847Y-112812751D01*
X116270670Y-113080459D01*
X116125355Y-113430417D01*
X116125267Y-113531425D01*
X113949703Y-115706989D01*
X113532467Y-115706989D01*
X117663400Y-111576057D01*
X117663400Y-112859229D01*
X117663400Y-112859229D01*
G37*
X117663400Y-112859229D02*
X117617943Y-112813692D01*
X117267985Y-112668377D01*
X116889057Y-112668047D01*
X116538847Y-112812751D01*
X116270670Y-113080459D01*
X116125355Y-113430417D01*
X116125267Y-113531425D01*
X113949703Y-115706989D01*
X113532467Y-115706989D01*
X117663400Y-111576057D01*
X117663400Y-112859229D01*
M02*
